<?xml version="1.0" standalone="no"?>
<!DOCTYPE svg PUBLIC "-//W3C//DTD SVG 1.1//EN" "http://www.w3.org/Graphics/SVG/1.1/DTD/svg11.dtd" >
<svg xmlns="http://www.w3.org/2000/svg" xmlns:xlink="http://www.w3.org/1999/xlink" version="1.1">
<metadata>
Created by FontForge 20170924 at Sun Jul  8 17:17:12 2018
 By www-data
Copyright(c) Beijing Founder Electronics Co.,Ltd. 
</metadata>
<defs>
<font id="FZFANGJHS--GB1-0" horiz-adv-x="1000" vert-adv-y="1000" >
  <font-face 
    font-family="FZFangJunHeiS"
    font-weight="400"
    font-stretch="normal"
    units-per-em="1000"
    panose-1="2 0 5 0 0 0 0 0 0 0"
    ascent="850"
    descent="-150"
    x-height="506"
    cap-height="695"
    bbox="-27 -217 1005 898"
    underline-thickness="50"
    underline-position="-125"
    unicode-range="U+0020-29F8C"
  />
<missing-glyph 
 />
    <glyph glyph-name=".notdef" 
 />
    <glyph glyph-name="space" unicode=" " horiz-adv-x="270" 
 />
    <glyph glyph-name="exclam" unicode="!" horiz-adv-x="245" 
d="M157 -15h-69v86h69v-86zM159 695l-13 -517h-49l-12 517h74z" />
    <glyph glyph-name="quotedbl" unicode="&#x22;" horiz-adv-x="269" 
d="M104 705l-13 -190h-43l-12 190h68zM237 705l-13 -190h-43l-12 190h68z" />
    <glyph glyph-name="numbersign" unicode="#" horiz-adv-x="486" 
d="M366 715h50l-43 -228h111l-12 -52h-109l-34 -183h107l-11 -52h-106l-40 -215h-50l40 215h-117l-39 -215h-50l39 215h-100l11 52h99l33 183h-96l13 52h93l42 228h50l-42 -228h118zM195 435l-33 -183h117l34 183h-118z" />
    <glyph glyph-name="dollar" unicode="$" horiz-adv-x="507" 
d="M277 -95h-44v71q-174 14 -205 181l60 8q23 -126 145 -138v296q-195 41 -194 199q8 166 194 182v71h44v-71q151 -12 174 -175l-57 -8q-17 118 -117 130v-277q194 -45 193 -206q-2 -174 -193 -192v-71zM277 314v-286q134 12 134 140q0 112 -134 146zM233 384v268
q-131 -11 -134 -129q3 -106 134 -139z" />
    <glyph glyph-name="percent" unicode="%" horiz-adv-x="780" 
d="M179 715q135 -6 140 -190q-3 -179 -145 -184q-133 8 -139 185q5 183 144 189zM93 527q2 -132 84 -134q85 -2 84 136q-1 132 -82 134q-87 0 -86 -136zM607 356q136 -5 140 -189q-3 -177 -145 -182q-132 9 -138 182q4 184 143 189zM522 168q1 -130 84 -131q84 -1 83 135
q-1 129 -82 132q-84 -1 -85 -136zM537 715h63l-350 -730h-64z" />
    <glyph glyph-name="ampersand" unicode="&#x26;" horiz-adv-x="671" 
d="M670 -15h-90q-73 66 -108 102q-91 -111 -227 -112q-190 8 -209 191q-12 143 151 219q-68 80 -68 160q7 152 151 160q149 -6 157 -149q4 -132 -143 -193q78 -83 178 -181q31 65 35 133h60q-8 -96 -51 -177q100 -99 164 -153zM244 27q107 2 185 102q-104 102 -202 211
q-131 -60 -131 -173q4 -138 148 -140zM177 542q7 -59 66 -133q76 34 101 64q25 27 25 80q-3 96 -98 100q-97 -8 -94 -111z" />
    <glyph glyph-name="quotesingle" unicode="'" horiz-adv-x="157" 
d="M112 705l-13 -190h-43l-12 190h68z" />
    <glyph glyph-name="parenleft" unicode="(" horiz-adv-x="294" 
d="M249 -25h-50q-147 177 -145 365q1 193 145 365h50q-142 -178 -137 -365q-6 -185 137 -365z" />
    <glyph glyph-name="parenright" unicode=")" horiz-adv-x="292" 
d="M51 705h50q144 -172 145 -365q2 -188 -145 -365h-50q143 180 137 365q5 187 -137 365z" />
    <glyph glyph-name="asterisk" unicode="*" horiz-adv-x="359" 
d="M333 555l-129 -26l92 -115l-45 -36l-71 131l-71 -131l-43 38l90 113l-129 26l16 59l121 -55l-13 146h59l-14 -146l121 53z" />
    <glyph glyph-name="plus" unicode="+" horiz-adv-x="527" 
d="M481 313h-185v-211h-58v211h-185v52h185v212h58v-212h185v-52z" />
    <glyph glyph-name="comma" unicode="," horiz-adv-x="233" 
d="M81 -189l-21 24q70 58 67 147v2h-49v99h86v-85q3 -124 -83 -187z" />
    <glyph glyph-name="hyphen" unicode="-" horiz-adv-x="495" 
d="M464 313h-428v52h428v-52z" />
    <glyph glyph-name="period" unicode="." horiz-adv-x="232" 
d="M159 84v-99h-86v99h86z" />
    <glyph glyph-name="slash" unicode="/" horiz-adv-x="252" 
d="M1 -25l191 730h59l-193 -730h-57z" />
    <glyph glyph-name="zero" unicode="0" horiz-adv-x="508" 
d="M253 704q214 0 214 -364q-3 -359 -211 -365q-214 5 -216 365q4 355 213 364zM254 27q155 -6 153 313q1 315 -156 312q-149 -6 -151 -312q-1 -315 154 -313z" />
    <glyph glyph-name="one" unicode="1" horiz-adv-x="388" 
d="M214 -15v614q-68 -67 -188 -88v52q145 29 202 142h44v-720h-58z" />
    <glyph glyph-name="two" unicode="2" horiz-adv-x="491" 
d="M103 37h348v-52h-420v41q66 150 206 264q160 131 151 218q1 142 -144 141q-105 4 -141 -123l-60 16q50 165 215 163q181 -8 192 -187q1 -136 -162 -262q-130 -100 -185 -219z" />
    <glyph glyph-name="three" unicode="3" horiz-adv-x="500" 
d="M32 150l61 12q25 -136 150 -135q156 -1 155 164q-6 134 -163 138h-60v52h60q134 6 140 142q-1 129 -129 130q-116 2 -139 -119l-62 8q31 164 201 163q183 -5 189 -180q1 -120 -105 -170q130 -34 131 -170q-10 -201 -214 -210q-182 -2 -215 175z" />
    <glyph glyph-name="four" unicode="4" horiz-adv-x="499" 
d="M390 210h83v-52h-83v-173h-58v173h-313v38l317 509h54v-495zM88 210h244v397z" />
    <glyph glyph-name="five" unicode="5" horiz-adv-x="501" 
d="M38 136l59 12q26 -120 148 -121q150 8 157 190q-5 182 -155 187q-101 0 -146 -89l-42 6l34 374h335v-52h-287l-22 -240q55 53 144 53q192 -10 200 -239q-7 -234 -211 -242q-178 -4 -214 161z" />
    <glyph glyph-name="six" unicode="6" horiz-adv-x="513" 
d="M459 568l-55 -18q-32 102 -130 103q-160 -15 -168 -297q59 94 171 93q191 -12 201 -238q-10 -224 -206 -236q-226 -1 -226 344q1 385 232 386q146 -3 181 -137zM268 27q143 10 150 184q-7 178 -146 186q-145 -12 -157 -159q7 -201 153 -211z" />
    <glyph glyph-name="seven" unicode="7" horiz-adv-x="498" 
d="M212 -15h-65q46 345 250 658h-356v52h420v-41q-219 -344 -249 -669z" />
    <glyph glyph-name="eight" unicode="8" horiz-adv-x="511" 
d="M473 170q-7 -189 -219 -195q-208 8 -217 199q11 141 128 182q-96 48 -102 163q10 176 192 186q180 -12 193 -188q-4 -113 -103 -161q121 -43 128 -186zM255 27q155 4 160 143q-6 154 -162 160q-147 -11 -158 -155q10 -140 160 -148zM255 653q-128 -6 -134 -132
q2 -137 134 -139q130 4 135 138q-6 126 -135 133z" />
    <glyph glyph-name="nine" unicode="9" horiz-adv-x="518" 
d="M61 94l55 18q23 -86 122 -85q166 8 170 293q-49 -86 -172 -88q-186 16 -200 231q12 230 205 242q228 2 226 -342q4 -393 -234 -388q-136 4 -172 119zM403 444q-3 204 -158 209q-146 -5 -151 -184q5 -180 142 -185q157 8 167 160z" />
    <glyph glyph-name="colon" unicode=":" horiz-adv-x="242" 
d="M164 -15h-87v99h87v-99zM164 381h-87v100h87v-100z" />
    <glyph glyph-name="semicolon" unicode=";" horiz-adv-x="244" 
d="M166 491v-100h-88v100h88zM81 -188l-21 24q70 58 67 147v2h-49v99h86v-85q3 -124 -83 -187z" />
    <glyph glyph-name="less" unicode="&#x3c;" horiz-adv-x="525" 
d="M485 67l-435 249v51l435 245v-66l-377 -205l377 -208v-66z" />
    <glyph glyph-name="equal" unicode="=" horiz-adv-x="513" 
d="M472 423h-424v52h424v-52zM472 206h-424v52h424v-52z" />
    <glyph glyph-name="greater" unicode="&#x3e;" horiz-adv-x="521" 
d="M47 543v66l435 -242v-51l-435 -247v66l375 206z" />
    <glyph glyph-name="question" unicode="?" horiz-adv-x="486" 
d="M261 -15h-68v83h68v-83zM255 176h-58v33q0 109 83 167q59 41 82 75q23 33 22 80q-9 114 -132 122q-124 0 -161 -132l-59 15q42 171 220 169q181 -9 190 -174q8 -107 -118 -193q-72 -46 -69 -132v-30z" />
    <glyph glyph-name="at" unicode="@" horiz-adv-x="719" 
d="M615 111l18 -26q-109 -115 -268 -110q-318 13 -329 357q22 351 336 373q296 -13 311 -318q-11 -226 -170 -241q-73 2 -74 82v10q1 9 1 14v1q-32 -106 -133 -108q-116 6 -119 170q13 210 177 225q74 -3 97 -73q0 6 7 66h43q-24 -205 -30 -251q-3 -19 -3 -44q-3 -62 45 -57
q107 16 115 203q-10 273 -269 284q-269 -25 -289 -335q10 -306 290 -319q150 2 244 97zM274 449q-38 -53 -38 -140q0 -126 86 -126q43 0 79 43q35 43 44 104q4 19 9 58q-3 105 -86 113q-59 -1 -94 -52z" />
    <glyph glyph-name="A" unicode="A" horiz-adv-x="602" 
d="M332 695l267 -710h-65l-81 224h-307l-80 -224h-66l264 710h68zM299 634l-134 -373h269z" />
    <glyph glyph-name="B" unicode="B" horiz-adv-x="585" 
d="M335 -15h-269v710h253q197 -5 202 -182q-1 -112 -125 -156q148 -29 153 -173q-5 -194 -214 -199zM303 331h-179v-294h199q164 2 166 147q-1 146 -186 147zM303 643h-179v-260h179q154 3 158 130q-1 129 -158 130z" />
    <glyph glyph-name="C" unicode="C" horiz-adv-x="636" 
d="M592 535l-58 -19q-48 132 -188 137q-217 -26 -234 -312q14 -290 234 -314q163 2 197 161l59 -13q-51 -200 -256 -200q-279 21 -294 366q16 342 294 364q185 -2 246 -170z" />
    <glyph glyph-name="D" unicode="D" horiz-adv-x="632" 
d="M288 -15h-223v710h226q295 -9 302 -355q3 -358 -305 -355zM288 643h-165v-606h164q246 2 246 303q-7 293 -245 303z" />
    <glyph glyph-name="E" unicode="E" horiz-adv-x="568" 
d="M530 -15h-460v710h450v-52h-392v-262h358v-52h-358v-292h402v-52z" />
    <glyph glyph-name="F" unicode="F" horiz-adv-x="537" 
d="M496 643h-368v-265h298v-52h-298v-341h-58v710h426v-52z" />
    <glyph glyph-name="G" unicode="G" horiz-adv-x="682" 
d="M634 327v-226q-78 -122 -271 -126q-300 19 -314 365q15 344 308 365q209 -4 266 -171l-60 -18q-52 133 -206 137q-233 -24 -248 -313q14 -292 254 -313q144 2 213 91v157h-160v52h218z" />
    <glyph glyph-name="H" unicode="H" horiz-adv-x="633" 
d="M568 -15h-58v343h-387v-343h-58v710h58v-315h387v315h58v-710z" />
    <glyph glyph-name="I" unicode="I" horiz-adv-x="217" 
d="M79 -15v710h58v-710h-58z" />
    <glyph glyph-name="J" unicode="J" horiz-adv-x="421" 
d="M293 695h58v-526q-1 -183 -162 -184h-47q-90 0 -126 74l52 26q25 -49 74 -48h49q105 -4 102 131v527z" />
    <glyph glyph-name="K" unicode="K" horiz-adv-x="597" 
d="M501 695h73l-266 -293l285 -417h-75l-245 378l-148 -163v-215h-58v710h58v-420z" />
    <glyph glyph-name="L" unicode="L" horiz-adv-x="497" 
d="M472 -15h-406v710h58v-658h348v-52z" />
    <glyph glyph-name="M" unicode="M" horiz-adv-x="743" 
d="M346 -15l-224 660v-660h-58v710h99l211 -634l206 634h99v-710h-58v660l-222 -660h-53z" />
    <glyph glyph-name="N" unicode="N" horiz-adv-x="637" 
d="M65 695h89l360 -652v652h58v-710h-89l-360 651v-651h-58v710z" />
    <glyph glyph-name="O" unicode="O" horiz-adv-x="686" 
d="M347 705q286 -19 302 -367q-12 -349 -310 -363q-288 18 -302 363q14 350 310 367zM335 27q246 10 254 311q-17 292 -246 315q-232 -22 -246 -315q15 -292 238 -311z" />
    <glyph glyph-name="P" unicode="P" horiz-adv-x="586" 
d="M332 309h-205v-324h-58v710h270q207 -7 214 -193q0 -193 -221 -193zM127 643v-282h193q177 -3 173 141q-4 138 -173 141h-193z" />
    <glyph glyph-name="Q" unicode="Q" horiz-adv-x="684" 
d="M363 -194h-58v171q-260 37 -270 359q14 351 310 368q281 -23 302 -366q-10 -329 -284 -362v-170zM363 222v-194q216 33 224 310q-21 287 -246 314q-231 -22 -246 -316q11 -268 210 -308v194h58z" />
    <glyph glyph-name="R" unicode="R" horiz-adv-x="625" 
d="M382 307l237 -322h-76l-223 321h-192v-321h-58v710h293q210 -4 215 -195q1 -182 -196 -193zM128 643v-285h217q177 -4 173 142q-2 142 -173 143h-217z" />
    <glyph glyph-name="S" unicode="S" horiz-adv-x="586" 
d="M45 152l59 12q33 -137 195 -137q177 3 180 146q3 116 -194 155q-233 47 -229 191q14 176 228 186q200 1 236 -178l-59 -11q-31 136 -178 137q-152 -10 -167 -134q-7 -99 196 -139q228 -45 227 -207q-7 -191 -241 -198q-208 -5 -253 177z" />
    <glyph glyph-name="T" unicode="T" horiz-adv-x="550" 
d="M530 643h-226v-658h-58v658h-226v52h510v-52z" />
    <glyph glyph-name="U" unicode="U" horiz-adv-x="638" 
d="M67 285v410h58v-409q-2 -262 194 -259q198 -1 198 259v409h58v-409q3 -314 -258 -311q-252 -3 -250 310z" />
    <glyph glyph-name="V" unicode="V" horiz-adv-x="608" 
d="M598 695l-264 -710h-63l-263 710h66l230 -653l228 653h66z" />
    <glyph glyph-name="W" unicode="W" horiz-adv-x="834" 
d="M251 -15h-63l-179 710h64l150 -643l160 643h69l158 -648l151 648h64l-184 -710h-61l-160 647z" />
    <glyph glyph-name="X" unicode="X" horiz-adv-x="606" 
d="M502 695h71l-234 -339l254 -371h-75l-216 318l-220 -318h-74l258 371l-230 339h71l196 -286z" />
    <glyph glyph-name="Y" unicode="Y" horiz-adv-x="599" 
d="M8 695h68l220 -356l226 356h68l-266 -405v-305h-58v305z" />
    <glyph glyph-name="Z" unicode="Z" horiz-adv-x="555" 
d="M532 -15h-511v39l422 619h-385v52h461v-43l-423 -615h436v-52z" />
    <glyph glyph-name="bracketleft" unicode="[" horiz-adv-x="259" 
d="M225 -25h-181v730h180v-52h-122v-626h123v-52z" />
    <glyph glyph-name="backslash" unicode="\" horiz-adv-x="242" 
d="M189 -25l-183 730h47l183 -730h-47z" />
    <glyph glyph-name="bracketright" unicode="]" horiz-adv-x="242" 
d="M29 27h123v626h-122v52h180v-730h-181v52z" />
    <glyph glyph-name="asciicircum" unicode="^" horiz-adv-x="320" 
d="M269 515h-55l-54 129l-55 -129h-58l91 190h42z" />
    <glyph glyph-name="underscore" unicode="_" horiz-adv-x="531" 
d="M530 -25h-530v52h530v-52z" />
    <glyph glyph-name="grave" unicode="`" horiz-adv-x="269" 
d="M223 515h-44l-138 190h75z" />
    <glyph glyph-name="a" unicode="a" horiz-adv-x="503" 
d="M467 -15h-59q-20 31 -23 92q-46 -101 -202 -102q-144 5 -149 145q2 138 169 160q153 18 181 57q1 75 -27 100q-25 27 -102 26q-133 9 -151 -108l-56 15q27 151 209 145q195 9 185 -185v-229q0 -46 5 -69t20 -47zM384 199v86q-26 -33 -148 -50q-149 -20 -142 -115
q-4 -103 114 -99q164 8 176 178z" />
    <glyph glyph-name="b" unicode="b" horiz-adv-x="503" 
d="M119 -15h-58v710h58v-274q51 92 159 94q187 -8 192 -270q-5 -261 -186 -270q-124 -1 -165 95v-85zM119 294v-78q6 -185 145 -193q146 -1 146 221q-4 214 -147 221q-129 -20 -144 -171z" />
    <glyph glyph-name="c" unicode="c" horiz-adv-x="464" 
d="M439 378l-59 -15q-25 94 -128 100q-153 -5 -156 -218q4 -211 156 -218q115 1 132 116l60 -12q-34 -161 -194 -156q-209 7 -214 270q8 259 213 270q150 -5 190 -137z" />
    <glyph glyph-name="d" unicode="d" horiz-adv-x="496" 
d="M378 695h58v-710h-58v69q-45 -77 -166 -79q-179 8 -183 267q5 265 195 273q109 0 154 -84v264zM378 219v76q-13 154 -154 168q-132 -6 -135 -220q4 -205 123 -216q165 1 166 192z" />
    <glyph glyph-name="e" unicode="e" horiz-adv-x="505" 
d="M396 108l63 -9q-43 -123 -197 -124q-217 11 -225 266q7 264 219 274q211 -6 216 -264v-24h-375q11 -196 161 -200q111 1 138 81zM98 279h311q-5 177 -151 184q-146 -2 -160 -184z" />
    <glyph glyph-name="f" unicode="f" horiz-adv-x="277" 
d="M157 588v-82h105v-52h-105v-469h-58v469h-82v52h82v82q-6 123 112 117h78v-52h-76q-56 0 -56 -65z" />
    <glyph glyph-name="g" unicode="g" horiz-adv-x="506" 
d="M388 506h58v-447q9 -268 -219 -257q-122 0 -172 81l42 24q43 -53 132 -53q165 -7 159 177v72q-40 -100 -164 -101q-186 10 -193 254q8 248 199 259q114 -2 158 -82v73zM388 235v69q-8 149 -158 159q-135 -11 -141 -207q2 -198 135 -202q159 6 164 181z" />
    <glyph glyph-name="h" unicode="h" horiz-adv-x="503" 
d="M443 -15h-58v323q0 88 -26 122q-25 34 -93 33q-140 -10 -148 -180v-298h-58v710h58v-277q51 92 162 97q166 5 163 -197v-333z" />
    <glyph glyph-name="i" unicode="i" horiz-adv-x="197" 
d="M69 -15v520h58v-520h-58zM68 613v82h58v-82h-58z" />
    <glyph glyph-name="j" unicode="j" horiz-adv-x="231" 
d="M-27 -178l18 42q17 -13 42 -14q61 -7 57 81v575h58v-578q3 -131 -97 -127q-44 0 -78 21zM89 613v82h58v-82h-58z" />
    <glyph glyph-name="k" unicode="k" horiz-adv-x="461" 
d="M371 515h76l-196 -207l205 -323h-71l-171 283l-96 -101v-182h-58v710h58v-450z" />
    <glyph glyph-name="l" unicode="l" horiz-adv-x="197" 
d="M69 -15v710h58v-710h-58z" />
    <glyph glyph-name="m" unicode="m" horiz-adv-x="757" 
d="M696 -15h-58v323q4 161 -105 155q-121 -9 -127 -157v-321h-58v324q3 160 -106 154q-119 2 -123 -163v-315h-58v521h58v-84q44 90 141 93q116 1 141 -109q37 108 148 109q150 4 147 -196v-334z" />
    <glyph glyph-name="n" unicode="n" horiz-adv-x="503" 
d="M443 -15h-58v323q1 157 -120 155q-128 -21 -148 -158v-320h-58v520h58v-94q50 100 162 104q165 2 164 -198v-332z" />
    <glyph glyph-name="o" unicode="o" horiz-adv-x="511" 
d="M261 515q204 -12 214 -270q-4 -265 -222 -270q-207 13 -218 264q8 269 226 276zM256 27q155 6 159 217q-7 208 -159 219q-157 -6 -161 -222q6 -204 161 -214z" />
    <glyph glyph-name="p" unicode="p" horiz-adv-x="505" 
d="M119 -194h-58v699h58v-86q41 97 156 96q182 -23 194 -271q-8 -256 -196 -269q-111 0 -154 88v-257zM119 291v-76q5 -184 147 -191q141 2 142 219q-4 214 -152 220q-128 -12 -137 -172z" />
    <glyph glyph-name="q" unicode="q" horiz-adv-x="501" 
d="M383 505h58v-699h-58v257q-46 -86 -167 -88q-176 9 -182 265q8 264 198 275q106 0 151 -89v79zM383 217v76q-11 159 -146 169q-139 -6 -143 -222q3 -210 133 -215q151 6 156 192z" />
    <glyph glyph-name="r" unicode="r" horiz-adv-x="317" 
d="M119 267v-282h-58v520h58v-85q37 88 121 95q51 1 76 -19l-27 -55q-21 15 -57 15q-109 -7 -113 -189z" />
    <glyph glyph-name="s" unicode="s" horiz-adv-x="461" 
d="M393 407l-58 -14q-18 72 -119 70q-108 -2 -110 -91q-11 -73 122 -94q193 -36 190 -151q-3 -150 -188 -152q-158 -4 -192 122l57 10q23 -80 133 -80q128 2 132 100q6 72 -126 98q-108 23 -148 55q-41 31 -40 92q6 139 170 143q146 0 177 -108z" />
    <glyph glyph-name="t" unicode="t" horiz-adv-x="257" 
d="M144 659v-181h98v-52h-98v-327q-2 -79 55 -75q15 0 24 9l19 -35q-23 -24 -63 -23q-96 -4 -93 116v335h-72v52h72v181h58z" />
    <glyph glyph-name="u" unicode="u" horiz-adv-x="506" 
d="M445 -15h-58v87q-45 -92 -161 -97q-167 -2 -166 197v334h58v-325q-2 -159 124 -155q133 6 145 168v310h58v-519z" />
    <glyph glyph-name="v" unicode="v" horiz-adv-x="453" 
d="M441 506l-187 -521h-63l-181 521h63l151 -471l155 471h62z" />
    <glyph glyph-name="w" unicode="w" horiz-adv-x="665" 
d="M658 506l-163 -521h-62l-102 463l-107 -463h-62l-156 521h59l130 -469l107 469h59l105 -469l131 469h61z" />
    <glyph glyph-name="x" unicode="x" horiz-adv-x="454" 
d="M26 506h65l138 -203l142 203h65l-174 -251l186 -270h-69l-150 222l-154 -222h-68l189 270z" />
    <glyph glyph-name="y" unicode="y" horiz-adv-x="454" 
d="M380 506h63l-202 -551q-56 -167 -131 -154q-52 0 -90 24l26 43q18 -17 48 -17q56 -10 95 112l12 35l-190 508h63l153 -435z" />
    <glyph glyph-name="z" unicode="z" horiz-adv-x="446" 
d="M426 -15h-410v37l318 432h-297v52h377v-34l-322 -435h334v-52z" />
    <glyph glyph-name="braceleft" unicode="{" horiz-adv-x="293" 
d="M175 596v-135q4 -100 -69 -119q71 -22 69 -120v-135q0 -60 54 -60h46v-52h-46q-114 -2 -112 112v134q0 100 -100 103v35q101 3 100 104v133q3 106 109 109h49v-52h-49q-48 -3 -51 -57z" />
    <glyph glyph-name="bar" unicode="|" horiz-adv-x="230" 
d="M83 -25v730h58v-730h-58z" />
    <glyph glyph-name="braceright" unicode="}" horiz-adv-x="300" 
d="M70 653h-49v52h49q106 -3 109 -109v-133q-1 -101 100 -104v-35q-100 -3 -100 -103v-134q2 -114 -112 -112h-46v52h46q54 0 54 60v135q-2 98 69 120q-73 19 -69 119v135q-3 54 -51 57z" />
    <glyph glyph-name="asciitilde" unicode="~" horiz-adv-x="513" 
d="M484 400v-63q-46 -45 -112 -49q-53 1 -114 37q-50 31 -105 30q-62 1 -118 -60v63q53 50 122 49q69 0 116 -31q55 -37 100 -36q64 4 111 60z" />
    <glyph glyph-name="currency" unicode="&#xa4;" 
d="M669 278l77 -77l-64 -65l-77 76q-41 -28 -102 -32q-58 -2 -108 34l-80 -79l-64 67l78 76q-36 54 -36 116q1 52 33 93l-78 76l69 69l78 -78q50 36 108 34q61 -4 102 -32l79 78l68 -68l-80 -79q32 -41 33 -93q0 -62 -36 -116zM618 384q-12 110 -119 116q-105 -6 -117 -116
q12 -110 117 -116q107 6 119 116z" />
    <glyph glyph-name="section" unicode="&#xa7;" 
d="M490 424q-102 -6 -118 -87q13 -67 126 -79q99 9 120 87q-11 75 -128 79zM666 678v-80q-74 36 -148 37q-118 -4 -128 -64q13 -53 125 -79q156 -28 183 -140q-4 -84 -102 -128q7 -4 22 -11q88 -40 84 -94q-6 -141 -217 -144q-43 0 -128 19q-23 6 -35 8v86q66 -38 166 -42
q131 1 132 60q1 40 -150 78q-7 2 -22 7q-157 41 -151 137q2 83 97 124q-85 39 -86 118q14 117 191 136q95 0 167 -28z" />
    <glyph glyph-name="dieresis" unicode="&#xa8;" 
d="M628 661h-83v92h83v-92zM455 663h-83v90h83v-90z" />
    <glyph glyph-name="degree" unicode="&#xb0;" 
d="M423 584q-13 -137 -150 -150q-137 13 -150 150q12 136 150 150q137 -14 150 -150zM186 584q7 -81 88 -88q80 8 87 88q-8 80 -89 88q-79 -8 -86 -88z" />
    <glyph glyph-name="plusminus" unicode="&#xb1;" 
d="M714 385h-185v-211h-58v211h-185v52h185v212h58v-212h185v-52zM714 51h-428v52h428v-52z" />
    <glyph glyph-name="bullet" unicode="&#x2022;" 
d="M548 405v-109h-97v109h97z" />
    <glyph glyph-name="bullet" unicode="&#xb7;" 
d="M548 405v-109h-97v109h97z" />
    <glyph glyph-name="multiply" unicode="&#xd7;" 
d="M747 149l-44 -44l-203 202l-203 -202l-44 44l203 201l-203 201l44 44l203 -202l204 202l43 -44l-203 -201z" />
    <glyph glyph-name="agrave" unicode="&#xe0;" horiz-adv-x="496" 
d="M318 619h-56l-142 151h86zM393 218v76q-13 154 -154 168q-132 -6 -135 -220q4 -205 123 -216q165 1 166 192zM451 520v-536h-58v69q-45 -77 -166 -79q-179 8 -183 267q5 265 195 273q109 0 154 -84v90h58z" />
    <glyph glyph-name="aacute" unicode="&#xe1;" horiz-adv-x="496" 
d="M393 218v76q-13 154 -154 168q-132 -6 -135 -220q4 -205 123 -216q165 1 166 192zM451 520v-536h-58v69q-45 -77 -166 -79q-179 8 -183 267q5 265 195 273q109 0 154 -84v90h58zM197 619l110 151h84l-139 -151h-55z" />
    <glyph glyph-name="egrave" unicode="&#xe8;" horiz-adv-x="505" 
d="M394 107l63 -9q-43 -123 -197 -124q-217 11 -225 266q7 264 219 274q211 -6 216 -264v-24h-375q11 -196 161 -200q111 1 138 81zM96 278h311q-5 177 -151 184q-146 -2 -160 -184zM318 619h-56l-142 151h86z" />
    <glyph glyph-name="eacute" unicode="&#xe9;" horiz-adv-x="505" 
d="M394 107l63 -9q-43 -123 -197 -124q-217 11 -225 266q7 264 219 274q211 -6 216 -264v-24h-375q11 -196 161 -200q111 1 138 81zM96 278h311q-5 177 -151 184q-146 -2 -160 -184zM216 619l110 151h84l-139 -151h-55z" />
    <glyph glyph-name="ecircumflex" unicode="&#xea;" horiz-adv-x="505" 
d="M394 107l63 -9q-43 -123 -197 -124q-217 11 -225 266q7 264 219 274q211 -6 216 -264v-24h-375q11 -196 161 -200q111 1 138 81zM96 278h311q-5 177 -151 184q-146 -2 -160 -184zM257 722l-79 -96h-70l104 144h88l106 -144h-68z" />
    <glyph glyph-name="igrave" unicode="&#xec;" horiz-adv-x="225" 
d="M81 -16v520h58v-520h-58zM174 629h-56l-140 151h84z" />
    <glyph glyph-name="iacute" unicode="&#xed;" horiz-adv-x="225" 
d="M81 -16v520h58v-520h-58zM79 629l110 151h84l-139 -151h-55z" />
    <glyph glyph-name="ograve" unicode="&#xf2;" horiz-adv-x="511" 
d="M261 514q204 -12 214 -270q-4 -265 -222 -270q-207 13 -218 264q8 269 226 276zM256 26q155 6 159 217q-7 208 -159 219q-157 -6 -161 -222q6 -204 161 -214zM318 619h-56l-142 151h86z" />
    <glyph glyph-name="oacute" unicode="&#xf3;" horiz-adv-x="511" 
d="M393 770l-112 -151h-96l152 151h56zM261 514q204 -12 214 -270q-4 -265 -222 -270q-207 13 -218 264q8 269 226 276zM256 26q155 6 159 217q-7 208 -159 219q-157 -6 -161 -222q6 -204 161 -214z" />
    <glyph glyph-name="divide" unicode="&#xf7;" 
d="M541 611v-95h-83v95h83zM786 321h-573v61h573v-61zM541 90h-83v94h83v-94z" />
    <glyph glyph-name="ugrave" unicode="&#xf9;" horiz-adv-x="506" 
d="M445 -16h-58v87q-45 -92 -161 -97q-167 -2 -166 197v334h58v-325q-2 -159 124 -155q133 6 145 168v310h58v-519zM318 619h-56l-142 151h86z" />
    <glyph glyph-name="uacute" unicode="&#xfa;" horiz-adv-x="506" 
d="M445 -16h-58v87q-45 -92 -161 -97q-167 -2 -166 197v334h58v-325q-2 -159 124 -155q133 6 145 168v310h58v-519zM216 619l110 151h84l-139 -151h-55z" />
    <glyph glyph-name="udieresis" unicode="&#xfc;" horiz-adv-x="506" 
d="M381 621h-83v92h83v-92zM208 623h-83v90h83v-90zM445 -16h-58v87q-45 -92 -161 -97q-167 -2 -166 197v334h58v-325q-2 -159 124 -155q133 6 145 168v310h58v-519z" />
    <glyph glyph-name="amacron" unicode="&#x101;" horiz-adv-x="496" 
d="M394 706v-54h-293v54h293zM393 218v76q-13 154 -154 168q-132 -6 -135 -220q4 -205 123 -216q165 1 166 192zM451 520v-536h-58v69q-45 -77 -166 -79q-179 8 -183 267q5 265 195 273q109 0 154 -84v90h58z" />
    <glyph glyph-name="emacron" unicode="&#x113;" horiz-adv-x="505" 
d="M394 107l63 -9q-43 -123 -197 -124q-217 11 -225 266q7 264 219 274q211 -6 216 -264v-24h-375q11 -196 161 -200q111 1 138 81zM96 278h311q-5 177 -151 184q-146 -2 -160 -184zM399 706v-54h-293v54h293z" />
    <glyph glyph-name="ecaron" unicode="&#x11b;" horiz-adv-x="505" 
d="M394 107l63 -9q-43 -123 -197 -124q-217 11 -225 266q7 264 219 274q211 -6 216 -264v-24h-375q11 -196 161 -200q111 1 138 81zM96 278h311q-5 177 -151 184q-146 -2 -160 -184zM255 674l81 96h68l-106 -144h-88l-104 144h70z" />
    <glyph glyph-name="imacron" unicode="&#x12b;" horiz-adv-x="302" 
d="M297 716v-54h-293v54h293zM122 -16v520h58v-520h-58z" />
    <glyph glyph-name="nacute" unicode="&#x144;" horiz-adv-x="503" 
d="M443 -16h-58v323q1 157 -120 155q-128 -21 -148 -158v-320h-58v520h58v-94q50 100 162 104q165 2 164 -198v-332zM216 629l110 151h84l-139 -151h-55z" />
    <glyph glyph-name="ncaron" unicode="&#x148;" horiz-adv-x="503" 
d="M253 684l81 96h68l-106 -144h-88l-104 144h70zM443 -16h-58v323q1 157 -120 155q-128 -21 -148 -158v-320h-58v520h58v-94q50 100 162 104q165 2 164 -198v-332z" />
    <glyph glyph-name="omacron" unicode="&#x14d;" horiz-adv-x="511" 
d="M401 706v-54h-293v54h293zM261 514q204 -12 214 -270q-4 -265 -222 -270q-207 13 -218 264q8 269 226 276zM256 26q155 6 159 217q-7 208 -159 219q-157 -6 -161 -222q6 -204 161 -214z" />
    <glyph glyph-name="umacron" unicode="&#x16b;" horiz-adv-x="506" 
d="M399 716v-54h-293v54h293zM445 -6h-58v87q-45 -92 -161 -97q-167 -2 -166 197v334h58v-325q-2 -159 124 -155q133 6 145 168v310h58v-519z" />
    <glyph glyph-name="uni01CE" unicode="&#x1ce;" horiz-adv-x="496" 
d="M250 674l81 96h68l-106 -144h-88l-104 144h70zM393 218v76q-13 154 -154 168q-132 -6 -135 -220q4 -205 123 -216q165 1 166 192zM451 520v-536h-58v69q-45 -77 -166 -79q-179 8 -183 267q5 265 195 273q109 0 154 -84v90h58z" />
    <glyph glyph-name="uni01D0" unicode="&#x1d0;" horiz-adv-x="302" 
d="M151 684l81 96h68l-106 -144h-88l-104 144h70zM120 -16v520h58v-520h-58z" />
    <glyph glyph-name="uni01D2" unicode="&#x1d2;" horiz-adv-x="511" 
d="M257 674l81 96h68l-106 -144h-88l-104 144h70zM261 514q204 -12 214 -270q-4 -265 -222 -270q-207 13 -218 264q8 269 226 276zM256 26q155 6 159 217q-7 208 -159 219q-157 -6 -161 -222q6 -204 161 -214z" />
    <glyph glyph-name="uni01D4" unicode="&#x1d4;" horiz-adv-x="506" 
d="M255 674l81 96h68l-106 -144h-88l-104 144h70zM445 -16h-58v87q-45 -92 -161 -97q-167 -2 -166 197v334h58v-325q-2 -159 124 -155q133 6 145 168v310h58v-519z" />
    <glyph glyph-name="uni01D6" unicode="&#x1d6;" horiz-adv-x="506" 
d="M381 618h-83v92h83v-92zM208 620h-83v90h83v-90zM399 834v-53h-293v53h293zM445 -16h-58v87q-45 -92 -161 -97q-167 -2 -166 197v334h58v-325q-2 -159 124 -155q133 6 145 168v310h58v-519z" />
    <glyph glyph-name="uni01D8" unicode="&#x1d8;" horiz-adv-x="506" 
d="M381 619h-83v92h83v-92zM208 621h-83v90h83v-90zM445 -16h-58v87q-45 -92 -161 -97q-167 -2 -166 197v334h58v-325q-2 -159 124 -155q133 6 145 168v310h58v-519zM216 749l110 149h84l-139 -149h-55z" />
    <glyph glyph-name="uni01DA" unicode="&#x1da;" horiz-adv-x="506" 
d="M381 621h-83v92h83v-92zM208 623h-83v90h83v-90zM257 789l81 93h68l-106 -141h-88l-104 141h70zM445 -16h-58v87q-45 -92 -161 -97q-167 -2 -166 197v334h58v-325q-2 -159 124 -155q133 6 145 168v310h58v-519z" />
    <glyph glyph-name="uni01DC" unicode="&#x1dc;" horiz-adv-x="506" 
d="M381 620h-83v92h83v-92zM208 622h-83v90h83v-90zM445 -16h-58v87q-45 -92 -161 -97q-167 -2 -166 197v334h58v-325q-2 -159 124 -155q133 6 145 168v310h58v-519zM318 748h-56l-142 149h86z" />
    <glyph glyph-name="uni0251" unicode="&#x251;" horiz-adv-x="496" 
d="M393 218v76q-13 154 -154 168q-132 -6 -135 -220q4 -205 123 -216q165 1 166 192zM451 520v-536h-58v69q-45 -77 -166 -79q-179 8 -183 267q5 265 195 273q109 0 154 -84v90h58z" />
    <glyph glyph-name="uni0261" unicode="&#x261;" horiz-adv-x="506" 
d="M402 515h58v-447q9 -268 -219 -257q-122 0 -172 81l42 24q43 -53 132 -53q165 -7 159 177v72q-40 -100 -164 -101q-186 10 -193 254q8 248 199 259q114 -2 158 -82v73zM402 244v69q-8 149 -158 159q-135 -11 -141 -207q2 -198 135 -202q159 6 164 181z" />
    <glyph glyph-name="caron" unicode="&#x2c7;" 
d="M500 678l82 102h68l-106 -144h-88l-104 144h70z" />
    <glyph glyph-name="uni02C9" unicode="&#x2c9;" 
d="M646 743v-54h-293v54h293z" />
    <glyph glyph-name="Alpha" unicode="&#x391;" 
d="M533 695l267 -710h-65l-81 224h-307l-80 -224h-66l264 710h68zM500 634l-134 -373h269z" />
    <glyph glyph-name="Beta" unicode="&#x392;" 
d="M496 331h-179v-294h199q164 2 166 147q-1 146 -186 147zM496 643h-179v-260h179q154 3 158 130q-1 129 -158 130zM528 -15h-269v710h253q197 -5 202 -182q-1 -112 -125 -156q148 -29 153 -173q-5 -194 -214 -199z" />
    <glyph glyph-name="Gamma" unicode="&#x393;" 
d="M297 695h406v-52h-348v-658h-58v710z" />
    <glyph glyph-name="uni0394" unicode="&#x394;" 
d="M533 695l267 -710h-599l264 710h68zM500 634l-215 -597h432z" />
    <glyph glyph-name="Epsilon" unicode="&#x395;" 
d="M730 -15h-460v710h450v-52h-392v-262h358v-52h-358v-292h402v-52z" />
    <glyph glyph-name="Zeta" unicode="&#x396;" 
d="M755 -15h-511v39l422 619h-385v52h461v-43l-423 -615h436v-52z" />
    <glyph glyph-name="Eta" unicode="&#x397;" 
d="M751 -15h-58v343h-387v-343h-58v710h58v-315h387v315h58v-710z" />
    <glyph glyph-name="Theta" unicode="&#x398;" 
d="M327 329v54h347v-54h-347zM504 704q286 -19 302 -367q-12 -349 -310 -363q-288 18 -302 363q14 350 310 367zM492 26q246 10 254 311q-17 292 -246 315q-232 -22 -246 -315q15 -292 238 -311z" />
    <glyph glyph-name="Iota" unicode="&#x399;" 
d="M471 -15v710h58v-710h-58z" />
    <glyph glyph-name="Kappa" unicode="&#x39a;" 
d="M311 -15h-59v709h59v-274l345 274h91l-402 -317l424 -392h-83l-375 351v-351z" />
    <glyph glyph-name="Lambda" unicode="&#x39b;" 
d="M533 695l267 -710h-65l-235 648l-233 -648h-66l264 710h68z" />
    <glyph glyph-name="Mu" unicode="&#x39c;" 
d="M474 -15l-224 660v-660h-58v710h99l211 -634l206 634h99v-710h-58v660l-222 -660h-53z" />
    <glyph glyph-name="Nu" unicode="&#x39d;" 
d="M246 695h89l360 -652v652h58v-710h-89l-360 651v-651h-58v710z" />
    <glyph glyph-name="Xi" unicode="&#x39e;" 
d="M268 641v54h465v-54h-465zM263 -14v54h474v-54h-474zM283 327v54h435v-54h-435z" />
    <glyph glyph-name="Omicron" unicode="&#x39f;" 
d="M504 704q286 -19 302 -367q-12 -349 -310 -363q-288 18 -302 363q14 350 310 367zM492 26q246 10 254 311q-17 292 -246 315q-232 -22 -246 -315q15 -292 238 -311z" />
    <glyph glyph-name="Pi" unicode="&#x3a0;" 
d="M186 642v53h628v-53h-82v-656h-59v656h-346v-656h-59v656h-82z" />
    <glyph glyph-name="Rho" unicode="&#x3a1;" 
d="M521 309h-205v-324h-58v710h270q207 -7 214 -193q0 -193 -221 -193zM316 643v-282h193q177 -3 173 141q-4 138 -173 141h-193z" />
    <glyph glyph-name="Sigma" unicode="&#x3a3;" 
d="M349 39h377v-53h-454v46l289 318l-289 298v47h444v-53h-365l282 -291z" />
    <glyph glyph-name="Tau" unicode="&#x3a4;" 
d="M765 643h-236v-658h-58v658h-236v52h530v-52z" />
    <glyph glyph-name="Upsilon" unicode="&#x3a5;" 
d="M209 695h68l220 -356l226 356h68l-266 -405v-305h-58v305z" />
    <glyph glyph-name="Phi" unicode="&#x3a6;" 
d="M470 695h61v-56q287 -26 298 -297q-2 -278 -298 -302v-54h-61v54q-290 21 -298 301q12 264 298 298v56zM470 95v490q-230 -24 -237 -246q2 -223 237 -244zM531 585v-490q240 13 237 246q-4 223 -237 244z" />
    <glyph glyph-name="Chi" unicode="&#x3a7;" 
d="M701 695h71l-234 -339l254 -371h-75l-216 318l-220 -318h-74l258 371l-230 339h71l196 -286z" />
    <glyph glyph-name="Psi" unicode="&#x3a8;" 
d="M168 695h58q12 -308 244 -324v324h57v-321q226 22 247 321h57q-20 -348 -304 -377v-332h-57v332q-290 25 -302 377z" />
    <glyph glyph-name="uni03A9" unicode="&#x3a9;" 
d="M219 -15v52h156q-185 121 -183 358q26 291 308 310q292 -10 309 -323q-2 -228 -182 -345h151v-52h-252v51q224 106 223 345q-9 263 -249 273q-235 -25 -250 -259q-3 -245 220 -360v-50h-251z" />
    <glyph glyph-name="alpha" unicode="&#x3b1;" 
d="M755 -14h-62q-23 102 -49 180q-79 -196 -213 -192q-183 13 -196 271q14 256 196 269q129 4 210 -192q15 50 41 155q5 18 7 27h61q-29 -112 -78 -259q52 -151 83 -259zM431 28q112 -1 181 218q-75 217 -181 213q-128 -10 -137 -214q9 -207 137 -217z" />
    <glyph glyph-name="beta" unicode="&#x3b2;" 
d="M701 188q-15 -203 -242 -213q-63 -1 -113 19v-201h-58v689q3 245 190 248q162 -8 175 -171q-4 -113 -109 -169q150 -61 157 -202zM643 188q-14 156 -204 170h-39v52q187 10 196 149q-10 112 -118 118q-132 0 -132 -195v-430q67 -23 113 -23q177 5 184 159z" />
    <glyph glyph-name="gamma" unicode="&#x3b3;" 
d="M336 504l5 -3q128 -238 168 -444q115 194 145 447h59q-38 -293 -184 -515v-199h-59v118q4 242 -200 596h66z" />
    <glyph glyph-name="delta" unicode="&#x3b4;" 
d="M713 225q-12 -239 -217 -250q-202 15 -221 250q4 191 177 251q-84 66 -83 144q11 104 161 110q58 0 132 -13q7 -2 9 -2l-8 -62q-80 22 -132 22q-101 -2 -103 -55q-5 -66 115 -143q175 -114 170 -252zM655 225q5 111 -144 205q-170 -33 -176 -205q16 -179 161 -192
q150 8 159 192z" />
    <glyph glyph-name="epsilon" unicode="&#x3b5;" 
d="M508 30q74 2 157 38l23 -53q-93 -40 -180 -41q-197 9 -206 156q1 84 87 128q-67 40 -68 112q8 135 184 144q93 -2 170 -42l-24 -55q-70 40 -146 41q-119 -5 -124 -88q4 -85 135 -88h83v-56h-86q-147 -3 -153 -96q7 -93 148 -100z" />
    <glyph glyph-name="zeta" unicode="&#x3b6;" 
d="M615 -157l-58 7q51 71 55 109q-1 26 -43 26q-252 3 -254 232q-3 135 161 333q33 41 57 69q8 10 23 27q14 17 22 28h-228v56h308v-48l-133 -160q-153 -184 -151 -305q-3 -177 199 -174q92 -4 97 -81q-1 -53 -55 -119z" />
    <glyph glyph-name="eta" unicode="&#x3b7;" 
d="M692 -217h-58v525q1 157 -120 155q-128 -21 -148 -158v-320h-58v520h51l7 -94q50 100 162 104q165 2 164 -198v-534z" />
    <glyph glyph-name="theta" unicode="&#x3b8;" 
d="M500 730q208 -3 210 -374q-1 -378 -210 -381q-206 3 -209 381q4 366 209 374zM500 32q143 2 149 300h-296q6 -298 147 -300zM500 674q-137 -3 -147 -286h295q-8 284 -148 286z" />
    <glyph glyph-name="iota" unicode="&#x3b9;" 
d="M573 30v-55q-131 3 -132 120v410h59v-410q0 -63 73 -65z" />
    <glyph glyph-name="kappa" unicode="&#x3ba;" 
d="M692 -15h-79l-230 229v-229h-57v520h57v-196l158 158q38 40 91 38h28v-52h-26q-32 2 -55 -23l-171 -167z" />
    <glyph glyph-name="lambda" unicode="&#x3bb;" 
d="M463 679l257 -693h-60l-158 431l-158 -431h-64l192 506l-62 166q-7 19 -24 18h-23v54h25q53 0 75 -51z" />
    <glyph glyph-name="uni03BC" unicode="&#x3bc;" 
d="M682 158q2 -54 11 -172h-46l-12 68q-56 -81 -164 -78q-63 1 -106 43v-229h-58v715h58v-321q0 -150 112 -152q135 13 148 152v321h57v-347z" />
    <glyph glyph-name="nu" unicode="&#x3bd;" 
d="M647 505h58q-11 -233 -184 -519h-44l-182 519h61l151 -440q129 243 140 440z" />
    <glyph glyph-name="xi" unicode="&#x3be;" 
d="M596 41q91 -12 94 -82q-1 -49 -60 -106l-65 6q66 69 67 96q0 22 -55 31q-269 34 -266 222q2 138 137 199q-95 40 -96 134q3 83 83 133h-101v56h326v-57q-238 -23 -247 -132q2 -103 204 -113v-55h-52q-187 -14 -195 -165q1 -147 226 -167z" />
    <glyph glyph-name="omicron" unicode="&#x3bf;" 
d="M506 514q204 -12 214 -270q-4 -265 -222 -270q-207 13 -218 264q8 269 226 276zM501 26q155 6 159 217q-7 208 -159 219q-157 -6 -161 -222q6 -204 161 -214z" />
    <glyph glyph-name="pi" unicode="&#x3c0;" 
d="M744 451h-88v-350q-3 -58 88 -58v-58q-144 3 -145 116v350h-177l-55 -466h-55l51 466h-106v54h487v-54z" />
    <glyph glyph-name="rho" unicode="&#x3c1;" 
d="M705 251q-14 -266 -222 -275q-60 0 -110 22q17 -88 56 -202h-62q-68 224 -72 424q3 292 207 295q188 -13 203 -264zM648 251q-13 197 -146 209q-148 -3 -151 -240q0 -97 9 -155q55 -30 123 -32q155 7 165 218z" />
    <glyph glyph-name="sigma" unicode="&#x3c3;" 
d="M500 -25q-201 9 -207 271q11 256 207 269q25 0 59 -6q1 0 2 -1h2q22 -4 31 -4h155v-53h-110q69 -68 69 -205q-5 -264 -208 -271zM500 463q-140 -13 -148 -217q6 -208 148 -220q145 5 148 220q-6 207 -148 217z" />
    <glyph glyph-name="tau" unicode="&#x3c4;" 
d="M680 453h-150v-350q-1 -62 69 -61v-56q-130 -1 -128 117v350h-150v52h359v-52z" />
    <glyph glyph-name="upsilon" unicode="&#x3c5;" 
d="M310 188v317h55v-317q2 -157 130 -159q139 1 140 203q-7 161 -102 273h71q79 -112 86 -273q-3 -255 -195 -257q-183 2 -185 213z" />
    <glyph glyph-name="phi" unicode="&#x3c6;" 
d="M472 -199v176q-211 36 -225 269q15 230 225 267v202h58v-202q208 -38 224 -267q-14 -232 -224 -269v-176h-58zM308 246q9 -187 164 -215v428q-152 -30 -164 -213zM693 246q-21 174 -163 212v-427q155 28 163 215z" />
    <glyph glyph-name="chi" unicode="&#x3c7;" 
d="M698 -144h43v-57l-45 -1q-47 -2 -74 53l-127 262q-31 -57 -95 -173q-49 -89 -73 -133h-68l209 366l-131 264q-10 17 -26 17h-40v56h46q47 0 73 -50l108 -225l146 270h68l-184 -333l149 -303q4 -14 21 -13z" />
    <glyph glyph-name="psi" unicode="&#x3c8;" 
d="M767 236q2 -252 -238 -261v-185h-58v185q-240 9 -238 261v269h58v-269q-1 -191 180 -203v569h58v-569q182 12 181 203v269h57v-269z" />
    <glyph glyph-name="omega" unicode="&#x3c9;" 
d="M798 243q-8 -261 -178 -268q-83 1 -119 77q-40 -76 -121 -77q-172 7 -179 268q6 145 90 262h73q-102 -112 -105 -262q6 -204 121 -211q89 6 92 164v200h56v-200q3 -158 92 -164q114 6 120 211q-3 149 -104 262h73q84 -118 89 -262z" />
    <glyph glyph-name="uni0401" unicode="&#x401;" 
d="M452 840v-87h-74v87h74zM622 840v-87h-74v87h74zM730 -15h-460v710h450v-52h-392v-262h358v-52h-358v-292h402v-52z" />
    <glyph glyph-name="uni0410" unicode="&#x410;" 
d="M533 695l267 -710h-65l-81 224h-307l-80 -224h-66l264 710h68zM500 634l-134 -373h269z" />
    <glyph glyph-name="uni0411" unicode="&#x411;" 
d="M688 695v-52h-364v-262h205q201 -6 207 -197q-8 -190 -207 -198h-264v709h423zM324 38h187q160 3 164 145q1 146 -164 145h-187v-290z" />
    <glyph glyph-name="uni0412" unicode="&#x412;" 
d="M496 331h-179v-294h199q164 2 166 147q-1 146 -186 147zM496 643h-179v-260h179q154 3 158 130q-1 129 -158 130zM528 -15h-269v710h253q197 -5 202 -182q-1 -112 -125 -156q148 -29 153 -173q-5 -194 -214 -199z" />
    <glyph glyph-name="uni0413" unicode="&#x413;" 
d="M297 695h406v-52h-348v-658h-58v710z" />
    <glyph glyph-name="uni0414" unicode="&#x414;" 
d="M779 -25h-557v-143h-53l-7 195h74q144 147 140 421v247h373v-668h90l-8 -195h-52v143zM436 445q0 -268 -122 -418h376v611h-254v-193z" />
    <glyph glyph-name="uni0415" unicode="&#x415;" 
d="M730 -15h-460v710h450v-52h-392v-262h358v-52h-358v-292h402v-52z" />
    <glyph glyph-name="uni0416" unicode="&#x416;" 
d="M529 -14h-57v348q-33 -34 -114 -118q-71 -75 -221 -230h-79l383 392l-358 317h83l306 -274v274h57v-274l307 274h83l-359 -316l383 -393h-78l-336 348v-348z" />
    <glyph glyph-name="uni0417" unicode="&#x417;" 
d="M225 157l59 9q33 -143 213 -139q216 1 218 161q-6 138 -232 142h-52v52h52q202 4 208 140q-5 128 -190 131q-169 -1 -202 -128l-61 9q44 171 263 171q245 -4 250 -184q-1 -114 -121 -163q141 -51 144 -170q-3 -211 -278 -213q-231 -2 -271 182z" />
    <glyph glyph-name="uni0418" unicode="&#x418;" 
d="M665 695h89v-710h-58v651l-360 -651h-89v710h58v-652z" />
    <glyph glyph-name="uni0419" unicode="&#x419;" 
d="M335 839h57q8 -86 108 -82q91 -2 106 82h60q-22 -133 -166 -134q-155 -3 -165 134zM665 695h89v-710h-58v651l-360 -651h-89v710h58v-652z" />
    <glyph glyph-name="uni041A" unicode="&#x41a;" 
d="M671 695h73l-266 -293l285 -417h-75l-245 378l-148 -163v-215h-58v710h58v-420z" />
    <glyph glyph-name="uni041B" unicode="&#x41b;" 
d="M260 -28l-35 41q173 174 172 439v243h358v-709h-58v653h-241v-190q-3 -298 -196 -477z" />
    <glyph glyph-name="uni041C" unicode="&#x41c;" 
d="M474 -15l-224 660v-660h-58v710h99l211 -634l206 634h99v-710h-58v660l-222 -660h-53z" />
    <glyph glyph-name="uni041D" unicode="&#x41d;" 
d="M751 -15h-58v343h-387v-343h-58v710h58v-315h387v315h58v-710z" />
    <glyph glyph-name="uni041E" unicode="&#x41e;" 
d="M504 704q286 -19 302 -367q-12 -349 -310 -363q-288 18 -302 363q14 350 310 367zM492 26q246 10 254 311q-17 292 -246 315q-232 -22 -246 -315q15 -292 238 -311z" />
    <glyph glyph-name="uni041F" unicode="&#x41f;" 
d="M751 -15h-58v658h-387v-658h-58v710h503v-710z" />
    <glyph glyph-name="uni0420" unicode="&#x420;" 
d="M521 309h-205v-324h-58v710h270q207 -7 214 -193q0 -193 -221 -193zM316 643v-282h193q177 -3 173 141q-4 138 -173 141h-193z" />
    <glyph glyph-name="uni0421" unicode="&#x421;" 
d="M765 535l-58 -19q-48 132 -188 137q-217 -26 -234 -312q14 -290 234 -314q163 2 197 161l59 -13q-51 -200 -256 -200q-279 21 -294 366q16 342 294 364q185 -2 246 -170z" />
    <glyph glyph-name="uni0422" unicode="&#x422;" 
d="M765 643h-236v-658h-58v658h-236v52h530v-52z" />
    <glyph glyph-name="uni0423" unicode="&#x423;" 
d="M667 695h63l-214 -566q-59 -158 -133 -154q-37 1 -81 22l17 48q37 -17 62 -18q44 1 84 116l14 43q-30 74 -91 223q-78 192 -117 286h63l175 -436z" />
    <glyph glyph-name="uni0424" unicode="&#x424;" 
d="M471 695h59v-100q345 -13 338 -253q17 -246 -338 -256v-101h-59v100q-348 2 -338 256q-4 234 338 253v101zM471 138v403q-280 -18 -278 -202q-9 -195 278 -201zM530 541v-402q292 7 279 202q8 189 -279 200z" />
    <glyph glyph-name="uni0425" unicode="&#x425;" 
d="M701 695h71l-234 -339l254 -371h-75l-216 318l-220 -318h-74l258 371l-230 339h71l196 -286z" />
    <glyph glyph-name="uni0426" unicode="&#x426;" 
d="M220 -15v710h58v-658h366v658h58v-658h98l-8 -194h-51v142h-521z" />
    <glyph glyph-name="uni0427" unicode="&#x427;" 
d="M272 479v216h58v-216q0 -158 169 -155q84 2 172 43v328h58v-709h-58v322q-81 -36 -173 -38q-223 -6 -226 209z" />
    <glyph glyph-name="uni0428" unicode="&#x428;" 
d="M111 -14v709h58v-657h302v657h58v-657h303v657h58v-709h-779z" />
    <glyph glyph-name="uni0429" unicode="&#x429;" 
d="M71 -15v710h58v-658h303v658h58v-658h304v658h58v-658h97l-8 -194h-51v142h-819z" />
    <glyph glyph-name="uni042A" unicode="&#x42a;" 
d="M202 642v53h240v-314h149q201 -6 207 -196q-8 -191 -207 -199h-206v656h-183zM442 38h132q160 3 164 146q1 146 -164 145h-132v-291z" />
    <glyph glyph-name="uni042B" unicode="&#x42b;" 
d="M259 381h149q201 -6 207 -196q-8 -191 -207 -199h-206v709h57v-314zM259 38h132q161 3 165 146q1 146 -165 145h-132v-291zM798 -14h-58v709h58v-709z" />
    <glyph glyph-name="uni042C" unicode="&#x42c;" 
d="M351 381h150q200 -6 206 -196q-8 -191 -206 -199h-207v709h57v-314zM351 38h132q161 3 165 146q1 146 -165 145h-132v-291z" />
    <glyph glyph-name="uni042D" unicode="&#x42d;" 
d="M304 542l-55 12q78 141 231 141q283 -6 290 -361q-9 -350 -283 -358q-169 -3 -256 145l58 12q68 -104 198 -106q198 5 224 281h-330v53h331q-23 278 -232 282q-111 0 -176 -101z" />
    <glyph glyph-name="uni042E" unicode="&#x42e;" 
d="M595 -25q-277 17 -294 353h-133v-343h-58v710h58v-315h135q35 310 292 325q279 -23 296 -370q-11 -346 -296 -360zM595 653q-220 -23 -236 -318q13 -287 236 -308q226 14 236 308q-16 295 -236 318z" />
    <glyph glyph-name="uni042F" unicode="&#x42f;" 
d="M216 -15l237 322q-197 11 -196 193q5 191 215 195h293v-710h-58v321h-192l-223 -321h-76zM707 358v285h-217q-171 -1 -173 -143q-4 -146 173 -142h217z" />
    <glyph glyph-name="uni0430" unicode="&#x430;" 
d="M716 -15h-59q-20 31 -23 92q-46 -101 -202 -102q-144 5 -149 145q2 138 169 160q153 18 181 57q1 75 -27 100q-25 27 -102 26q-133 9 -151 -108l-56 15q27 151 209 145q195 9 185 -185v-229q0 -46 5 -69t20 -47zM633 199v86q-26 -33 -148 -50q-149 -20 -142 -115
q-4 -103 114 -99q164 8 176 178z" />
    <glyph glyph-name="uni0431" unicode="&#x431;" 
d="M277 238q2 395 239 449q69 13 143 52l21 -50q-50 -28 -158 -57q-129 -35 -167 -197q56 70 153 69q211 -11 216 -271q-10 -248 -224 -258q-215 8 -223 263zM337 233q10 -197 163 -203q153 6 166 203q-4 208 -160 217q-158 -11 -169 -217z" />
    <glyph glyph-name="uni0432" unicode="&#x432;" 
d="M312 505h165q202 5 197 -136q1 -84 -66 -112q81 -31 81 -125q4 -151 -197 -146h-180v519zM368 228v-187h124q142 -3 139 93q1 94 -149 94h-114zM368 451v-169h111q138 0 137 83q6 88 -139 86h-109z" />
    <glyph glyph-name="uni0433" unicode="&#x433;" 
d="M337 505h328v-55h-271v-464h-57v519z" />
    <glyph glyph-name="uni0434" unicode="&#x434;" 
d="M247 43h55q89 123 88 424v38h315v-462h48l-4 -174h-49l-9 117h-385q-2 -20 -3 -51q-2 -37 -4 -66h-49zM371 43h275v407h-198q0 -267 -77 -407z" />
    <glyph glyph-name="uni0435" unicode="&#x435;" 
d="M641 108l63 -9q-43 -123 -197 -124q-217 11 -225 266q7 264 219 274q211 -6 216 -264v-24h-375q11 -196 161 -200q111 1 138 81zM343 279h311q-5 177 -151 184q-146 -2 -160 -184z" />
    <glyph glyph-name="uni0436" unicode="&#x436;" 
d="M163 505h81l229 -210v210h56v-210l228 210h81l-276 -251l273 -269h-78l-228 226v-226h-56v227l-229 -227h-77l272 269z" />
    <glyph glyph-name="uni0437" unicode="&#x437;" 
d="M357 366l-56 20q69 133 206 129q181 -6 189 -144q0 -85 -63 -114q82 -35 83 -127q-2 -153 -214 -155q-157 -6 -217 132l54 26q37 -106 163 -102q149 3 153 101q-1 95 -142 96h-58v56h57q126 -2 124 85q-9 85 -129 90q-97 3 -150 -93z" />
    <glyph glyph-name="uni0438" unicode="&#x438;" 
d="M298 505h56v-418l297 418h51v-520h-55v422l-299 -422h-50v520z" />
    <glyph glyph-name="uni0439" unicode="&#x439;" 
d="M298 505h56v-418l297 418h51v-520h-55v422l-299 -422h-50v520zM339 691h56q8 -86 105 -83q88 -1 103 83h59q-25 -135 -162 -138q-149 0 -161 138z" />
    <glyph glyph-name="uni043A" unicode="&#x43a;" 
d="M372 -14h-57v519h57v-235l235 235h76l-229 -225l246 -294h-73l-210 257l-45 -45v-212z" />
    <glyph glyph-name="uni043B" unicode="&#x43b;" 
d="M332 -23l-57 25q63 82 86 184q25 98 24 281v38h320v-520h-59v465h-203q5 -341 -111 -473z" />
    <glyph glyph-name="uni043C" unicode="&#x43c;" 
d="M238 505h65l193 -441l201 441h65v-520h-56v409l-187 -409h-47l-177 403v-403h-57v520z" />
    <glyph glyph-name="uni043D" unicode="&#x43d;" 
d="M299 505h56v-222h290v222h56v-519h-56v243h-290v-243h-56v519z" />
    <glyph glyph-name="uni043E" unicode="&#x43e;" 
d="M506 514q204 -12 214 -270q-4 -265 -222 -270q-207 13 -218 264q8 269 226 276zM501 26q155 6 159 217q-7 208 -159 219q-157 -6 -161 -222q6 -204 161 -214z" />
    <glyph glyph-name="uni043F" unicode="&#x43f;" 
d="M299 505h402v-519h-56v465h-290v-465h-56v519z" />
    <glyph glyph-name="uni0440" unicode="&#x440;" 
d="M353 -194h-58v699h58v-86q41 97 156 96q182 -23 194 -271q-8 -256 -196 -269q-111 0 -154 88v-257zM353 291v-76q5 -184 147 -191q141 2 142 219q-4 214 -152 220q-128 -12 -137 -172z" />
    <glyph glyph-name="uni0441" unicode="&#x441;" 
d="M699 378l-59 -15q-25 94 -128 100q-153 -5 -156 -218q4 -211 156 -218q115 1 132 116l60 -12q-34 -161 -194 -156q-209 7 -214 270q7 260 210 270q152 -6 193 -137z" />
    <glyph glyph-name="uni0442" unicode="&#x442;" 
d="M281 505h438v-54h-190v-466h-57v466h-191v54z" />
    <glyph glyph-name="uni0443" unicode="&#x443;" 
d="M653 505h63l-202 -550q-56 -167 -131 -154q-52 0 -90 24l26 43q18 -17 48 -17q56 -10 95 112l12 35l-190 507h63l153 -434z" />
    <glyph glyph-name="uni0444" unicode="&#x444;" 
d="M136 241q13 260 195 275q79 0 141 -77v246h57v-246q63 75 140 77q184 -14 196 -275q-12 -253 -199 -266q-80 0 -137 62v-220h-57v220q-56 -62 -138 -62q-186 14 -198 266zM663 459q-67 2 -134 -96v-249q58 -83 134 -82q134 9 143 209q-7 211 -143 218zM337 32
q77 -1 135 80v251q-70 98 -135 96q-135 -6 -141 -218q8 -201 141 -209z" />
    <glyph glyph-name="uni0445" unicode="&#x445;" 
d="M298 505h65l138 -203l142 203h65l-174 -251l186 -269h-69l-150 221l-154 -221h-68l189 269z" />
    <glyph glyph-name="uni0446" unicode="&#x446;" 
d="M279 505h57v-462h283v462h57v-462h45l-6 -151h-49l-4 94h-383v519z" />
    <glyph glyph-name="uni0447" unicode="&#x447;" 
d="M316 505h58v-193q1 -107 116 -108q74 0 137 36v265h57v-519h-57v192q-63 -30 -142 -30q-166 1 -169 161v196z" />
    <glyph glyph-name="uni0448" unicode="&#x448;" 
d="M209 505h57v-465h206v465h56v-465h207v465h57v-519h-583v519z" />
    <glyph glyph-name="uni0449" unicode="&#x449;" 
d="M192 505h56v-465h207v465h57v-465h205v465h57v-465h33l-5 -148h-47l-5 94h-558v519z" />
    <glyph glyph-name="uni044A" unicode="&#x44a;" 
d="M250 505h215v-198h72q215 1 213 -162q3 -162 -215 -160h-128v466h-157v54zM465 253v-214h64q164 -2 162 106q1 109 -162 108h-64z" />
    <glyph glyph-name="uni044B" unicode="&#x44b;" 
d="M697 505h56v-519h-56v519zM247 505h57v-197h82q214 1 212 -162q3 -162 -214 -160h-137v519zM304 253v-213h74q164 -2 162 106q1 108 -162 107h-74z" />
    <glyph glyph-name="uni044C" unicode="&#x44c;" 
d="M324 505h57v-197h82q215 1 213 -162q3 -162 -215 -160h-137v519zM381 253v-213h74q164 -2 162 106q1 108 -162 107h-74z" />
    <glyph glyph-name="uni044D" unicode="&#x44d;" 
d="M363 386l-57 14q61 115 179 115q215 -5 220 -271q-8 -262 -214 -269q-133 -2 -197 115l57 18q46 -77 140 -78q136 3 155 187h-241v55h240q-27 182 -160 187q-82 1 -122 -73z" />
    <glyph glyph-name="uni044E" unicode="&#x44e;" 
d="M591 -25q-191 8 -208 253h-123v-242h-56v519h56v-222h124q29 222 207 232q198 -11 206 -269q-5 -264 -206 -271zM591 463q-142 -13 -150 -217q7 -206 150 -219q145 5 148 219q-6 207 -148 217z" />
    <glyph glyph-name="uni044F" unicode="&#x44f;" 
d="M685 -14h-56v216h-102l-158 -216h-74l166 219q-137 15 -136 150q-2 152 195 150h165v-519zM629 256v195h-103q-145 4 -142 -96q-2 -102 142 -99h103z" />
    <glyph glyph-name="uni0451" unicode="&#x451;" 
d="M452 695v-82h-69v82h69zM617 695v-82h-69v82h69zM641 108l63 -9q-43 -123 -197 -124q-217 11 -225 266q7 264 219 274q211 -6 216 -264v-24h-375q11 -196 161 -200q111 1 138 81zM343 279h311q-5 177 -151 184q-146 -2 -160 -184z" />
    <glyph glyph-name="emdash" unicode="&#x2014;" 
d="M1000 330h-1000v40h1000v-40z" />
    <glyph glyph-name="uni2016" unicode="&#x2016;" 
d="M435 -109h-44v919h44v-919zM609 -109h-44v919h44v-919z" />
    <glyph glyph-name="quoteleft" unicode="&#x2018;" 
d="M785 812l23 -28q-75 -61 -72 -147v-2h55v-110h-97v95q-4 127 91 192z" />
    <glyph glyph-name="quoteright" unicode="&#x2019;" 
d="M217 524l-23 28q75 61 72 147v2h-55v110h97v-95q4 -127 -91 -192z" />
    <glyph glyph-name="quotedblleft" unicode="&#x201c;" 
d="M865 812l23 -28q-75 -61 -72 -147v-2h55v-110h-97v95q-4 127 91 192zM701 812l23 -28q-75 -61 -72 -147v-2h55v-110h-97v95q-4 127 91 192z" />
    <glyph glyph-name="quotedblright" unicode="&#x201d;" 
d="M141 524l-23 28q75 61 72 147v2h-55v110h97v-95q4 -127 -91 -192zM304 524l-23 28q75 61 72 147v2h-55v110h97v-95q4 -127 -91 -192z" />
    <glyph glyph-name="uni22EF" unicode="&#x22ef;" 
d="M548 405v-109h-97v109h97zM216 405v-109h-98v109h98zM881 405v-109h-97v109h97z" />
    <glyph glyph-name="uni22EF" unicode="&#x2026;" 
d="M548 405v-109h-97v109h97zM216 405v-109h-98v109h98zM881 405v-109h-97v109h97z" />
    <glyph glyph-name="perthousand" unicode="&#x2030;" 
d="M178 715q135 -6 140 -190q-3 -179 -145 -184q-133 8 -139 185q5 183 144 189zM92 527q2 -132 84 -134q85 -2 84 136q-1 132 -82 134q-87 0 -86 -136zM513 356q136 -5 140 -189q-3 -177 -145 -182q-132 9 -138 182q4 184 143 189zM428 168q1 -130 84 -131q84 -1 83 135
q-1 129 -82 132q-84 -1 -85 -136zM487 715h63l-350 -730h-64zM825 356q136 -5 140 -189q-3 -177 -145 -182q-132 9 -138 182q4 184 143 189zM740 168q1 -130 84 -131q84 -1 83 135q-1 129 -82 132q-84 -1 -85 -136z" />
    <glyph glyph-name="minute" unicode="&#x2032;" 
d="M162 433l90 291h84l-129 -291h-45z" />
    <glyph glyph-name="second" unicode="&#x2033;" 
d="M75 433l90 291h84l-129 -291h-45zM249 433l90 291h84l-129 -291h-45z" />
    <glyph glyph-name="uni203B" unicode="&#x203b;" 
d="M159 48l317 316l-301 301q-15 17 -4 31q14 11 31 -4l301 -301l313 313q13 11 24 -6q8 -16 -5 -29l-305 -305l309 -309q10 -11 0 -26q-12 -14 -23 -5l-313 313l-312 -313q-32 -10 -32 24zM241 438q68 -6 74 -74q-6 -68 -74 -74q-68 6 -74 74q6 68 74 74zM503 169
q68 -6 74 -74q-6 -68 -74 -74q-68 6 -74 74q6 68 74 74zM761 438q68 -6 74 -74q-6 -68 -74 -74q-68 6 -74 74q6 68 74 74zM503 708q68 -6 74 -74q-6 -68 -74 -74q-68 6 -74 74q6 68 74 74z" />
    <glyph glyph-name="uniE76C" unicode="&#xe76c;" horiz-adv-x="687" 
d="M454 226h-274q61 -180 217 -188q163 2 197 161l59 -13q-51 -200 -256 -200q-213 8 -279 240h-88v52h77q-4 35 -4 74q0 38 5 74h-78v52h88q66 229 279 238q185 -2 246 -170l-58 -19q-48 132 -188 137q-152 -8 -215 -186h272v-52h-285q-6 -36 -6 -74q0 -39 6 -74h285v-52z
" />
    <glyph glyph-name="uniE76C" unicode="&#x20ac;" horiz-adv-x="687" 
d="M454 226h-274q61 -180 217 -188q163 2 197 161l59 -13q-51 -200 -256 -200q-213 8 -279 240h-88v52h77q-4 35 -4 74q0 38 5 74h-78v52h88q66 229 279 238q185 -2 246 -170l-58 -19q-48 132 -188 137q-152 -8 -215 -186h272v-52h-285q-6 -36 -6 -74q0 -39 6 -74h285v-52z
" />
    <glyph glyph-name="uni2103" unicode="&#x2103;" 
d="M873 534l-58 -19q-48 132 -188 137q-217 -26 -234 -312q14 -290 234 -314q163 2 197 161l59 -13q-51 -200 -256 -200q-279 21 -294 366q16 342 294 364q185 -2 246 -170zM158 600q4 -55 60 -59q58 3 61 59q-3 59 -61 62q-57 -3 -60 -62zM116 600q8 96 102 104
q95 -7 103 -104q-5 -95 -103 -101q-94 8 -102 101z" />
    <glyph glyph-name="uni2116" unicode="&#x2116;" 
d="M910 35v-50h-270v50h270zM39 699h82l331 -603h2v604h67v-716h-82l-331 606h-2v-606h-67v715zM771 542q180 -10 189 -232q-4 -230 -195 -235q-183 12 -193 229q7 232 199 238zM768 126q129 4 132 182q-6 172 -132 180q-132 -5 -136 -182q6 -169 136 -180z" />
    <glyph glyph-name="uni2160" unicode="&#x2160;" 
d="M471 -15v710h58v-710h-58z" />
    <glyph glyph-name="uni2161" unicode="&#x2161;" 
d="M352 -15v710h58v-710h-58zM590 -15v710h58v-710h-58z" />
    <glyph glyph-name="uni2162" unicode="&#x2162;" 
d="M471 -15v710h58v-710h-58zM326 -15v710h58v-710h-58zM616 -15v710h58v-710h-58z" />
    <glyph glyph-name="uni2163" unicode="&#x2163;" 
d="M178 -15v710h58v-710h-58zM822 695l-214 -710h-59l-217 710h60l186 -645l184 645h60z" />
    <glyph glyph-name="uni2164" unicode="&#x2164;" 
d="M795 695l-264 -710h-63l-263 710h66l230 -653l228 653h66z" />
    <glyph glyph-name="uni2165" unicode="&#x2165;" 
d="M178 695h60l184 -645l186 645h60l-217 -710h-59zM822 -15h-58v710h58v-710z" />
    <glyph glyph-name="uni2166" unicode="&#x2166;" 
d="M681 -15v710h58v-710h-58zM821 -15v710h58v-710h-58zM121 695h60l184 -645l186 645h60l-217 -710h-59z" />
    <glyph glyph-name="uni2167" unicode="&#x2167;" 
d="M621 -15v710h58v-710h-58zM749 -15v710h58v-710h-58zM877 -15v710h58v-710h-58zM65 695h60l184 -645l186 645h60l-217 -710h-59z" />
    <glyph glyph-name="uni2168" unicode="&#x2168;" 
d="M684 695h71l-143 -331l177 -379h-75l-138 297l-128 -297h-74l165 378l-153 332h72l116 -250zM211 -15v710h58v-710h-58z" />
    <glyph glyph-name="uni2169" unicode="&#x2169;" 
d="M701 695h71l-234 -339l254 -371h-75l-216 318l-220 -318h-74l258 371l-230 339h71l196 -286z" />
    <glyph glyph-name="uni216A" unicode="&#x216a;" 
d="M316 695l109 -250l117 250h72l-153 -332l165 -378h-74l-129 297l-137 -297h-75l177 379l-143 331h71zM789 -15h-58v710h58v-710z" />
    <glyph glyph-name="uni216B" unicode="&#x216b;" 
d="M242 695l109 -250l117 250h72l-153 -332l165 -378h-74l-129 297l-137 -297h-75l177 379l-143 331h71zM805 -15v710h58v-710h-58zM641 -15v710h58v-710h-58z" />
    <glyph glyph-name="uni2170" unicode="&#x2170;" 
d="M471 -15v520h58v-520h-58zM470 613v82h58v-82h-58z" />
    <glyph glyph-name="uni2171" unicode="&#x2171;" 
d="M360 -15v520h58v-520h-58zM359 613v82h58v-82h-58zM582 -15v520h58v-520h-58zM581 613v82h58v-82h-58z" />
    <glyph glyph-name="uni2172" unicode="&#x2172;" 
d="M344 -15v520h58v-520h-58zM343 613v82h58v-82h-58zM598 -15v520h58v-520h-58zM597 613v82h58v-82h-58zM471 -15v520h58v-520h-58zM470 613v82h58v-82h-58z" />
    <glyph glyph-name="uni2173" unicode="&#x2173;" 
d="M194 -15v520h58v-520h-58zM193 613v82h58v-82h-58zM807 506l-187 -521h-63l-181 521h63l151 -471l155 471h62z" />
    <glyph glyph-name="uni2174" unicode="&#x2174;" 
d="M715 506l-187 -521h-63l-181 521h63l151 -471l155 471h62z" />
    <glyph glyph-name="uni2175" unicode="&#x2175;" 
d="M746 -15v520h58v-520h-58zM745 613v82h58v-82h-58zM626 506l-187 -521h-63l-181 521h63l151 -471l155 471h62z" />
    <glyph glyph-name="uni2176" unicode="&#x2176;" 
d="M647 -15v520h58v-520h-58zM646 613v82h58v-82h-58zM806 -15v520h58v-520h-58zM805 613v82h58v-82h-58zM567 506l-187 -521h-63l-181 521h63l151 -471l155 471h62z" />
    <glyph glyph-name="uni2177" unicode="&#x2177;" 
d="M595 -15v520h58v-520h-58zM594 613v82h58v-82h-58zM719 -15v520h58v-520h-58zM718 613v82h58v-82h-58zM530 506l-187 -521h-63l-181 521h63l151 -471l155 471h62zM843 -15v520h58v-520h-58zM842 613v82h58v-82h-58z" />
    <glyph glyph-name="uni2178" unicode="&#x2178;" 
d="M420 506h65l96 -179l100 179h65l-132 -240l151 -281h-69l-116 219l-121 -219h-68l156 281zM235 -15v520h58v-520h-58zM234 613v82h58v-82h-58z" />
    <glyph glyph-name="uni2179" unicode="&#x2179;" 
d="M298 506h65l138 -203l142 203h65l-174 -251l186 -270h-69l-150 222l-154 -222h-68l189 270z" />
    <glyph glyph-name="arrowleft" unicode="&#x2190;" 
d="M1000 368v-32h-820q79 -89 76 -178q-103 138 -256 196q154 57 256 192q-3 -105 -76 -178h820z" />
    <glyph glyph-name="arrowup" unicode="&#x2191;" 
d="M516 -150h-32v819q-92 -79 -178 -75q136 100 194 256q56 -152 194 -256q-106 3 -178 75v-819z" />
    <glyph glyph-name="arrowright" unicode="&#x2192;" 
d="M0 368h820q-72 72 -76 178q102 -135 256 -192q-153 -58 -256 -196q-5 81 76 178h-820v32z" />
    <glyph glyph-name="arrowdown" unicode="&#x2193;" 
d="M516 850v-820q68 73 178 77q-137 -104 -194 -257q-59 157 -194 257q80 5 178 -77v820h32z" />
    <glyph glyph-name="element" unicode="&#x2208;" 
d="M807 92v-55h-359q-252 5 -256 304q4 298 256 303h359v-56h-365q-182 -12 -185 -218h532v-54h-532q0 -222 181 -224h369z" />
    <glyph glyph-name="product" unicode="&#x220f;" 
d="M792 628v-626q-4 -87 97 -81v-23h-306v23q100 -6 96 81v693h-358v-693q-4 -87 97 -81v-23h-307v23q101 -6 97 81v626q-1 98 -95 99v23h773v-23q-93 -1 -94 -99z" />
    <glyph glyph-name="summation" unicode="&#x2211;" 
d="M762 743l6 -159h-20q-1 5 -4 13q-15 107 -149 101h-263l273 -358l-294 -339h371q57 -1 82 22q26 19 53 91h23q-32 -121 -43 -224q-8 1 -24 4q-35 7 -53 7h-503q-10 0 -29 -2q-19 -1 -29 -1l349 398l-347 454q13 -1 38 -3q45 -4 66 -4h497z" />
    <glyph glyph-name="radical" unicode="&#x221a;" 
d="M485 -9l498 859h17v-40l-532 -924h-21l-321 612l-113 -63l-13 32l185 103z" />
    <glyph glyph-name="proportional" unicode="&#x221d;" 
d="M185 322q9 178 162 185q108 -3 160 -139q65 136 195 132q97 -3 108 -29q-1 -15 -15 -16q-9 0 -27 1q-19 2 -28 2q-130 10 -192 -148q-5 -10 -8 -15q66 -107 190 -102q25 0 59 7q2 1 3 1q24 1 23 -13q-25 -43 -111 -49q-127 -2 -177 131q-63 -142 -177 -137
q-157 6 -165 189zM215 313q5 -115 117 -120q91 -5 153 135l9 18q-49 101 -146 101q-126 -7 -133 -134z" />
    <glyph glyph-name="infinity" unicode="&#x221e;" 
d="M499 374q81 81 129 99q75 35 139 -7q62 -45 64 -132q-12 -144 -148 -142q-86 8 -170 97q-10 11 -14 15q-4 -4 -14 -15q-79 -89 -170 -97q-137 -3 -148 141q2 85 65 132q64 42 138 8q48 -18 129 -99zM466 339q-81 75 -119 86q-114 35 -124 -91q1 -45 34 -72q34 -27 77 -17
q55 6 123 85zM532 339l9 -9q68 -79 123 -85q99 -11 111 89q-8 128 -124 91q-38 -11 -119 -86z" />
    <glyph glyph-name="angle" unicode="&#x2220;" 
d="M159 2l475 628l33 -26l-423 -560h596v-42h-681z" />
    <glyph glyph-name="uni2225" unicode="&#x2225;" 
d="M423 -136h-38l492 976h38zM123 -136h-38l492 976h38z" />
    <glyph glyph-name="logicaland" unicode="&#x2227;" 
d="M781 -31h-51l-218 727l-242 -719h-51l261 782h63z" />
    <glyph glyph-name="logicalor" unicode="&#x2228;" 
d="M269 751l230 -731l235 731h47l-250 -793h-63l-250 793h51z" />
    <glyph glyph-name="intersection" unicode="&#x2229;" 
d="M748 -1v362q-6 223 -248 230q-242 -7 -248 -230v-362h-58v361q9 279 306 289q297 -10 306 -289v-361h-58z" />
    <glyph glyph-name="union" unicode="&#x222a;" 
d="M748 267v362h58v-355q-7 -287 -306 -294q-299 7 -306 294v355h58v-362q5 -223 248 -229q243 6 248 229z" />
    <glyph glyph-name="integral" unicode="&#x222b;" 
d="M477 181l12 330q10 220 103 225q28 -1 30 -26q-1 -19 -21 -20q-11 0 -23 14q-6 8 -10 8q-37 9 -43 -198l-12 -336q-10 -344 -105 -328q-28 2 -31 30q1 19 21 20q11 0 23 -14q6 -8 10 -8q37 -17 46 303z" />
    <glyph glyph-name="uni222E" unicode="&#x222e;" 
d="M521 391l-7 -185q77 11 82 93q-4 76 -75 92zM478 208l7 184q-75 -14 -79 -93q3 -75 72 -91zM525 514l-2 -99q92 -19 97 -116q-6 -103 -107 -117v-4q-5 -136 -21 -220q-22 -106 -84 -108q-28 2 -31 30q1 19 21 20q11 0 23 -14q6 -8 10 -8q39 -2 44 229l2 76
q-90 21 -95 116q5 100 103 117l6 95q12 227 100 227q28 -2 31 -28q-1 -19 -21 -20q-11 0 -23 14q-6 8 -10 8q-41 4 -43 -198z" />
    <glyph glyph-name="therefore" unicode="&#x2234;" 
d="M227 176q6 59 65 65q60 -6 65 -65q-5 -60 -65 -65q-59 5 -65 65zM635 176q6 59 65 65q60 -6 65 -65q-5 -60 -65 -65q-59 5 -65 65zM431 524q6 59 65 65q60 -6 65 -65q-5 -60 -65 -65q-59 5 -65 65z" />
    <glyph glyph-name="uni2235" unicode="&#x2235;" 
d="M231 521q6 59 65 65q60 -6 65 -65q-5 -60 -65 -65q-59 5 -65 65zM639 521q6 59 65 65q60 -6 65 -65q-5 -60 -65 -65q-59 5 -65 65zM435 177q6 59 65 65q60 -6 65 -65q-5 -60 -65 -65q-59 5 -65 65z" />
    <glyph glyph-name="uni2236" unicode="&#x2236;" 
d="M543 102h-87v99h87v-99zM543 498h-87v100h87v-100z" />
    <glyph glyph-name="uni2237" unicode="&#x2237;" 
d="M669 547q45 -5 50 -50q-5 -45 -50 -50q-45 5 -50 50q5 45 50 50zM669 193q45 -5 50 -50q-5 -45 -50 -50q-45 5 -50 50q5 45 50 50zM331 547q45 -5 50 -50q-5 -45 -50 -50q-45 5 -50 50q5 45 50 50zM331 193q45 -5 50 -50q-5 -45 -50 -50q-45 5 -50 50q5 45 50 50z" />
    <glyph glyph-name="uni223D" unicode="&#x223d;" 
d="M883 193h-42q-9 207 -157 213q-69 0 -168 -101q-74 -98 -196 -113q-193 -2 -204 256h42q5 -210 156 -214q108 12 175 103q70 97 195 111q188 -5 199 -255z" />
    <glyph glyph-name="approxequal" unicode="&#x2248;" 
d="M830 462v-54q-87 -70 -167 -67q-63 0 -173 42q-98 38 -149 38q-77 2 -171 -75v54q87 70 167 67q63 0 173 -42q98 -38 149 -38q77 -2 171 75zM830 311v-54q-87 -70 -167 -67q-63 0 -173 42q-98 38 -149 38q-77 2 -171 -75v54q87 70 167 67q63 0 173 -42q98 -38 149 -38
q77 -2 171 75z" />
    <glyph glyph-name="uni224C" unicode="&#x224c;" 
d="M891 47h-799v42h799v-42zM891 189h-799v42h799v-42zM883 339h-42q-9 207 -157 213q-69 0 -168 -101q-74 -98 -196 -113q-193 -2 -204 256h42q5 -210 156 -214q108 12 175 103q70 97 195 111q188 -5 199 -255z" />
    <glyph glyph-name="notequal" unicode="&#x2260;" 
d="M396 224h-229v46h265l79 104h-344v46h379l177 232h51l-177 -232h236v-46h-271l-79 -104h350v-46h-386l-174 -236h-51z" />
    <glyph glyph-name="equivalence" unicode="&#x2261;" 
d="M830 434h-660v46h660v-46zM830 160h-660v46h660v-46zM830 297h-660v46h660v-46z" />
    <glyph glyph-name="lessequal" unicode="&#x2264;" 
d="M839 229v-60l-678 187v61l678 189v-60l-594 -158v-2zM839 46v-59l-678 191v60z" />
    <glyph glyph-name="greaterequal" unicode="&#x2265;" 
d="M839 238v-60l-678 -191v59zM839 417v-61l-678 -187v60l594 157v2l-594 158v60z" />
    <glyph glyph-name="uni226E" unicode="&#x226e;" 
d="M443 237l87 205l-302 -119zM832 81v-46l-366 147l-83 -194h-46l89 210l-258 104v42l386 154l65 154h46l-56 -132l223 89v-47l-247 -98l-103 -243z" />
    <glyph glyph-name="uni226F" unicode="&#x226f;" 
d="M382 -12h-46l60 140l-228 -91v47l251 99l102 241l-353 141v46l370 -148l80 189h46l-87 -205l255 -103v-42l-381 -152zM560 408l-86 -203l298 118z" />
    <glyph glyph-name="uni2299" unicode="&#x2299;" 
d="M500 298q-52 6 -58 58q6 52 58 58q52 -6 58 -58q-6 -52 -58 -58zM500 34q293 27 320 322q-27 295 -320 322q-293 -27 -320 -322q27 -295 320 -322zM500 720q332 -32 364 -364q-32 -332 -364 -364q-332 32 -364 364q32 332 364 364z" />
    <glyph glyph-name="perpendicular" unicode="&#x22a5;" 
d="M202 44h276v586h44v-586h276v-42h-596v42z" />
    <glyph glyph-name="uni2312" unicode="&#x2312;" 
d="M916 227l-4 -8q-14 0 -55 44q-71 126 -347 173q-11 1 -24 0q-276 -47 -344 -173q-40 -44 -54 -44l-4 8q143 282 414 281q281 4 418 -281z" />
    <glyph glyph-name="uni2460" unicode="&#x2460;" 
d="M75 350q22 -403 424 -425q408 18 426 425q-21 404 -426 425q-397 -27 -424 -425zM36 350q36 426 463 464q435 -30 465 -464q-27 -435 -465 -464q-432 33 -463 464zM497 11v582q-64 -64 -178 -84v49q138 29 191 135h42v-682h-55z" />
    <glyph glyph-name="uni2461" unicode="&#x2461;" 
d="M366 68h331v-49h-399v39q63 142 196 251q152 124 143 207q1 135 -137 134q-99 4 -134 -117l-57 15q49 157 205 155q172 -8 182 -178q1 -130 -154 -249q-122 -94 -176 -208zM75 350q22 -403 424 -425q408 18 426 425q-21 404 -426 425q-397 -27 -424 -425zM36 350
q36 426 463 464q435 -30 465 -464q-27 -435 -465 -464q-432 33 -463 464z" />
    <glyph glyph-name="uni2462" unicode="&#x2462;" 
d="M292 173l58 11q23 -129 142 -128q147 -1 146 155q-5 127 -154 131h-57v49h57q126 6 132 134q-1 123 -121 124q-111 2 -132 -113l-59 8q30 155 191 154q173 -4 178 -171q1 -113 -99 -160q123 -32 124 -161q-9 -190 -203 -199q-171 -2 -203 166zM75 350q22 -403 424 -425
q408 18 426 425q-21 404 -426 425q-397 -27 -424 -425zM36 350q36 426 463 464q435 -30 465 -464q-27 -435 -465 -464q-432 33 -463 464z" />
    <glyph glyph-name="uni2463" unicode="&#x2463;" 
d="M605 234h79v-50h-79v-164h-55v164h-297v36l301 484h51v-470zM319 234h231v376zM75 350q22 -403 424 -425q408 18 426 425q-21 404 -426 425q-397 -27 -424 -425zM36 350q36 426 463 464q435 -30 465 -464q-27 -435 -465 -464q-432 33 -463 464z" />
    <glyph glyph-name="uni2464" unicode="&#x2464;" 
d="M290 153l58 12q26 -117 146 -119q147 8 154 187q-5 179 -152 184q-99 0 -144 -88l-41 6l33 369h329v-52h-281l-22 -236q52 52 141 52q188 -10 197 -235q-7 -229 -208 -238q-174 -4 -210 158zM75 350q22 -403 424 -425q408 18 426 425q-21 404 -426 425
q-397 -27 -424 -425zM36 350q36 426 463 464q435 -30 465 -464q-27 -435 -465 -464q-432 33 -463 464z" />
    <glyph glyph-name="uni2465" unicode="&#x2465;" 
d="M689 577l-53 -18q-32 101 -127 101q-155 -15 -164 -290q57 92 167 91q186 -11 196 -232q-10 -219 -201 -230q-220 -1 -220 335q1 375 226 376q143 -3 176 -133zM503 50q140 10 147 179q-7 173 -143 181q-141 -12 -153 -155q7 -195 149 -205zM75 350q22 -403 424 -425
q408 18 426 425q-21 404 -426 425q-397 -27 -424 -425zM36 350q36 426 463 464q435 -30 465 -464q-27 -435 -465 -464q-432 33 -463 464z" />
    <glyph glyph-name="uni2466" unicode="&#x2466;" 
d="M455 -16h-63q45 336 243 639h-346v51h408v-40q-212 -333 -242 -650zM75 350q22 -403 424 -425q408 18 426 425q-21 404 -426 425q-397 -27 -424 -425zM36 350q36 426 463 464q435 -30 465 -464q-27 -435 -465 -464q-432 33 -463 464z" />
    <glyph glyph-name="uni2467" unicode="&#x2467;" 
d="M718 189q-7 -181 -210 -187q-199 8 -208 191q11 135 123 174q-93 46 -98 156q10 169 184 179q172 -12 185 -180q-4 -109 -99 -155q116 -41 123 -178zM509 52q149 4 153 137q-6 147 -155 153q-140 -11 -151 -148q9 -134 153 -142zM509 652q-123 -5 -128 -127
q2 -131 128 -133q124 4 129 132q-6 122 -129 128zM75 350q22 -403 424 -425q408 18 426 425q-21 404 -426 425q-397 -27 -424 -425zM36 350q36 426 463 464q435 -30 465 -464q-27 -435 -465 -464q-432 33 -463 464z" />
    <glyph glyph-name="uni2468" unicode="&#x2468;" 
d="M316 112l53 17q23 -83 118 -82q159 8 164 283q-47 -83 -166 -85q-179 16 -193 223q11 222 198 234q219 2 218 -330q4 -380 -226 -375q-133 4 -166 115zM646 450q-3 197 -152 201q-141 -5 -146 -177q5 -174 137 -179q152 8 161 155zM75 350q22 -403 424 -425
q408 18 426 425q-21 404 -426 425q-397 -27 -424 -425zM36 350q36 426 463 464q435 -30 465 -464q-27 -435 -465 -464q-432 33 -463 464z" />
    <glyph glyph-name="uni2469" unicode="&#x2469;" 
d="M307 13v567q-62 -63 -173 -82v48q135 28 186 131h41v-664h-54zM614 676q197 0 197 -336q-3 -330 -194 -336q-198 5 -200 336q4 328 197 336zM615 52q142 -5 141 288q1 291 -144 288q-137 -5 -139 -288q-1 -290 142 -288zM75 350q22 -403 424 -425q408 18 426 425
q-21 404 -426 425q-397 -27 -424 -425zM36 350q36 426 463 464q435 -30 465 -464q-27 -435 -465 -464q-432 33 -463 464z" />
    <glyph glyph-name="uni2474" unicode="&#x2474;" 
d="M228 -112h-37q-139 223 -138 460q1 235 137 461h37q-131 -228 -127 -461q-4 -236 128 -460zM773 809h37q136 -226 137 -461q1 -237 -138 -460h-37q132 224 128 460q4 233 -127 461zM474 -5v614q-68 -67 -188 -88v52q145 29 202 142h44v-720h-58z" />
    <glyph glyph-name="uni2475" unicode="&#x2475;" 
d="M375 47h348v-52h-420v41q66 150 206 264q160 131 151 218q1 142 -144 141q-105 4 -141 -123l-60 16q50 165 215 163q181 -8 192 -187q1 -136 -162 -262q-130 -100 -185 -219zM228 -112h-37q-139 223 -138 460q1 235 137 461h37q-131 -228 -127 -461q-4 -236 128 -460z
M773 809h37q136 -226 137 -461q1 -237 -138 -460h-37q132 224 128 460q4 233 -127 461z" />
    <glyph glyph-name="uni2476" unicode="&#x2476;" 
d="M274 160l61 12q25 -136 150 -135q156 -1 155 164q-6 134 -163 138h-60v52h60q134 6 140 142q-1 129 -129 130q-116 2 -139 -119l-62 8q31 164 201 163q183 -5 189 -180q1 -120 -105 -170q130 -34 131 -170q-10 -201 -214 -210q-182 -2 -215 175zM228 -112h-37
q-139 223 -138 460q1 235 137 461h37q-131 -228 -127 -461q-4 -236 128 -460zM773 809h37q136 -226 137 -461q1 -237 -138 -460h-37q132 224 128 460q4 233 -127 461z" />
    <glyph glyph-name="uni2477" unicode="&#x2477;" 
d="M633 220h83v-52h-83v-173h-58v173h-313v38l317 509h54v-495zM331 220h244v397zM228 -112h-37q-139 223 -138 460q1 235 137 461h37q-131 -228 -127 -461q-4 -236 128 -460zM773 809h37q136 -226 137 -461q1 -237 -138 -460h-37q132 224 128 460q4 233 -127 461z" />
    <glyph glyph-name="uni2478" unicode="&#x2478;" 
d="M288 146l59 12q26 -120 148 -121q150 8 157 190q-5 182 -155 187q-101 0 -146 -89l-42 6l34 374h335v-52h-287l-22 -240q55 53 144 53q192 -10 200 -239q-7 -234 -211 -242q-178 -4 -214 161zM228 -112h-37q-139 223 -138 460q1 235 137 461h37q-131 -228 -127 -461
q-4 -236 128 -460zM773 809h37q136 -226 137 -461q1 -237 -138 -460h-37q132 224 128 460q4 233 -127 461z" />
    <glyph glyph-name="uni2479" unicode="&#x2479;" 
d="M696 578l-55 -18q-32 102 -130 103q-160 -15 -168 -297q59 94 171 93q191 -12 201 -238q-10 -224 -206 -236q-226 -1 -226 344q1 385 232 386q146 -3 181 -137zM505 37q143 10 150 184q-7 178 -146 186q-145 -12 -157 -159q7 -201 153 -211zM228 -112h-37
q-139 223 -138 460q1 235 137 461h37q-131 -228 -127 -461q-4 -236 128 -460zM773 809h37q136 -226 137 -461q1 -237 -138 -460h-37q132 224 128 460q4 233 -127 461z" />
    <glyph glyph-name="uni247A" unicode="&#x247a;" 
d="M472 -5h-65q46 345 250 658h-356v52h420v-41q-219 -344 -249 -669zM228 -112h-37q-139 223 -138 460q1 235 137 461h37q-131 -228 -127 -461q-4 -236 128 -460zM773 809h37q136 -226 137 -461q1 -237 -138 -460h-37q132 224 128 460q4 233 -127 461z" />
    <glyph glyph-name="uni247B" unicode="&#x247b;" 
d="M716 180q-7 -189 -219 -195q-208 8 -217 199q11 141 128 182q-96 48 -102 163q10 176 192 186q180 -12 193 -188q-4 -113 -103 -161q121 -43 128 -186zM498 37q155 4 160 143q-6 154 -162 160q-147 -11 -158 -155q10 -140 160 -148zM498 663q-128 -6 -134 -132
q2 -137 134 -139q130 4 135 138q-6 126 -135 133zM228 -112h-37q-139 223 -138 460q1 235 137 461h37q-131 -228 -127 -461q-4 -236 128 -460zM773 809h37q136 -226 137 -461q1 -237 -138 -460h-37q132 224 128 460q4 233 -127 461z" />
    <glyph glyph-name="uni247C" unicode="&#x247c;" 
d="M317 104l55 18q23 -86 122 -85q166 8 170 293q-49 -86 -172 -88q-186 16 -200 231q12 230 205 242q228 2 226 -342q4 -393 -234 -388q-136 4 -172 119zM659 454q-3 204 -158 209q-146 -5 -151 -184q5 -180 142 -185q157 8 167 160zM228 -112h-37q-139 223 -138 460
q1 235 137 461h37q-131 -228 -127 -461q-4 -236 128 -460zM773 809h37q136 -226 137 -461q1 -237 -138 -460h-37q132 224 128 460q4 233 -127 461z" />
    <glyph glyph-name="uni247D" unicode="&#x247d;" 
d="M315 -6v615q-65 -67 -180 -88v52q138 29 194 142h42v-721h-56zM643 714q205 0 205 -365q-3 -359 -202 -365q-205 5 -207 365q4 357 204 365zM644 36q149 -6 147 313q1 316 -150 313q-143 -6 -145 -313q0 -314 148 -313zM228 -112h-37q-139 223 -138 460q1 235 137 461h37
q-131 -228 -127 -461q-4 -236 128 -460zM773 809h37q136 -226 137 -461q1 -237 -138 -460h-37q132 224 128 460q4 233 -127 461z" />
    <glyph glyph-name="uni247E" unicode="&#x247e;" 
d="M351 -5v614q-68 -67 -188 -88v52q145 29 202 142h44v-720h-58zM661 -5v614q-68 -67 -188 -88v52q145 29 202 142h44v-720h-58zM228 -112h-37q-139 223 -138 460q1 235 137 461h37q-131 -228 -127 -461q-4 -236 128 -460zM773 809h37q136 -226 137 -461q1 -237 -138 -460
h-37q132 224 128 460q4 233 -127 461z" />
    <glyph glyph-name="uni247F" unicode="&#x247f;" 
d="M314 -6v615q-67 -67 -183 -88v52q141 29 197 142h42v-721h-56zM484 46h339v-52h-409v41q65 151 201 264q156 133 147 219q1 142 -140 141q-102 5 -138 -123l-58 16q49 165 209 163q177 -8 187 -187q1 -137 -158 -263q-127 -101 -180 -219zM228 -112h-37
q-139 223 -138 460q1 235 137 461h37q-131 -228 -127 -461q-4 -236 128 -460zM773 809h37q136 -226 137 -461q1 -237 -138 -460h-37q132 224 128 460q4 233 -127 461z" />
    <glyph glyph-name="uni2480" unicode="&#x2480;" 
d="M319 -5v614q-68 -67 -188 -88v52q145 29 202 142h44v-720h-58zM415 160l61 12q25 -136 150 -135q156 -1 155 164q-6 134 -163 138h-60v52h60q134 6 140 142q-1 129 -129 130q-116 2 -139 -119l-62 8q31 164 201 163q183 -5 189 -180q1 -120 -105 -170q130 -34 131 -170
q-10 -201 -214 -210q-182 -2 -215 175zM228 -112h-37q-139 223 -138 460q1 235 137 461h37q-131 -228 -127 -461q-4 -236 128 -460zM773 809h37q136 -226 137 -461q1 -237 -138 -460h-37q132 224 128 460q4 233 -127 461z" />
    <glyph glyph-name="uni2481" unicode="&#x2481;" 
d="M315 -3v612q-65 -66 -184 -87v51q142 30 198 142h43v-718h-57zM771 221h81v-51h-81v-173h-57v173h-307v37l311 508h53v-494zM474 221h240v396zM228 -112h-37q-139 223 -138 460q1 235 137 461h37q-131 -228 -127 -461q-4 -236 128 -460zM773 809h37q136 -226 137 -461
q1 -237 -138 -460h-37q132 224 128 460q4 233 -127 461z" />
    <glyph glyph-name="uni2482" unicode="&#x2482;" 
d="M317 -6v615q-67 -67 -185 -88v52q143 29 199 142h44v-721h-58zM425 145l58 12q26 -120 146 -121q148 8 155 190q-5 182 -153 188q-99 0 -144 -90l-41 6l33 375h330v-52h-282l-22 -240q53 53 142 53q189 -10 197 -240q-7 -233 -208 -242q-175 -4 -211 161zM228 -112h-37
q-139 223 -138 460q1 235 137 461h37q-131 -228 -127 -461q-4 -236 128 -460zM773 809h37q136 -226 137 -461q1 -237 -138 -460h-37q132 224 128 460q4 233 -127 461z" />
    <glyph glyph-name="uni2483" unicode="&#x2483;" 
d="M313 -6v615q-65 -67 -182 -88v52q140 30 196 142h43v-721h-57zM823 578l-54 -18q-31 102 -126 103q-155 -15 -163 -297q57 94 166 93q185 -12 195 -239q-10 -224 -200 -236q-220 -1 -219 344q0 386 225 387q142 -3 176 -137zM637 36q139 10 146 184q-7 179 -142 187
q-140 -12 -152 -160q7 -201 148 -211zM228 -112h-37q-139 223 -138 460q1 235 137 461h37q-131 -228 -127 -461q-4 -236 128 -460zM773 809h37q136 -226 137 -461q1 -237 -138 -460h-37q132 224 128 460q4 233 -127 461z" />
    <glyph glyph-name="uni2484" unicode="&#x2484;" 
d="M317 -5v614q-67 -67 -184 -88v52q142 30 198 142h43v-720h-57zM570 -5h-64q45 344 245 658h-349v52h412v-41q-216 -346 -244 -669zM228 -112h-37q-139 223 -138 460q1 235 137 461h37q-131 -228 -127 -461q-4 -236 128 -460zM773 809h37q136 -226 137 -461
q1 -237 -138 -460h-37q132 224 128 460q4 233 -127 461z" />
    <glyph glyph-name="uni2485" unicode="&#x2485;" 
d="M314 -6v615q-67 -67 -183 -88v52q141 29 197 142h42v-721h-56zM829 179q-7 -189 -213 -195q-202 8 -211 199q11 141 124 183q-94 49 -99 163q10 176 187 186q175 -12 188 -188q-4 -113 -101 -161q118 -45 125 -187zM617 36q151 4 156 143q-6 154 -158 160
q-143 -11 -154 -155q9 -140 156 -148zM617 663q-125 -6 -131 -132q2 -137 131 -139q127 4 131 138q-6 126 -131 133zM228 -112h-37q-139 223 -138 460q1 235 137 461h37q-131 -228 -127 -461q-4 -236 128 -460zM773 809h37q136 -226 137 -461q1 -237 -138 -460h-37
q132 224 128 460q4 233 -127 461z" />
    <glyph glyph-name="uni2486" unicode="&#x2486;" 
d="M317 -6v615q-67 -67 -183 -88v52q141 29 197 142h43v-721h-57zM440 103l53 18q23 -86 119 -85q161 8 166 293q-48 -87 -168 -88q-182 16 -195 232q11 230 200 242q222 2 220 -342q4 -394 -228 -389q-133 4 -167 119zM773 454q-3 204 -154 209q-143 -5 -147 -184
q5 -181 138 -186q153 8 163 161zM228 -112h-37q-139 223 -138 460q1 235 137 461h37q-131 -228 -127 -461q-4 -236 128 -460zM773 809h37q136 -226 137 -461q1 -237 -138 -460h-37q132 224 128 460q4 233 -127 461z" />
    <glyph glyph-name="uni2487" unicode="&#x2487;" 
d="M695 714q176 0 176 -365q-2 -359 -173 -364q-177 5 -179 364q4 356 176 365zM696 37q128 -5 127 312q1 316 -130 313q-123 -6 -124 -313q0 -313 127 -312zM228 -112h-37q-139 223 -138 460q1 235 137 461h37q-131 -228 -127 -461q-1 -179 66 -335v23q55 151 170 264
q132 131 124 218q1 142 -119 141q-85 4 -116 -123l-49 16q41 164 177 163q149 -8 158 -187q1 -137 -134 -262q-104 -97 -152 -219h287v-52h-339q24 -51 55 -107zM773 809h37q136 -226 137 -461q1 -237 -138 -460h-37q132 224 128 460q4 233 -127 461z" />
    <glyph glyph-name="uni2488" unicode="&#x2488;" 
d="M331 -15v614q-68 -67 -188 -88v52q145 29 202 142h44v-720h-58zM846 83v-99h-86v99h86z" />
    <glyph glyph-name="uni2489" unicode="&#x2489;" 
d="M193 37h348v-52h-420v41q66 150 206 264q160 131 151 218q1 142 -144 141q-105 4 -141 -123l-60 16q50 165 215 163q181 -8 192 -187q1 -136 -162 -262q-130 -100 -185 -219zM882 83v-99h-86v99h86z" />
    <glyph glyph-name="uni248A" unicode="&#x248a;" 
d="M132 150l61 12q25 -136 150 -135q156 -1 155 164q-6 134 -163 138h-60v52h60q134 6 140 142q-1 129 -129 130q-116 2 -139 -119l-62 8q31 164 201 163q183 -5 189 -180q1 -120 -105 -170q130 -34 131 -170q-10 -201 -214 -210q-182 -2 -215 175zM874 83v-99h-86v99h86z
" />
    <glyph glyph-name="uni248B" unicode="&#x248b;" 
d="M483 210h83v-52h-83v-173h-58v173h-313v38l317 509h54v-495zM181 210h244v397zM886 83v-99h-86v99h86z" />
    <glyph glyph-name="uni248C" unicode="&#x248c;" 
d="M130 136l59 12q26 -120 148 -121q150 8 157 190q-5 182 -155 187q-101 0 -146 -89l-42 6l34 374h335v-52h-287l-22 -240q55 53 144 53q192 -10 200 -239q-7 -234 -211 -242q-178 -4 -214 161zM886 83v-99h-86v99h86z" />
    <glyph glyph-name="uni248D" unicode="&#x248d;" 
d="M549 568l-55 -18q-32 102 -130 103q-160 -15 -168 -297q59 94 171 93q191 -12 201 -238q-10 -224 -206 -236q-226 -1 -226 344q1 385 232 386q146 -3 181 -137zM358 27q143 10 150 184q-7 178 -146 186q-145 -12 -157 -159q7 -201 153 -211zM868 83v-99h-86v99h86z" />
    <glyph glyph-name="uni248E" unicode="&#x248e;" 
d="M342 -15h-65q46 345 250 658h-356v52h420v-41q-219 -344 -249 -669zM836 83v-99h-86v99h86z" />
    <glyph glyph-name="uni248F" unicode="&#x248f;" 
d="M565 170q-7 -189 -219 -195q-208 8 -217 199q11 141 128 182q-96 48 -102 163q10 176 192 186q180 -12 193 -188q-4 -113 -103 -161q121 -43 128 -186zM347 27q155 4 160 143q-6 154 -162 160q-147 -11 -158 -155q10 -140 160 -148zM347 653q-128 -6 -134 -132
q2 -137 134 -139q130 4 135 138q-6 126 -135 133zM876 83v-99h-86v99h86z" />
    <glyph glyph-name="uni2490" unicode="&#x2490;" 
d="M173 94l55 18q23 -86 122 -85q166 8 170 293q-49 -86 -172 -88q-186 16 -200 231q12 230 205 242q228 2 226 -342q4 -393 -234 -388q-136 4 -172 119zM515 444q-3 204 -158 209q-146 -5 -151 -184q5 -180 142 -185q157 8 167 160zM861 83v-99h-86v99h86z" />
    <glyph glyph-name="uni2491" unicode="&#x2491;" 
d="M217 -15v614q-68 -67 -188 -88v52q145 29 202 142h44v-720h-58zM974 83v-99h-86v99h86zM570 704q214 0 214 -364q-3 -359 -211 -365q-214 5 -216 365q4 355 213 364zM571 27q155 -6 153 313q1 315 -156 312q-149 -6 -151 -312q-1 -315 154 -313z" />
    <glyph glyph-name="uni2492" unicode="&#x2492;" 
d="M217 -15v614q-68 -67 -188 -88v52q145 29 202 142h44v-720h-58zM974 83v-99h-86v99h86zM559 -15v614q-68 -67 -188 -88v52q145 29 202 142h44v-720h-58z" />
    <glyph glyph-name="uni2493" unicode="&#x2493;" 
d="M217 -15v614q-68 -67 -188 -88v52q145 29 202 142h44v-720h-58zM984 83v-99h-86v99h86zM433 37h348v-52h-420v41q66 150 206 264q160 131 151 218q1 142 -144 141q-105 4 -141 -123l-60 16q50 165 215 163q181 -8 192 -187q1 -136 -162 -262q-130 -100 -185 -219z" />
    <glyph glyph-name="uni2494" unicode="&#x2494;" 
d="M217 -15v614q-68 -67 -188 -88v52q145 29 202 142h44v-720h-58zM974 83v-99h-86v99h86zM351 150l61 12q25 -136 150 -135q156 -1 155 164q-6 134 -163 138h-60v52h60q134 6 140 142q-1 129 -129 130q-116 2 -139 -119l-62 8q31 164 201 163q183 -5 189 -180
q1 -120 -105 -170q130 -34 131 -170q-10 -201 -214 -210q-182 -2 -215 175z" />
    <glyph glyph-name="uni2495" unicode="&#x2495;" 
d="M217 -15v614q-68 -67 -188 -88v52q145 29 202 142h44v-720h-58zM974 83v-99h-86v99h86zM717 210h83v-52h-83v-173h-58v173h-313v38l317 509h54v-495zM415 210h244v397z" />
    <glyph glyph-name="uni2496" unicode="&#x2496;" 
d="M217 -15v614q-68 -67 -188 -88v52q145 29 202 142h44v-720h-58zM974 83v-99h-86v99h86zM375 136l59 12q26 -120 148 -121q150 8 157 190q-5 182 -155 187q-101 0 -146 -89l-42 6l34 374h335v-52h-287l-22 -240q55 53 144 53q192 -10 200 -239q-7 -234 -211 -242
q-178 -4 -214 161z" />
    <glyph glyph-name="uni2497" unicode="&#x2497;" 
d="M217 -15v614q-68 -67 -188 -88v52q145 29 202 142h44v-720h-58zM974 83v-99h-86v99h86zM779 568l-55 -18q-32 102 -130 103q-160 -15 -168 -297q59 94 171 93q191 -12 201 -238q-10 -224 -206 -236q-226 -1 -226 344q1 385 232 386q146 -3 181 -137zM588 27
q143 10 150 184q-7 178 -146 186q-145 -12 -157 -159q7 -201 153 -211z" />
    <glyph glyph-name="uni2498" unicode="&#x2498;" 
d="M217 -15v614q-68 -67 -188 -88v52q145 29 202 142h44v-720h-58zM974 83v-99h-86v99h86zM572 -15h-65q46 345 250 658h-356v52h420v-41q-219 -344 -249 -669z" />
    <glyph glyph-name="uni2499" unicode="&#x2499;" 
d="M217 -15v614q-68 -67 -188 -88v52q145 29 202 142h44v-720h-58zM974 83v-99h-86v99h86zM797 170q-7 -189 -219 -195q-208 8 -217 199q11 141 128 182q-96 48 -102 163q10 176 192 186q180 -12 193 -188q-4 -113 -103 -161q121 -43 128 -186zM579 27q155 4 160 143
q-6 154 -162 160q-147 -11 -158 -155q10 -140 160 -148zM579 653q-128 -6 -134 -132q2 -137 134 -139q130 4 135 138q-6 126 -135 133z" />
    <glyph glyph-name="uni249A" unicode="&#x249a;" 
d="M217 -15v614q-68 -67 -188 -88v52q145 29 202 142h44v-720h-58zM974 83v-99h-86v99h86zM372 94l55 18q23 -86 122 -85q166 8 170 293q-49 -86 -172 -88q-186 16 -200 231q12 230 205 242q228 2 226 -342q4 -393 -234 -388q-136 4 -172 119zM714 444q-3 204 -158 209
q-146 -5 -151 -184q5 -180 142 -185q157 8 167 160z" />
    <glyph glyph-name="uni249B" unicode="&#x249b;" 
d="M93 37h348v-52h-420v41q66 150 206 264q160 131 151 218q1 142 -144 141q-105 4 -141 -123l-60 16q50 165 215 163q181 -8 192 -187q1 -136 -162 -262q-130 -100 -185 -219zM988 83v-99h-86v99h86zM680 704q214 0 214 -364q-3 -359 -211 -365q-214 5 -216 365
q4 355 213 364zM681 27q155 -6 153 313q1 315 -156 312q-149 -6 -151 -312q-1 -315 154 -313z" />
    <glyph glyph-name="SF100000" unicode="&#x2500;" 
d="M0 375h1000v-51h-1000v51z" />
    <glyph glyph-name="uni2501" unicode="&#x2501;" 
d="M0 406h1000v-113h-1000v113z" />
    <glyph glyph-name="SF110000" unicode="&#x2502;" 
d="M474 850h51v-1000h-51v1000z" />
    <glyph glyph-name="uni2503" unicode="&#x2503;" 
d="M438 850h113v-1000h-113v1000z" />
    <glyph glyph-name="uni2504" unicode="&#x2504;" 
d="M54 375h220v-51h-220v51zM390 375h220v-51h-220v51zM726 375h220v-51h-220v51z" />
    <glyph glyph-name="uni2505" unicode="&#x2505;" 
d="M54 406h220v-113h-220v113zM390 406h220v-113h-220v113zM726 406h220v-113h-220v113z" />
    <glyph glyph-name="uni2506" unicode="&#x2506;" 
d="M469 796h51v-220h-51v220zM520 460v-220h-51v220h51zM520 124v-220h-51v220h51z" />
    <glyph glyph-name="uni2507" unicode="&#x2507;" 
d="M551 796v-220h-113v220h113zM551 460v-220h-113v220h113zM551 124v-220h-113v220h113z" />
    <glyph glyph-name="uni2508" unicode="&#x2508;" 
d="M47 375h156v-51h-156v51zM297 375h156v-51h-156v51zM547 375h156v-51h-156v51zM797 375h156v-51h-156v51z" />
    <glyph glyph-name="uni2509" unicode="&#x2509;" 
d="M47 406h156v-113h-156v113zM297 406h156v-113h-156v113zM547 406h156v-113h-156v113zM797 406h156v-113h-156v113z" />
    <glyph glyph-name="uni250A" unicode="&#x250a;" 
d="M520 803v-156h-51v156h51zM520 553v-156h-51v156h51zM520 303v-156h-51v156h51zM520 53v-156h-51v156h51z" />
    <glyph glyph-name="uni250B" unicode="&#x250b;" 
d="M551 803v-156h-113v156h113zM551 553v-156h-113v156h113zM551 303v-156h-113v156h113zM551 53v-156h-113v156h113z" />
    <glyph glyph-name="SF010000" unicode="&#x250c;" 
d="M1000 375v-51h-475v-474h-51v525h526z" />
    <glyph glyph-name="uni250D" unicode="&#x250d;" 
d="M1000 406v-113h-475v-443h-51v556h526z" />
    <glyph glyph-name="uni250E" unicode="&#x250e;" 
d="M1000 375v-51h-444v-474h-113v525h557z" />
    <glyph glyph-name="uni250F" unicode="&#x250f;" 
d="M1000 406v-113h-444v-443h-113v556h557z" />
    <glyph glyph-name="SF030000" unicode="&#x2510;" 
d="M0 324v51h525v-525h-51v474h-474z" />
    <glyph glyph-name="uni2511" unicode="&#x2511;" 
d="M0 406h525v-556h-51v443h-474v113z" />
    <glyph glyph-name="uni2512" unicode="&#x2512;" 
d="M0 375h556v-525h-113v474h-443v51z" />
    <glyph glyph-name="uni2513" unicode="&#x2513;" 
d="M0 406h556v-556h-113v443h-443v113z" />
    <glyph glyph-name="SF020000" unicode="&#x2514;" 
d="M525 850v-475h475v-51h-526v526h51z" />
    <glyph glyph-name="uni2515" unicode="&#x2515;" 
d="M525 850v-444h475v-113h-526v557h51z" />
    <glyph glyph-name="uni2516" unicode="&#x2516;" 
d="M556 850v-475h444v-51h-557v526h113z" />
    <glyph glyph-name="uni2517" unicode="&#x2517;" 
d="M556 850v-444h444v-113h-557v557h113z" />
    <glyph glyph-name="SF040000" unicode="&#x2518;" 
d="M0 375h474v475h51v-526h-525v51z" />
    <glyph glyph-name="uni2519" unicode="&#x2519;" 
d="M0 406h474v444h51v-557h-525v113z" />
    <glyph glyph-name="uni251A" unicode="&#x251a;" 
d="M0 375h443v475h113v-526h-556v51z" />
    <glyph glyph-name="uni251B" unicode="&#x251b;" 
d="M0 406h443v444h113v-557h-556v113z" />
    <glyph glyph-name="SF080000" unicode="&#x251c;" 
d="M525 850v-475h475v-51h-475v-474h-51v1000h51z" />
    <glyph glyph-name="uni251D" unicode="&#x251d;" 
d="M525 850v-444h475v-113h-475v-443h-51v1000h51z" />
    <glyph glyph-name="uni251E" unicode="&#x251e;" 
d="M556 850v-475h444v-51h-475v-474h-51v506h-31v494h113z" />
    <glyph glyph-name="uni251F" unicode="&#x251f;" 
d="M525 850v-475h475v-51h-444v-474h-113v494h31v506h51z" />
    <glyph glyph-name="uni2520" unicode="&#x2520;" 
d="M556 850v-475h444v-51h-444v-474h-113v1000h113z" />
    <glyph glyph-name="uni2521" unicode="&#x2521;" 
d="M556 850v-444h444v-113h-475v-443h-51v443h-31v557h113z" />
    <glyph glyph-name="uni2522" unicode="&#x2522;" 
d="M525 850v-444h475v-113h-444v-443h-113v556h31v444h51z" />
    <glyph glyph-name="uni2523" unicode="&#x2523;" 
d="M556 850v-444h444v-113h-444v-443h-113v1000h113z" />
    <glyph glyph-name="SF090000" unicode="&#x2524;" 
d="M525 850v-1000h-51v474h-474v51h474v475h51z" />
    <glyph glyph-name="uni2525" unicode="&#x2525;" 
d="M525 850v-1000h-51v443h-474v113h474v444h51z" />
    <glyph glyph-name="uni2526" unicode="&#x2526;" 
d="M556 850v-494h-31v-506h-51v474h-474v51h443v475h113z" />
    <glyph glyph-name="uni2527" unicode="&#x2527;" 
d="M525 850v-506h31v-494h-113v474h-443v51h474v475h51z" />
    <glyph glyph-name="uni2528" unicode="&#x2528;" 
d="M556 850v-1000h-113v474h-443v51h443v475h113z" />
    <glyph glyph-name="uni2529" unicode="&#x2529;" 
d="M556 850v-557h-31v-443h-51v443h-474v113h443v444h113z" />
    <glyph glyph-name="uni252A" unicode="&#x252a;" 
d="M525 850v-444h31v-556h-113v443h-443v113h474v444h51z" />
    <glyph glyph-name="uni252B" unicode="&#x252b;" 
d="M556 850v-1000h-113v443h-443v113h443v444h113z" />
    <glyph glyph-name="SF060000" unicode="&#x252c;" 
d="M0 375h1000v-51h-475v-474h-51v474h-474v51z" />
    <glyph glyph-name="uni252D" unicode="&#x252d;" 
d="M0 406h525v-31h475v-51h-475v-476h-51v445h-474v113z" />
    <glyph glyph-name="uni252E" unicode="&#x252e;" 
d="M0 375h474v31h526v-113h-475v-443h-51v474h-474v51z" />
    <glyph glyph-name="uni252F" unicode="&#x252f;" 
d="M0 406h1000v-113h-475v-443h-51v443h-474v113z" />
    <glyph glyph-name="uni2530" unicode="&#x2530;" 
d="M0 375h1000v-51h-444v-474h-113v474h-443v51z" />
    <glyph glyph-name="uni2531" unicode="&#x2531;" 
d="M0 406h556v-31h444v-51h-444v-474h-113v443h-443v113z" />
    <glyph glyph-name="uni2532" unicode="&#x2532;" 
d="M0 375h443v31h557v-113h-444v-443h-113v474h-443v51z" />
    <glyph glyph-name="uni2533" unicode="&#x2533;" 
d="M0 406h1000v-113h-444v-443h-113v443h-443v113z" />
    <glyph glyph-name="SF070000" unicode="&#x2534;" 
d="M0 375h474v475h51v-475h475v-51h-1000v51z" />
    <glyph glyph-name="uni2535" unicode="&#x2535;" 
d="M525 850v-475h475v-51h-475v-31h-525v113h474v444h51z" />
    <glyph glyph-name="uni2536" unicode="&#x2536;" 
d="M525 850v-444h475v-113h-526v31h-474v51h474v475h51z" />
    <glyph glyph-name="uni2537" unicode="&#x2537;" 
d="M525 850v-444h475v-113h-1000v113h474v444h51z" />
    <glyph glyph-name="uni2538" unicode="&#x2538;" 
d="M556 850v-475h444v-51h-1000v51h443v475h113z" />
    <glyph glyph-name="uni2539" unicode="&#x2539;" 
d="M556 850v-475h444v-51h-444v-31h-556v113h443v444h113z" />
    <glyph glyph-name="uni253A" unicode="&#x253a;" 
d="M556 850v-444h444v-113h-557v31h-443v51h443v475h113z" />
    <glyph glyph-name="uni253B" unicode="&#x253b;" 
d="M556 850v-444h444v-113h-1000v113h443v444h113z" />
    <glyph glyph-name="SF050000" unicode="&#x253c;" 
d="M525 850v-475h475v-51h-475v-474h-51v474h-474v51h474v475h51z" />
    <glyph glyph-name="uni253D" unicode="&#x253d;" 
d="M525 850v-475h475v-51h-475v-474h-51v443h-474v113h474v444h51z" />
    <glyph glyph-name="uni253E" unicode="&#x253e;" 
d="M525 850v-444h475v-113h-475v-443h-51v474h-474v51h474v475h51z" />
    <glyph glyph-name="uni253F" unicode="&#x253f;" 
d="M525 850v-444h475v-113h-475v-443h-51v443h-474v113h474v444h51z" />
    <glyph glyph-name="uni2540" unicode="&#x2540;" 
d="M556 850v-475h444v-51h-475v-474h-51v474h-474v51h443v475h113z" />
    <glyph glyph-name="uni2541" unicode="&#x2541;" 
d="M525 850v-475h475v-51h-444v-474h-113v474h-443v51h474v475h51z" />
    <glyph glyph-name="uni2542" unicode="&#x2542;" 
d="M556 850v-475h444v-51h-444v-474h-113v474h-443v51h443v475h113z" />
    <glyph glyph-name="uni2543" unicode="&#x2543;" 
d="M556 850v-475h444v-51h-475v-474h-51v443h-474v113h443v444h113z" />
    <glyph glyph-name="uni2544" unicode="&#x2544;" 
d="M556 850v-444h444v-113h-475v-443h-51v474h-474v51h443v475h113z" />
    <glyph glyph-name="uni2545" unicode="&#x2545;" 
d="M525 850v-475h475v-51h-444v-474h-113v443h-443v113h474v444h51z" />
    <glyph glyph-name="uni2546" unicode="&#x2546;" 
d="M525 850v-444h475v-113h-444v-443h-113v474h-443v51h474v475h51z" />
    <glyph glyph-name="uni2547" unicode="&#x2547;" 
d="M556 850v-444h444v-113h-475v-443h-51v443h-474v113h443v444h113z" />
    <glyph glyph-name="uni2548" unicode="&#x2548;" 
d="M525 850v-444h475v-113h-444v-443h-113v443h-443v113h474v444h51z" />
    <glyph glyph-name="uni2549" unicode="&#x2549;" 
d="M556 850v-475h444v-51h-444v-474h-113v443h-443v113h443v444h113z" />
    <glyph glyph-name="uni254A" unicode="&#x254a;" 
d="M556 850v-444h444v-113h-444v-443h-113v474h-443v51h443v475h113z" />
    <glyph glyph-name="uni254B" unicode="&#x254b;" 
d="M556 850v-444h444v-113h-444v-443h-113v443h-443v113h443v444h113z" />
    <glyph glyph-name="filledbox" unicode="&#x25a0;" 
d="M900 -64h-800v800h800v-800z" />
    <glyph glyph-name="H22073" unicode="&#x25a1;" 
d="M900 -64h-800v800h800v-800zM144 692v-712h712v712h-712z" />
    <glyph glyph-name="triagup" unicode="&#x25b2;" 
d="M865 0h-730l365 736z" />
    <glyph glyph-name="uni25B3" unicode="&#x25b3;" 
d="M500 639l-295 -597h590zM865 0h-730l365 736z" />
    <glyph glyph-name="uni25C6" unicode="&#x25c6;" 
d="M500 -7l-375 375l375 375l375 -375z" />
    <glyph glyph-name="uni25C7" unicode="&#x25c7;" 
d="M500 51l317 317l-317 317l-317 -317zM500 -7l-375 375l375 375l375 -375z" />
    <glyph glyph-name="circle" unicode="&#x25cb;" 
d="M500 34q293 27 320 322q-27 295 -320 322q-293 -27 -320 -322q27 -295 320 -322zM500 720q332 -32 364 -364q-32 -332 -364 -364q-332 32 -364 364q32 332 364 364z" />
    <glyph glyph-name="uni25CE" unicode="&#x25ce;" 
d="M501 720q331 -32 363 -363q-32 -333 -363 -365q-334 32 -366 365q32 331 366 363zM501 694q-311 -29 -341 -337q29 -310 341 -339q308 30 338 339q-30 307 -338 337zM501 608q230 -22 252 -250q-22 -229 -252 -251q-232 22 -254 251q22 228 254 250zM501 581
q-209 -19 -228 -223q19 -205 228 -224q206 19 225 224q-19 204 -225 223z" />
    <glyph glyph-name="H18533" unicode="&#x25cf;" 
d="M500 720q332 -32 364 -364q-32 -332 -364 -364q-332 32 -364 364q32 332 364 364z" />
    <glyph glyph-name="uni2605" unicode="&#x2605;" 
d="M500 698l92 -271h280l-226 -174l81 -270l-227 160l-227 -160l81 270l-226 174h280z" />
    <glyph glyph-name="uni2606" unicode="&#x2606;" 
d="M323 47l176 133l178 -129l2 2l-69 211l181 133v2h-223l-68 213h-2l-69 -213h-219v-2l175 -133l-64 -215zM499 698l93 -271h280l-226 -174l81 -270l-228 166l-227 -166l80 270l-224 174h279z" />
    <glyph glyph-name="female" unicode="&#x2640;" 
d="M323 504q14 -162 177 -177q163 15 177 177q-14 162 -177 177q-163 -15 -177 -177zM330 76v44h148v165q-184 32 -199 219q19 202 221 221q202 -19 221 -221q-15 -187 -199 -219v-165h148v-44h-148v-121h-44v121h-148z" />
    <glyph glyph-name="male" unicode="&#x2642;" 
d="M323 178q14 -162 177 -177q163 15 177 177q-14 162 -177 177q-163 -15 -177 -177zM328 536l-12 17q6 5 19 14q120 88 156 157h20q39 -75 174 -164l-11 -23q-88 37 -152 98v-237q184 -33 199 -220q-19 -202 -221 -221q-202 19 -221 221q15 186 199 220v236
q-65 -56 -150 -98z" />
    <glyph glyph-name="uni3000" unicode="&#x3000;" 
 />
    <glyph glyph-name="uni3001" unicode="&#x3001;" 
d="M352 -22l-52 -47l-151 169l48 41z" />
    <glyph glyph-name="uni3002" unicode="&#x3002;" 
d="M189 32q4 -55 60 -59q58 3 61 59q-3 59 -61 62q-57 -3 -60 -62zM147 32q8 96 102 104q95 -7 103 -104q-5 -95 -103 -101q-94 8 -102 101z" />
    <glyph glyph-name="uni3003" unicode="&#x3003;" 
d="M257 140l205 436h69l-215 -436h-59zM471 140l206 436h68l-215 -436h-59z" />
    <glyph glyph-name="uni3005" unicode="&#x3005;" 
d="M168 193l-45 35q160 213 258 503l60 -17q-49 -140 -85 -213h461v-56l-243 -334l137 -91l-33 -47l-346 228l37 45l155 -101l221 300h-417q-78 -146 -160 -252z" />
    <glyph glyph-name="uni3008" unicode="&#x3008;" 
d="M732 697l-203 -345l203 -347v-114l-271 460l271 460v-114z" />
    <glyph glyph-name="uni3009" unicode="&#x3009;" 
d="M268 697v114l271 -460l-271 -460v114l203 347z" />
    <glyph glyph-name="uni300A" unicode="&#x300a;" 
d="M805 696l-203 -345l203 -347v-114l-271 460l271 460v-114zM657 696l-203 -345l203 -347v-114l-271 460l271 460v-114z" />
    <glyph glyph-name="uni300B" unicode="&#x300b;" 
d="M192 696v114l271 -460l-271 -460v114l203 347zM340 696v114l271 -460l-271 -460v114l203 347z" />
    <glyph glyph-name="uni300C" unicode="&#x300c;" 
d="M468 -109v920h219v-47h-159v-873h-60z" />
    <glyph glyph-name="uni300D" unicode="&#x300d;" 
d="M532 811v-920h-219v47h159v873h60z" />
    <glyph glyph-name="uni300E" unicode="&#x300e;" 
d="M732 811v-117h-175v-803h-115v920h290zM708 718v69h-241v-872h66v803h175z" />
    <glyph glyph-name="uni300F" unicode="&#x300f;" 
d="M267 -109v117h175v803h117v-920h-292zM291 -16v-69h241v872h-66v-803h-175z" />
    <glyph glyph-name="uni3010" unicode="&#x3010;" 
d="M682 -109h-230v920h229q-134 -176 -137 -457q-1 -294 138 -463z" />
    <glyph glyph-name="uni3011" unicode="&#x3011;" 
d="M310 811h233v-920h-234q139 169 138 463q-3 281 -137 457z" />
    <glyph glyph-name="uni3013" unicode="&#x3013;" 
d="M214 610h571v-156h-571v156zM214 286h571v-156h-571v156z" />
    <glyph glyph-name="uni3014" unicode="&#x3014;" 
d="M690 -108l-220 50v819l219 50v-47l-159 -50v-724l160 -51v-47z" />
    <glyph glyph-name="uni3015" unicode="&#x3015;" 
d="M310 -62l160 51v725l-159 50v47l219 -50v-820l-220 -50v47z" />
    <glyph glyph-name="uni3016" unicode="&#x3016;" 
d="M442 -110v920h251q-123 -188 -137 -449q6 -279 156 -471h-270zM462 790v-880h213q-135 178 -139 451q6 234 121 429h-195z" />
    <glyph glyph-name="uni3017" unicode="&#x3017;" 
d="M557 -110h-270q150 192 156 471q-14 261 -137 449h251v-920zM537 790h-195q115 -195 121 -429q-4 -273 -139 -451h213v880z" />
    <glyph glyph-name="uni3041" unicode="&#x3041;" 
d="M205 443v52h178q0 28 2 88q0 -4 0 8l56 -1l-5 -95h341v-52h-343v-58q-1 -38 -1 -59q55 18 160 17l15 55l54 -10l-15 -52q167 -38 168 -200q-1 -194 -282 -226l-26 53q252 14 254 176q-2 121 -130 152q-134 -316 -338 -350q-111 2 -113 114q11 164 201 252q-1 10 -1 34v34
v68h-175zM232 55q1 -60 57 -61q60 -1 118 58q-20 102 -24 203q-146 -80 -151 -200zM578 298q-75 2 -143 -22q2 -101 17 -180q84 95 126 202z" />
    <glyph glyph-name="uni3042" unicode="&#x3042;" 
d="M888 208v-1q-3 -234 -345 -278l-26 54q311 21 314 227q-4 158 -171 195q-164 -383 -427 -438q-125 2 -128 138q11 199 251 312q-4 73 0 178h-221v55h222l5 120h59l-7 -119h427v-55h-428q-1 -40 -1 -117v-41q102 30 208 24l19 68l57 -11l-19 -66q206 -48 211 -245z
M436 144q111 117 167 266q-89 8 -191 -27q3 -132 24 -239zM233 22q77 1 156 78q-23 112 -29 263q-194 -103 -200 -261q3 -76 73 -80z" />
    <glyph glyph-name="uni3043" unicode="&#x3043;" 
d="M205 297q0 89 6 224h60q-11 -121 -11 -208q-1 -183 32 -255q26 -61 63 -63q54 -1 108 173l43 -38q-68 -200 -151 -192q-67 3 -111 100q-39 92 -39 259zM602 430l45 31q142 -137 181 -403l-58 -17q-25 244 -168 389z" />
    <glyph glyph-name="uni3044" unicode="&#x3044;" 
d="M137 404q0 140 7 292h61q-6 -66 -8 -131q-1 -32 -2 -67v-80q-1 -196 41 -298q32 -76 83 -81q71 4 135 214l47 -42q-80 -234 -182 -233q-84 2 -135 122q-47 113 -47 304zM635 587l48 32q169 -174 221 -493l-62 -17q-34 306 -207 478z" />
    <glyph glyph-name="uni3045" unicode="&#x3045;" 
d="M314 519l11 53q210 -5 383 -37l-10 -53q-161 33 -384 37zM215 296l-10 54q224 44 325 41q219 -4 224 -180q-7 -249 -402 -291l-26 52q367 28 372 238q-3 127 -161 129q-110 2 -322 -43z" />
    <glyph glyph-name="uni3046" unicode="&#x3046;" 
d="M274 691l12 56q253 -6 472 -48l-16 -54q-221 44 -468 46zM150 414l-12 57q261 51 404 50q262 -6 271 -215q-5 -309 -495 -363l-29 55q462 37 464 307q-7 157 -200 162q-150 2 -403 -53z" />
    <glyph glyph-name="uni3047" unicode="&#x3047;" 
d="M207 -85l-41 47q216 206 400 378l-337 -18l-2 53l411 19l27 -41q-96 -76 -209 -185q18 4 33 4q79 -3 98 -89l10 -52q5 -36 29 -46q22 -11 93 -11q68 -1 126 7v-55q-4 0 -13 -1q-67 -5 -117 -5q-91 0 -126 21q-36 19 -46 78l-8 45q-11 64 -57 63q-62 15 -271 -212z
M339 518l18 51q196 -16 361 -52l-17 -52q-157 39 -362 53z" />
    <glyph glyph-name="uni3048" unicode="&#x3048;" 
d="M305 690l20 55q257 -23 442 -67l-18 -54q-213 49 -444 66zM134 -61l-47 48q23 22 68 65q304 290 440 416l-428 -23l-4 57l506 24l30 -47q-58 -47 -168 -149q-68 -62 -103 -93q33 11 58 11q82 -5 111 -86q9 -28 23 -104q6 -35 38 -46q30 -12 116 -12q73 0 152 9v-58
q-67 -6 -158 -6q-117 0 -156 22q-42 21 -52 88q-13 83 -24 104q-19 43 -65 41q-62 0 -136 -60h1q-54 -45 -202 -201z" />
    <glyph glyph-name="uni3049" unicode="&#x3049;" 
d="M182 55q10 89 180 170v179h-176v53h176v127h53v-127h182v-53h-182v-158q103 36 189 36q190 -5 196 -165q2 -180 -263 -189l-17 53q228 0 226 139q-3 111 -142 113q-91 0 -189 -40v-201q1 -63 -58 -62q-156 13 -175 125zM234 55q16 -61 116 -71q13 -2 12 18v168
q-125 -65 -128 -115zM628 497l36 38q121 -80 197 -162l-39 -42q-106 116 -194 166z" />
    <glyph glyph-name="uni304A" unicode="&#x304a;" 
d="M108 107q10 106 225 208v233h-220v55h220v160h56v-160h227v-55h-227v-210q127 48 247 47q223 -9 234 -196q4 -227 -323 -236l-18 56q286 -2 284 180q-7 141 -179 145q-115 0 -245 -51v-256q0 -73 -75 -73q-187 27 -206 153zM163 106q23 -77 144 -95q29 -3 26 29v220
q-163 -85 -170 -154zM667 659l38 40q130 -77 235 -191l-38 -47q-99 118 -235 198z" />
    <glyph glyph-name="uni304B" unicode="&#x304b;" 
d="M158 -51l-53 26q131 271 195 533q-75 -3 -209 -15l-2 54q24 2 72 5q100 7 151 10q19 75 43 208l59 -10q-26 -131 -43 -196q18 0 51 1q34 2 54 2q166 4 163 -175q0 -204 -29 -318q-28 -123 -128 -116q-80 0 -136 5l-12 59q67 -9 145 -9q35 -1 49 16q16 17 30 69
q25 94 25 290q3 131 -103 127q-39 0 -112 -4h-10q-66 -263 -200 -562zM926 313l-53 -33q-81 226 -204 374l49 26q125 -152 208 -367z" />
    <glyph glyph-name="uni304C" unicode="&#x304c;" 
d="M865 661l-40 -28q-52 75 -109 129l40 29q55 -52 109 -130zM944 715l-40 -28q-33 54 -105 126q23 18 38 29q70 -72 107 -127zM153 -56l-53 26q131 271 195 533q-75 -3 -209 -15l-2 54q24 2 72 5q100 7 151 10q19 75 43 208l59 -10q-26 -131 -43 -196q18 0 51 1q34 2 54 2
q166 4 163 -175q0 -204 -29 -318q-28 -123 -128 -116q-80 0 -136 5l-12 59q67 -9 145 -9q35 -1 49 16q16 17 30 69q25 94 25 290q3 131 -103 127q-39 0 -112 -4h-10q-66 -263 -200 -562zM921 308l-53 -33q-81 226 -204 374l49 26q125 -152 208 -367z" />
    <glyph glyph-name="uni304D" unicode="&#x304d;" 
d="M142 640l328 11l-40 113l56 6q19 -60 41 -116l305 12l2 -53l-288 -11q28 -67 57 -124q19 0 219 9q24 1 37 2l2 -54l-230 -8q81 -135 174 -218l-32 -41q-146 87 -317 87q-207 -7 -225 -122q11 -125 247 -131q133 0 276 23l-5 -58q-133 -21 -261 -20q-307 6 -315 184
q14 162 281 175q118 -2 226 -41q-61 75 -106 160l-408 -16l-1 52l383 14l-6 12q-32 66 -52 114l-347 -13z" />
    <glyph glyph-name="uni304E" unicode="&#x304e;" 
d="M772 748l40 30q67 -68 106 -133l-39 -28q-54 79 -107 131zM854 800l39 27q60 -59 105 -128l-39 -28q-31 53 -105 129zM132 635l328 11l-40 113l56 6q19 -60 41 -116l301 12l2 -53l-284 -11q28 -67 57 -124q19 0 219 9q24 1 37 2l2 -54l-230 -8q81 -135 174 -218l-32 -41
q-146 87 -317 87q-207 -7 -225 -122q11 -125 247 -131q133 0 276 23l-5 -58q-133 -21 -261 -20q-307 6 -315 184q14 162 281 175q112 -1 228 -42q-61 77 -108 161l-408 -16l-1 52l383 14l-6 12q-32 66 -52 114l-347 -13z" />
    <glyph glyph-name="uni304F" unicode="&#x304f;" 
d="M194 355q1 35 49 69q257 177 449 343l45 -43q-181 -153 -464 -346q-14 -10 -14 -18q-1 -9 14 -18q302 -191 509 -371l-45 -45q-216 185 -496 366q-47 29 -47 63z" />
    <glyph glyph-name="uni3050" unicode="&#x3050;" 
d="M189 355q1 35 49 69q257 177 449 343l45 -43q-181 -153 -464 -346q-14 -10 -14 -18q-1 -9 14 -18q302 -191 509 -371l-45 -45q-216 185 -496 366q-47 29 -47 63zM678 578l40 29q55 -52 109 -130l-39 -28q-57 81 -110 129zM760 630l39 27q60 -59 107 -126l-39 -28
q-37 59 -107 127z" />
    <glyph glyph-name="uni3051" unicode="&#x3051;" 
d="M152 278q0 236 39 462l59 -6q-40 -218 -40 -456q0 -153 16 -307l-59 -6q-15 166 -15 313zM385 550h303q0 71 -2 199h61l1 -199h177v-53h-177v-167q21 -338 -281 -409l-34 54q157 39 205 114q53 70 51 253v155h-304v53z" />
    <glyph glyph-name="uni3052" unicode="&#x3052;" 
d="M147 273q0 236 39 462l59 -6q-40 -218 -40 -456q0 -153 16 -307l-59 -6q-15 166 -15 313zM776 764l40 22q48 -56 93 -138l-41 -22q-53 91 -92 138zM861 807l39 22q49 -55 90 -135l-40 -23q-37 73 -89 136zM380 545h303q0 71 -2 199h60q0 -27 1 -80q0 -79 1 -119h177v-53
h-177v-167q21 -338 -281 -409l-34 54q157 39 205 114q53 70 51 253v155h-304v53z" />
    <glyph glyph-name="uni3053" unicode="&#x3053;" 
d="M148 178q-2 75 64 168l54 -22q-62 -82 -60 -144q7 -130 272 -132q197 0 364 36l5 -60q-93 -18 -177 -25q-80 -7 -189 -7q-331 1 -333 186zM216 676h578v-57h-578v57z" />
    <glyph glyph-name="uni3054" unicode="&#x3054;" 
d="M143 173q-2 75 64 168l56 -22q-64 -83 -62 -144q7 -130 272 -132q197 0 364 36l5 -60q-93 -18 -177 -25q-80 -7 -189 -7q-331 1 -333 186zM211 671h578v-57h-578v57zM766 752l40 29q55 -52 109 -130l-39 -28q-57 81 -110 129zM848 804l39 27q60 -59 107 -126l-39 -28
q-37 59 -107 127z" />
    <glyph glyph-name="uni3055" unicode="&#x3055;" 
d="M124 606l374 13q-29 72 -53 141l59 10q33 -104 52 -149q53 1 161 5t160 6l2 -55l-299 -11q96 -199 226 -306l-34 -46q-153 96 -334 93q-207 -8 -219 -142q11 -151 276 -156q117 0 256 14l-13 -59q-116 -10 -243 -10q-327 4 -334 209q13 181 277 197q129 2 235 -42
q-80 88 -152 247q-65 -2 -198 -7t-198 -7z" />
    <glyph glyph-name="uni3056" unicode="&#x3056;" 
d="M119 601l374 13q-29 72 -53 141l59 10q33 -104 52 -149q53 1 161 5t160 6l2 -55l-299 -11q96 -199 226 -306l-34 -46q-153 96 -334 93q-207 -8 -219 -142q11 -151 276 -156q117 0 256 14l-13 -59q-116 -10 -243 -10q-327 4 -334 209q13 181 277 197q128 1 240 -45
q-90 104 -157 250l-396 -14zM721 790l40 28q66 -67 104 -129l-39 -28q-42 66 -105 129zM811 825l39 26q57 -57 102 -125l-39 -28q-32 60 -102 127z" />
    <glyph glyph-name="uni3057" unicode="&#x3057;" 
d="M221 182l17 569h65l-21 -577q7 -160 175 -165q250 0 393 307l41 -51q-160 -303 -437 -313q-239 2 -233 230z" />
    <glyph glyph-name="uni3058" unicode="&#x3058;" 
d="M221 182l17 569h65l-21 -577q7 -160 175 -165q250 0 393 307l41 -51q-160 -303 -437 -313q-239 2 -233 230zM699 729l39 28q63 -62 109 -128l-42 -31q-36 61 -106 131zM617 676l39 28q63 -62 109 -128l-42 -31q-36 61 -106 131z" />
    <glyph glyph-name="uni3059" unicode="&#x3059;" 
d="M80 634h482v137h57v-137h302v-55h-302v-102q-1 -68 -1 -102q28 -75 28 -142q-3 -265 -390 -301l-26 56q205 9 294 88q71 65 67 167q-55 -89 -152 -92q-168 7 -177 160q13 155 188 166q64 0 114 -39v70q-1 46 -1 71h-483v55zM319 312q7 -102 122 -108q115 12 125 125
q-10 91 -115 96q-122 -6 -132 -113z" />
    <glyph glyph-name="uni305A" unicode="&#x305a;" 
d="M314 303q7 -102 122 -108q114 12 125 126q-9 90 -115 95q-122 -6 -132 -113zM845 823l39 27q57 -58 102 -126l-39 -28q-38 63 -102 127zM75 625h482v137h57v-137h302v-55h-302v-102q-1 -68 -1 -102q28 -75 28 -142q-3 -265 -390 -301l-26 56q205 9 294 88q73 65 66 166
q-54 -88 -151 -91q-168 7 -177 160q13 155 188 166q64 0 114 -39v70q-1 46 -1 71h-483v55zM757 786l39 28q58 -61 102 -127l-39 -28q-38 63 -102 127z" />
    <glyph glyph-name="uni305B" unicode="&#x305b;" 
d="M664 745h58v-207l208 4v-55l-208 -3v-136q5 -143 -119 -137h-64q-25 0 -53 1l-10 59q44 -2 125 -2q67 -6 63 78v136l-347 -6v-279q-3 -109 45 -139q45 -35 197 -34q139 0 278 22l4 -59q-136 -18 -282 -18q-180 -2 -238 46q-64 44 -62 179v281l-196 -4v54l196 4v203h58
v-202l347 7v207z" />
    <glyph glyph-name="uni305C" unicode="&#x305c;" 
d="M664 745h58v-207l208 4v-55l-208 -3v-136q5 -143 -119 -137h-64q-25 0 -53 1l-10 59q44 -2 125 -2q67 -6 63 78v136l-347 -6v-279q-3 -109 45 -139q45 -35 197 -34q139 0 278 22l4 -59q-136 -18 -282 -18q-180 -2 -238 46q-64 44 -62 179v281l-196 -4v54l196 4v203h58
v-202l347 7v207zM979 690l-39 -20q-36 69 -90 133l40 23q44 -49 89 -136zM898 644l-40 -23q-45 81 -93 139l39 22q54 -65 94 -138z" />
    <glyph glyph-name="uni305D" unicode="&#x305d;" 
d="M77 356l152 24q235 142 423 293l-430 -11v55l508 12l24 -39q-209 -166 -420 -295q257 37 570 58l4 -55q-191 -2 -337 -83q-136 -79 -139 -180q6 -133 282 -136q42 0 74 1v-56q-23 -1 -68 -1q-337 4 -344 191q5 148 239 250q-311 -42 -531 -82z" />
    <glyph glyph-name="uni305E" unicode="&#x305e;" 
d="M749 759l39 28q62 -67 105 -130l-39 -28q-47 71 -105 130zM835 804l38 28q66 -69 103 -128l-38 -27q-43 67 -103 127zM72 351l152 24q235 142 423 293l-430 -11v55l508 12l24 -39q-209 -166 -420 -295q257 37 570 58l4 -55q-191 -2 -337 -83q-136 -79 -139 -180
q6 -133 282 -136q45 0 74 1v-56q-23 -1 -68 -1q-337 4 -344 191q5 148 239 250q-311 -42 -531 -82z" />
    <glyph glyph-name="uni305F" unicode="&#x305f;" 
d="M166 -47l-60 25q127 271 199 588h-215v54h226q12 62 24 148l64 -6q-13 -80 -26 -142h214v-54h-227q-75 -328 -199 -613zM714 -37q-260 1 -264 150q-1 57 40 125l54 -21q-37 -56 -36 -100q-1 -98 204 -98q111 0 194 11v-58q-81 -9 -192 -9zM516 403l-5 55q116 16 244 16
q65 0 128 -6v-55q-78 6 -139 6q-128 0 -228 -16z" />
    <glyph glyph-name="uni3060" unicode="&#x3060;" 
d="M161 -47l-60 25q127 271 199 588h-215v54h226q12 62 24 148l64 -6q-13 -80 -26 -142h214v-54h-227q-75 -328 -199 -613zM709 -37q-260 1 -264 150q-1 57 40 125l54 -21q-37 -56 -36 -100q-1 -98 204 -98q111 0 194 11v-58q-81 -9 -192 -9zM511 403l-5 55q116 16 244 16
q65 0 128 -6v-55q-78 6 -139 6q-128 0 -228 -16zM877 612l-40 -29q-55 83 -108 133l41 32q2 -2 6 -7q65 -70 101 -129zM959 667l-41 -30q-38 64 -105 132l39 30q50 -53 107 -132z" />
    <glyph glyph-name="uni3061" unicode="&#x3061;" 
d="M109 614h281q22 82 37 152l59 -6q-17 -82 -37 -146h412v-55h-429q-55 -155 -130 -270q155 99 307 99q237 -11 249 -199q-7 -235 -417 -238q-90 0 -150 3l-17 61q83 -9 170 -9q348 2 354 182q-5 144 -194 148q-193 2 -401 -183l-37 41q124 126 207 365h-264v55z" />
    <glyph glyph-name="uni3062" unicode="&#x3062;" 
d="M705 768l40 28q49 -54 104 -129l-39 -28q-57 82 -105 129zM795 803l39 28q58 -61 102 -127l-39 -28q-31 58 -102 127zM104 609h281q22 82 37 152l59 -6q-17 -82 -37 -146h412v-55h-429q-55 -155 -130 -270q155 99 307 99q237 -11 249 -199q-7 -235 -417 -238
q-90 0 -150 3l-17 61q83 -9 170 -9q348 2 354 182q-5 144 -194 148q-193 2 -401 -183l-37 41q124 126 207 365h-264v55z" />
    <glyph glyph-name="uni3063" unicode="&#x3063;" 
d="M169 367l-10 58q271 59 406 56q240 -9 250 -217q-6 -169 -177 -254q-106 -45 -275 -58l-24 57q173 12 274 52q143 69 145 202q-4 161 -197 164q-114 3 -392 -60z" />
    <glyph glyph-name="uni3064" unicode="&#x3064;" 
d="M93 516l-13 60q335 73 507 70q283 -11 301 -261q3 -345 -558 -391l-23 62q524 27 520 328q-10 198 -241 205q-172 3 -493 -73z" />
    <glyph glyph-name="uni3065" unicode="&#x3065;" 
d="M737 729l40 30q67 -68 106 -133l-39 -28q-54 79 -107 131zM819 781l39 27q60 -59 105 -128l-39 -28q-31 53 -105 129zM88 511l-13 60q335 73 507 70q283 -11 301 -261q3 -345 -558 -391l-23 62q524 27 520 328q-10 198 -241 205q-172 3 -493 -73z" />
    <glyph glyph-name="uni3066" unicode="&#x3066;" 
d="M97 660l794 39v-59q-114 0 -197 -30h1q-275 -122 -294 -339q-4 -252 403 -258v-60q-461 11 -462 318q15 231 299 367l-542 -35z" />
    <glyph glyph-name="uni3067" unicode="&#x3067;" 
d="M726 499l41 30q65 -66 107 -132l-39 -28q-53 77 -109 130zM813 553l39 27q61 -58 107 -128l-40 -28q-37 62 -106 129zM97 660l794 39v-59q-114 0 -197 -30h1q-275 -122 -294 -339q-4 -252 403 -258v-60q-461 11 -462 318q15 231 299 367l-542 -35z" />
    <glyph glyph-name="uni3068" unicode="&#x3068;" 
d="M160 164q-4 159 249 272q-68 171 -130 308l51 19q71 -151 133 -304q142 59 348 119l16 -57q-303 -83 -458 -166h1q-147 -87 -150 -190q-12 -146 338 -139q135 0 285 16v-62q-138 -10 -290 -10q-406 -7 -393 194z" />
    <glyph glyph-name="uni3069" unicode="&#x3069;" 
d="M155 159q-4 159 249 272q-68 171 -130 308l51 19q71 -151 133 -304q120 53 348 119l16 -57q-303 -83 -458 -166h1q-147 -87 -150 -190q-12 -146 338 -139q135 0 285 16v-62q-138 -10 -290 -10q-406 -7 -393 194zM691 729l40 28q63 -64 106 -127l-39 -29q-44 64 -107 128z
M776 776l39 28q65 -67 104 -125l-39 -28q-37 63 -104 125z" />
    <glyph glyph-name="uni306A" unicode="&#x306a;" 
d="M522 -61q-176 6 -184 140q11 127 180 139q62 0 134 -20l-9 267h57l9 -285q105 -43 211 -131l-28 -52q-96 85 -181 125q2 -182 -189 -183zM522 -7q134 -2 132 122l-1 29q-69 22 -128 22q-126 -4 -133 -87q6 -83 130 -86zM150 93l-56 31q117 193 188 435h-194v55h208
q21 73 33 154l61 -6q-16 -86 -33 -148h176v-55h-191q-70 -239 -192 -466zM922 538l-31 -48q-131 68 -270 118l30 47q130 -45 271 -117z" />
    <glyph glyph-name="uni306B" unicode="&#x306b;" 
d="M132 242q0 255 55 507l62 -8q-60 -250 -60 -503q0 -135 21 -287l-60 -5q-18 147 -18 296zM363 165q-2 51 37 121l53 -21q-33 -53 -33 -94q-5 -115 236 -114q122 0 239 15l4 -59q-124 -13 -250 -13q-281 1 -286 165zM407 634h463v-57h-463v57z" />
    <glyph glyph-name="uni306C" unicode="&#x306c;" 
d="M88 160q6 181 143 311q-27 80 -59 210l59 12q19 -93 46 -186q115 89 257 97q13 85 18 145l60 -5q-9 -78 -21 -138q280 -19 295 -312q1 -96 -23 -162q40 -32 101 -93l-39 -48q-33 39 -83 89q-64 -121 -198 -123q-141 8 -151 126q13 123 162 133q79 0 161 -51q16 49 15 133
q-11 250 -251 260q-55 -247 -196 -447q-86 -118 -178 -117q-115 6 -118 166zM143 171q0 -121 69 -122q69 5 150 122q-64 112 -113 244q-99 -105 -106 -244zM293 456q42 -128 102 -232q86 151 129 331q-125 -13 -231 -99zM547 84q4 -72 99 -76q103 2 154 105q-72 50 -145 52
q-100 -5 -108 -81z" />
    <glyph glyph-name="uni306D" unicode="&#x306d;" 
d="M103 107l-40 41q123 158 192 233q0 41 2 115v16h-177v52h180q1 83 5 205h58q-9 -184 -11 -328q208 218 345 212q198 -6 202 -332q0 -118 -12 -183q60 -48 108 -107l-40 -43q-34 48 -85 93q-56 -120 -196 -124q-155 7 -163 129q10 125 169 134q80 1 156 -47q3 21 4 50
q1 13 1 33v54q-4 285 -144 290q-119 8 -347 -241q-3 -214 3 -429h-61v368q-40 -47 -125 -160q-16 -21 -24 -31zM524 89q6 -75 107 -79q115 3 154 110q-74 50 -145 49q-108 -5 -116 -80z" />
    <glyph glyph-name="uni306E" unicode="&#x306e;" 
d="M98 286q31 388 431 411q347 -17 366 -352q1 -313 -369 -386l-30 54q345 61 339 333q-14 278 -291 298q-28 -292 -124 -480q-69 -131 -168 -132q-150 10 -154 254zM156 288q4 -188 98 -198q65 1 115 99q91 178 118 452q-312 -47 -331 -353z" />
    <glyph glyph-name="uni306F" unicode="&#x306f;" 
d="M137 239q-1 246 47 511l59 -6q-48 -239 -47 -496q0 -142 15 -300l-59 -6q-15 163 -15 297zM357 90q10 129 188 138q66 0 133 -23q0 55 -2 161q-2 105 -3 161h-304v55h303l-3 171h59l2 -171h189v-55h-189l4 -345q97 -45 190 -131l-37 -49q-90 89 -153 124q-3 -80 -41 -121
q-52 -51 -157 -51q-171 8 -179 136zM414 90q7 -78 121 -83q152 -3 144 142q-67 27 -132 26q-127 -3 -133 -85z" />
    <glyph glyph-name="uni3070" unicode="&#x3070;" 
d="M132 234q-1 246 47 511l59 -6q-48 -239 -47 -496q0 -142 15 -300l-59 -6q-15 163 -15 297zM352 85q10 129 188 138q66 0 133 -23q0 55 -2 161q-2 105 -3 161h-304v55h303l-3 171h59l2 -171h189v-55h-189l4 -345q97 -45 190 -131l-37 -49q-90 89 -153 124q-3 -80 -41 -121
q-52 -51 -157 -51q-171 8 -179 136zM409 85q7 -78 121 -83q152 -3 144 142q-67 27 -132 26q-127 -3 -133 -85zM768 771l40 22q48 -56 93 -138l-41 -22q-53 91 -92 138zM853 814l39 22q49 -55 90 -135l-40 -23q-37 73 -89 136z" />
    <glyph glyph-name="uni3071" unicode="&#x3071;" 
d="M409 85q7 -78 121 -83q152 -3 144 142q-67 27 -132 26q-127 -3 -133 -85zM778 734q9 92 101 101q93 -9 102 -101q-9 -93 -102 -102q-92 9 -101 102zM820 734q5 -55 59 -60q55 5 60 60q-5 54 -60 59q-53 -6 -59 -59zM132 234q-1 246 47 511l59 -6q-48 -239 -47 -496
q0 -142 15 -300l-59 -6q-15 163 -15 297zM352 85q10 129 188 138q66 0 133 -23q0 55 -2 161q-2 105 -3 161h-304v55h303l-3 171h59l2 -171h189v-55h-189l4 -345q97 -45 190 -131l-37 -49q-90 89 -153 124q-3 -80 -41 -121q-52 -51 -157 -51q-171 8 -179 136z" />
    <glyph glyph-name="uni3072" unicode="&#x3072;" 
d="M115 697h333l18 -48q-46 -18 -84 -47q-177 -153 -186 -355q5 -231 227 -237q251 14 262 306q0 233 -62 377l51 21q116 -202 272 -324l-36 -48q-121 108 -202 237q32 -140 34 -265q-13 -341 -318 -361q-280 5 -284 294q12 233 220 398h-245v52z" />
    <glyph glyph-name="uni3073" unicode="&#x3073;" 
d="M724 723l40 29q55 -52 109 -130l-39 -28q-57 81 -110 129zM806 775l39 27q60 -59 107 -126l-39 -28q-37 59 -107 127zM110 691h333l18 -48q-46 -18 -84 -47q-177 -153 -186 -355q5 -231 227 -237q251 14 262 306q0 233 -62 377l51 21q116 -202 272 -324l-36 -48
q-121 108 -202 237q32 -140 34 -265q-13 -341 -318 -361q-280 5 -284 294q12 233 220 398h-245v52z" />
    <glyph glyph-name="uni3074" unicode="&#x3074;" 
d="M758 701q9 92 101 101q93 -9 102 -101q-9 -93 -102 -102q-92 9 -101 102zM800 701q5 -55 59 -60q55 5 60 60q-5 54 -60 59q-53 -6 -59 -59zM110 691h333l18 -48q-46 -18 -84 -47q-177 -153 -186 -355q5 -231 227 -237q251 14 262 306q0 233 -62 377l51 21
q116 -202 272 -324l-36 -48q-121 108 -202 237q32 -140 34 -265q-13 -341 -318 -361q-280 5 -284 294q12 233 220 398h-245v52z" />
    <glyph glyph-name="uni3075" unicode="&#x3075;" 
d="M260 668l13 54q242 -22 485 -73l-15 -53q-248 56 -483 72zM755 387l52 18q79 -148 122 -354l-55 -20q-40 204 -119 356zM135 9l-55 24q76 187 96 337l59 -12q-34 -178 -100 -349zM481 -44q-104 -1 -206 59l2 66q104 -69 200 -69q133 2 135 102q3 76 -100 156
q-108 79 -104 153q-1 51 41 112l57 -14q-43 -54 -42 -96q-3 -48 77 -109q131 -97 128 -202q-7 -153 -188 -158z" />
    <glyph glyph-name="uni3076" unicode="&#x3076;" 
d="M255 663l13 54q242 -22 485 -73l-15 -53q-248 56 -483 72zM750 382l52 18q79 -148 122 -354l-55 -20q-40 204 -119 356zM130 4l-55 24q76 187 96 337l59 -12q-34 -178 -100 -349zM476 -49q-104 -1 -206 59l2 66q104 -69 200 -69q133 2 135 102q3 76 -100 156
q-108 79 -104 153q-1 51 41 112l57 -14q-43 -54 -42 -96q-3 -48 77 -109q131 -97 128 -202q-7 -153 -188 -158zM879 623l-40 -28q-44 68 -106 131l40 30q67 -68 106 -133zM959 677l-40 -28q-27 45 -97 122l-7 7l39 28q54 -56 105 -129z" />
    <glyph glyph-name="uni3077" unicode="&#x3077;" 
d="M771 697q9 92 101 101q93 -9 102 -101q-9 -93 -102 -102q-92 9 -101 102zM813 697q5 -55 59 -60q55 5 60 60q-5 54 -60 59q-53 -6 -59 -59zM255 663l13 54q242 -22 485 -73l-15 -53q-248 56 -483 72zM750 382l52 18q79 -148 122 -354l-55 -20q-40 204 -119 356zM130 4
l-55 24q76 187 96 337l59 -12q-34 -178 -100 -349zM476 -49q-104 -1 -206 59l2 66q104 -69 200 -69q133 2 135 102q3 76 -100 156q-108 79 -104 153q-1 51 41 112l57 -14q-43 -54 -42 -96q-3 -48 77 -109q131 -97 128 -202q-7 -153 -188 -158z" />
    <glyph glyph-name="uni3078" unicode="&#x3078;" 
d="M103 212l-44 50q107 107 220 266q56 81 110 79q47 5 103 -68q222 -266 459 -442l-33 -54q-251 197 -473 465q-38 46 -57 42q-23 1 -52 -40q-122 -169 -233 -298z" />
    <glyph glyph-name="uni3079" unicode="&#x3079;" 
d="M639 603l40 33q2 -2 6 -7q65 -70 101 -129l-39 -29q-58 85 -108 132zM722 657l39 28q56 -55 107 -129l-40 -31q-41 66 -106 132zM103 207l-44 50q107 107 220 266q56 81 110 79q47 5 103 -68q222 -266 459 -442l-33 -54q-251 197 -473 465q-38 46 -57 42q-23 1 -52 -40
q-122 -169 -233 -298z" />
    <glyph glyph-name="uni307A" unicode="&#x307a;" 
d="M658 596q9 92 101 101q93 -9 102 -101q-9 -93 -102 -102q-92 9 -101 102zM700 596q5 -55 59 -60q55 5 60 60q-5 54 -60 59q-53 -6 -59 -59zM103 207l-44 50q107 107 220 266q56 81 110 79q47 5 103 -68q222 -266 459 -442l-33 -54q-251 197 -473 465q-38 46 -57 42
q-23 1 -52 -40q-122 -169 -233 -298z" />
    <glyph glyph-name="uni307B" unicode="&#x307b;" 
d="M136 259q-1 237 47 500l61 -5q-49 -242 -49 -482q0 -162 19 -323l-59 -5q-19 167 -19 315zM359 84q9 122 182 131q63 0 130 -23q0 38 -2 112q-2 75 -3 114h-280v53h279q0 29 -2 85q-2 57 -3 87h-266v53h496v-53h-174l4 -172h175v-53h-174l6 -248q98 -45 194 -120l-31 -49
q-92 77 -162 112q-2 -161 -185 -161q-178 4 -184 132zM415 84q5 -76 127 -79q140 -4 130 132q-66 25 -133 25q-117 -4 -124 -78z" />
    <glyph glyph-name="uni307C" unicode="&#x307c;" 
d="M126 254q-1 237 47 500l61 -5q-49 -242 -49 -482q0 -162 19 -323l-59 -5q-19 167 -19 315zM349 79q9 122 182 131q63 0 130 -23q0 38 -2 112q-2 75 -3 114h-280v53h279q0 29 -2 85q-2 57 -3 87h-266v53h431v-53h-109l4 -172h175v-53h-174l6 -248q98 -45 194 -120l-31 -49
q-92 77 -162 112q-2 -161 -185 -161q-178 4 -184 132zM405 79q5 -76 127 -79q140 -4 130 132q-66 25 -133 25q-117 -4 -124 -78zM778 771l39 28q62 -67 105 -130l-39 -28q-47 71 -105 130zM864 816l38 28q66 -69 103 -128l-38 -27q-43 67 -103 127z" />
    <glyph glyph-name="uni307D" unicode="&#x307d;" 
d="M789 720q9 92 101 101q93 -9 102 -101q-9 -93 -102 -102q-34 0 -60 20h-124l4 -172h175v-53h-174l6 -248q98 -45 194 -120l-31 -49q-92 77 -162 112q-2 -161 -185 -161q-178 4 -184 132q9 122 182 131q63 0 130 -23q0 38 -2 112q-2 75 -3 114h-280v53h279q0 29 -2 85
q-2 57 -3 87h-266v53h409q-4 14 -4 29zM126 254q-1 237 47 500l61 -5q-49 -242 -49 -482q0 -162 19 -323l-59 -5q-19 167 -19 315zM405 79q5 -76 127 -79q140 -4 130 132q-66 25 -133 25q-117 -4 -124 -78zM831 720q5 -55 59 -60q55 5 60 60q-5 54 -60 59q-53 -6 -59 -59z
" />
    <glyph glyph-name="uni307E" unicode="&#x307e;" 
d="M145 81q13 136 216 148q78 0 134 -13q0 31 -2 91t-3 92h-336v54h335q0 24 -2 70q-2 47 -3 72h-323v54h322l-3 119h59l3 -119h305v-54h-305l4 -142h307v-54h-306l4 -196q170 -49 338 -171l-36 -50q-154 118 -301 166q12 -210 -196 -207q-207 4 -211 140zM203 81
q2 -85 152 -86q145 -3 142 142v25q-60 14 -133 14q-152 -5 -161 -95z" />
    <glyph glyph-name="uni307F" unicode="&#x307f;" 
d="M85 157q18 243 309 258q26 119 43 255h-268v53h333q-21 -190 -50 -311q130 -13 282 -83q12 76 12 177q0 47 -1 71h57v-13q1 -26 1 -50q0 -123 -15 -210q71 -38 158 -99l-26 -54q-81 59 -144 96q-54 -203 -274 -322l-46 41q225 108 267 308q-145 72 -282 87
q-83 -327 -241 -338q-108 8 -115 134zM142 162q2 -78 59 -82q109 10 180 283q-225 -20 -239 -201z" />
    <glyph glyph-name="uni3080" unicode="&#x3080;" 
d="M499 -55q-236 3 -242 130l2 37q-150 -8 -157 161q9 160 147 172q43 0 75 -24v85q-1 57 -1 87h-222v53h221v117h60l-1 -117h207v-53h-207l-4 -244q10 -30 10 -67q-1 -110 -74 -151q-2 -17 -2 -42q-2 -44 29 -60q50 -29 164 -29q271 6 282 123q-1 82 -47 194l60 2
q41 -112 42 -206q-14 -161 -342 -168zM246 165q85 5 88 117q-2 108 -84 111q-87 -8 -94 -119q3 -105 90 -109zM939 495l-38 -42q-104 125 -234 195l36 41q137 -83 236 -194z" />
    <glyph glyph-name="uni3081" unicode="&#x3081;" 
d="M97 195q4 178 157 306q-24 69 -48 195l59 10q19 -114 36 -172q120 76 280 74q14 67 25 146l60 -8q-12 -85 -27 -143q248 -52 259 -312q-2 -258 -344 -343l-33 56q322 58 320 291q-12 212 -216 259q-56 -202 -170 -354q32 -48 63 -86l-43 -37q-4 5 -13 16q-31 39 -46 60
q-110 -124 -196 -125q-119 7 -123 167zM152 196q2 -106 68 -110q78 1 167 112q-69 113 -116 251q-112 -96 -119 -253zM569 558q-142 3 -252 -75q45 -138 107 -236q92 135 145 311z" />
    <glyph glyph-name="uni3082" unicode="&#x3082;" 
d="M102 387h222q2 17 5 50q9 82 13 124h-239v53h243q3 26 9 81q6 51 8 75l59 -2l-17 -154h284v-53h-289l-19 -174h303v-53h-308q-13 -122 -13 -174q-6 -166 199 -162q248 4 259 164q1 57 -46 139l58 4q45 -82 46 -146q-12 -210 -314 -216q-258 0 -258 203q0 52 12 177
q1 7 1 11h-218v53z" />
    <glyph glyph-name="uni3083" unicode="&#x3083;" 
d="M154 279l-19 51q15 6 45 17q79 30 119 43q-25 79 -60 159l55 17l57 -160q107 38 199 60q-26 43 -77 100l49 25q40 -45 88 -117q7 0 21 1q13 1 19 1q177 -7 185 -159q-11 -160 -196 -170q-53 0 -119 9l-11 56q42 -8 70 -11q23 -2 59 -2q133 8 143 119q-7 102 -131 108
q-89 2 -282 -68q62 -175 138 -443l-57 -13q-55 214 -133 439q-39 -15 -119 -45q-29 -12 -43 -17z" />
    <glyph glyph-name="uni3084" unicode="&#x3084;" 
d="M913 434q-11 -191 -239 -207q-71 0 -143 7l-14 62q77 -16 157 -15q170 12 182 154q-8 134 -172 140q-107 1 -355 -86q87 -253 171 -554l-60 -16q-73 280 -167 551q-134 -49 -203 -77l-21 55l206 74q-20 64 -73 199l57 17q4 -12 13 -35q41 -105 60 -163q158 55 258 75
q-34 57 -96 129l51 26q48 -47 109 -145l49 3q218 -9 230 -194z" />
    <glyph glyph-name="uni3085" unicode="&#x3085;" 
d="M193 212q-2 91 18 319l58 -1q-19 -142 -24 -282q100 193 294 226q-8 63 -16 106l57 2q1 -6 3 -19q9 -56 12 -86q219 -13 227 -215q-14 -221 -261 -228q-49 -79 -179 -137l-38 46q124 43 158 97q-99 28 -155 131l39 38q49 -106 140 -121q25 69 25 190q0 85 -6 144
q-248 -58 -289 -297q-1 -41 8 -77l-57 -10q-8 39 -11 79q-3 37 -3 95zM605 280q0 -126 -24 -196q178 15 188 180q-7 148 -169 162q5 -78 5 -146z" />
    <glyph glyph-name="uni3086" unicode="&#x3086;" 
d="M122 287q-1 131 24 409l60 -1q-5 -44 -13 -117q-20 -164 -19 -252q110 256 382 299q-9 77 -19 133l60 4q9 -58 16 -134q281 -10 285 -267q-22 -269 -324 -275q-53 -105 -218 -170l-44 47q156 52 199 129q-133 30 -195 159l40 39q55 -126 180 -148q19 46 27 106
q7 55 7 158q0 84 -8 165q-315 -67 -372 -371q0 -52 10 -99l-62 -11q-17 83 -16 197zM627 405q2 -181 -30 -266q229 16 245 222q-2 203 -223 213q8 -91 8 -169z" />
    <glyph glyph-name="uni3087" unicode="&#x3087;" 
d="M201 34q8 124 181 129q48 0 101 -10l-18 433h55l6 -163l248 14l2 -53l-248 -14l9 -232q128 -41 269 -147l-33 -47q-135 104 -233 139q9 -166 -165 -167q-173 1 -174 118zM255 36q0 -67 119 -67q63 0 92 32q26 33 18 98q-51 12 -102 12q-123 -2 -127 -75z" />
    <glyph glyph-name="uni3088" unicode="&#x3088;" 
d="M132 74q11 141 216 150q73 0 136 -15l-22 550h59l7 -205l310 19l2 -56l-310 -18l12 -307q169 -56 334 -180l-34 -50q-161 125 -298 173q-3 -200 -200 -204q-208 3 -212 143zM189 74q5 -85 154 -88q75 -1 111 36q38 39 33 131q-60 16 -139 16q-149 -5 -159 -95z" />
    <glyph glyph-name="uni3089" unicode="&#x3089;" 
d="M186 162l40 425l58 -6l-35 -335q173 170 356 170q236 -7 250 -208q-15 -253 -439 -261q-68 0 -119 3l-16 63q76 -11 136 -11q367 6 379 206q-13 151 -185 156q-205 -9 -377 -212zM319 702l21 53q192 -20 357 -78l-20 -53q-159 60 -358 78z" />
    <glyph glyph-name="uni308A" unicode="&#x308a;" 
d="M227 351q0 131 35 386q3 21 4 31l62 -4q-36 -194 -46 -325q99 253 279 266q217 -15 225 -349q-2 -209 -146 -321q-120 -81 -313 -113l-28 57q201 25 307 105v-1q121 98 120 273q-5 286 -168 294q-208 -45 -265 -382q0 -29 5 -77l-59 -8q-12 69 -12 168z" />
    <glyph glyph-name="uni308B" unicode="&#x308b;" 
d="M327 78q5 -82 162 -84q49 0 93 10q-53 138 -164 141q-84 -5 -91 -67zM138 164l-39 48q257 207 534 464l-418 -16v57l488 13l27 -41q-58 -51 -176 -152q-104 -90 -155 -134q93 41 181 40q269 -7 281 -222q-15 -266 -377 -279q-204 4 -211 133q8 114 148 120
q154 -2 216 -178q166 62 165 202q-13 168 -222 174q-97 0 -203 -50q-88 -43 -239 -179z" />
    <glyph glyph-name="uni308C" unicode="&#x308c;" 
d="M112 93l-40 47q102 135 189 239l3 133h-187v52h188q1 81 5 203h59q-10 -219 -11 -325q204 230 323 223q134 -3 137 -158q0 -66 -12 -207q-11 -120 -10 -163q-2 -78 49 -75q61 1 142 58l16 -60q-88 -54 -162 -54q-99 3 -101 115q0 71 11 186q10 117 10 187q3 121 -84 117
q-92 15 -320 -249q-4 -217 0 -433h-60v75q-1 171 2 294q-50 -66 -147 -205z" />
    <glyph glyph-name="uni308D" unicode="&#x308d;" 
d="M141 162l-39 48q231 191 537 462l-431 -10v55h16q151 2 488 8l24 -40q-7 -6 -21 -19q-178 -159 -320 -268q93 41 189 40q261 -7 273 -214q-16 -264 -391 -275q-98 0 -174 8l-18 62q96 -14 189 -15q319 9 335 218q-5 162 -218 165q-120 0 -235 -66q-79 -44 -204 -159z" />
    <glyph glyph-name="uni308E" unicode="&#x308e;" 
d="M192 49l-39 42q104 132 155 185q0 19 1 54q1 36 1 55h-152v50h152l3 153h55q-1 -16 -2 -47q-4 -138 -6 -215q138 124 258 122q198 -9 206 -232q1 -244 -314 -270l-26 52q288 12 285 217q-4 178 -154 182q-107 3 -256 -143q-1 -83 -1 -164q1 -79 3 -181h-55v165
q0 65 1 124q-60 -68 -115 -149z" />
    <glyph glyph-name="uni308F" unicode="&#x308f;" 
d="M114 106l-42 44q11 13 32 40q110 137 161 190l3 144h-190v52h190l4 191h58q-5 -146 -10 -335q175 162 329 160q244 -12 251 -285q0 -294 -384 -332l-29 55q359 17 354 276q-5 224 -194 233q-144 4 -328 -184q0 -70 1 -213q1 -144 1 -213h-58l1 371q-62 -74 -150 -194z
" />
    <glyph glyph-name="uni3090" unicode="&#x3090;" 
d="M109 140q19 300 369 374q16 61 33 162l-292 -5l-1 54l361 6q-12 -81 -42 -210h30q304 -10 314 -294q-17 -273 -259 -288q-146 7 -156 124q9 113 141 122q105 0 185 -97q32 60 32 139q-8 238 -258 243q-25 0 -42 -1q-62 -234 -151 -383q-65 -109 -150 -110
q-110 7 -114 164zM165 140q1 -104 61 -106q50 1 103 88q82 147 135 338q-286 -70 -299 -320zM520 63q6 -66 100 -71q83 -1 138 53q-73 89 -149 89q-84 -4 -89 -71z" />
    <glyph glyph-name="uni3091" unicode="&#x3091;" 
d="M349 312q2 -46 75 -52q64 28 64 73q-2 41 -57 42q-75 -5 -82 -63zM107 -77l-43 42q146 151 294 262q-59 27 -60 83q12 102 136 110q98 -2 103 -83q-1 -48 -42 -79q212 18 233 142q-1 112 -159 113q-90 0 -178 -34q-87 -33 -209 -123l-32 49l463 290l-362 -15l-1 55h16
q132 4 418 14l26 -51q-45 -27 -147 -88q-76 -45 -112 -66q63 16 123 16q207 -3 212 -161q-19 -179 -314 -190q-28 0 -53 3q-66 -43 -123 -89q39 15 71 15q95 -4 138 -109q72 123 176 124q146 -1 245 -195l-53 -33q-85 179 -194 176q-128 -20 -150 -177h-54q-16 168 -120 167
q-103 2 -248 -168z" />
    <glyph glyph-name="uni3092" unicode="&#x3092;" 
d="M137 236l-40 47q168 152 265 312l-238 -3l-1 54l269 3q36 69 59 124l56 -13q-17 -44 -52 -110l367 4l1 -54l-398 -5q-57 -86 -115 -154q86 52 153 51q119 -1 147 -129q67 25 237 75q20 6 31 9l13 -58q-174 -41 -274 -79q9 -67 13 -198l-58 -2q0 114 -7 181
q-236 -93 -230 -197q-10 -92 237 -89q123 0 265 18l1 -60q-127 -13 -262 -13q-312 -6 -297 145q-3 115 190 210q38 19 88 39q-19 99 -96 99q-116 4 -324 -207z" />
    <glyph glyph-name="uni3093" unicode="&#x3093;" 
d="M137 -41l-57 23q63 148 346 776l60 -21q-124 -257 -198 -417q88 84 165 85q127 -1 133 -155l5 -138q5 -99 88 -99q131 0 210 229l46 -44q-88 -236 -256 -243q-136 1 -144 145l-6 153q-6 100 -82 99q-71 -4 -161 -102q-65 -80 -149 -291z" />
    <glyph glyph-name="uni30A1" unicode="&#x30a1;" 
d="M190 525h623v-52q-70 -140 -198 -240l-43 36q114 83 177 203h-559v53zM250 -82l-43 42q144 66 200 166q56 98 52 283h57q14 -359 -266 -491z" />
    <glyph glyph-name="uni30A2" unicode="&#x30a2;" 
d="M117 688h771v-55q-78 -163 -246 -298l-42 38q138 102 220 260h-703v55zM189 -60l-41 41q177 88 240 210q67 117 65 353h61q17 -448 -325 -604z" />
    <glyph glyph-name="uni30A3" unicode="&#x30a3;" 
d="M199 211l-41 47q363 117 577 329l44 -40q-89 -88 -215 -169v-454h-58v421q-135 -75 -307 -134z" />
    <glyph glyph-name="uni30A4" unicode="&#x30a4;" 
d="M791 763l49 -40q-113 -116 -266 -209v-567h-62v530q-169 -96 -386 -169l-45 51q437 141 710 404z" />
    <glyph glyph-name="uni30A5" unicode="&#x30a5;" 
d="M225 456h240v122h56v-122h264v-52q-28 -372 -422 -485l-36 48q374 90 397 436h-440v-174h-59v227z" />
    <glyph glyph-name="uni30A6" unicode="&#x30a6;" 
d="M162 602h300v153h60v-153h329v-55q-38 -474 -519 -606l-36 49q461 115 490 557h-561v-218h-63v273z" />
    <glyph glyph-name="uni30A7" unicode="&#x30a7;" 
d="M166 53h301v369h-250v53h562v-53h-256v-369h313v-52h-670v52z" />
    <glyph glyph-name="uni30A8" unicode="&#x30a8;" 
d="M88 111h376v472h-312v55h692v-55h-320v-472h391v-55h-827v55z" />
    <glyph glyph-name="uni30A9" unicode="&#x30a9;" 
d="M192 2l-40 44q261 134 385 337h-348v52h385l-3 145h56l3 -145h196v-52h-196l7 -365q5 -92 -84 -89h-112l-18 56h128q34 -3 31 33q0 58 -2 164q-2 105 -3 164q-128 -197 -385 -344z" />
    <glyph glyph-name="uni30AA" unicode="&#x30aa;" 
d="M115 46l-43 46q317 170 487 430h-443v54h481l-3 181h59l3 -181h246v-54h-245l9 -462q-1 -108 -100 -106h-131l-20 59h149q46 -4 43 47q-1 74 -4 210q-3 137 -4 211q-160 -254 -484 -435z" />
    <glyph glyph-name="uni30AB" unicode="&#x30ab;" 
d="M142 -56l-38 43q191 106 273 283q42 105 55 250h-312v53h316q2 40 2 141v45h60q0 -106 -4 -186h354q-7 -279 -25 -416q-29 -200 -157 -191h-122l-13 56h138q78 -5 98 139q21 134 24 359h-300q-14 -164 -63 -275q-84 -181 -286 -301z" />
    <glyph glyph-name="uni30AC" unicode="&#x30ac;" 
d="M769 714l40 30q67 -68 106 -133l-39 -28q-54 79 -107 131zM851 766l39 27q60 -59 105 -128l-39 -28q-31 53 -105 129zM137 -56l-38 43q191 106 273 283q42 105 55 250h-312v53h316q2 40 2 141v45h60q0 -106 -4 -186h354q-7 -279 -25 -416q-29 -200 -157 -191h-122l-13 56
h138q78 -5 98 139q21 134 24 359h-300q-14 -164 -63 -275q-84 -181 -286 -301z" />
    <glyph glyph-name="uni30AD" unicode="&#x30ad;" 
d="M107 277l367 42l-26 202l-321 -34l-6 55l319 33l-25 186l59 6l25 -185l315 33l6 -54l-313 -33l26 -201l359 41l7 -55l-358 -40l45 -337l-59 -6l-45 335l-368 -42z" />
    <glyph glyph-name="uni30AE" unicode="&#x30ae;" 
d="M102 277l367 42l-26 202l-321 -34l-6 55l319 33l-25 186l59 6l25 -185l315 33l6 -54l-313 -33l26 -201l359 41l7 -55l-358 -40l45 -337l-59 -6l-45 335l-368 -42zM763 733l40 30q67 -68 106 -133l-39 -28q-54 79 -107 131zM845 785l39 27q60 -59 105 -128l-39 -28
q-31 53 -105 129z" />
    <glyph glyph-name="uni30AF" unicode="&#x30af;" 
d="M163 313l-40 45q221 151 328 402l59 -16q-36 -79 -62 -122h391v-55q-138 -456 -619 -629l-31 49q450 149 587 581h-363q-92 -134 -250 -255z" />
    <glyph glyph-name="uni30B0" unicode="&#x30b0;" 
d="M778 745l40 30q67 -68 106 -133l-39 -28q-54 79 -107 131zM860 797l39 27q60 -59 105 -128l-39 -28q-31 53 -105 129zM158 308l-40 45q221 151 328 402l59 -16q-36 -79 -62 -122h391v-54q-138 -457 -619 -630l-31 49q450 149 587 581h-363q-92 -134 -250 -255z" />
    <glyph glyph-name="uni30B1" unicode="&#x30b1;" 
d="M128 308l-44 39q176 161 241 415l60 -14q-31 -100 -65 -172h593v-53h-256q-14 -426 -394 -588l-36 46q362 133 370 542h-303q-69 -122 -166 -215z" />
    <glyph glyph-name="uni30B2" unicode="&#x30b2;" 
d="M763 712l39 30q54 -60 105 -130l-39 -28q-55 79 -105 128zM853 749l39 27q64 -69 101 -124l-37 -31q-44 70 -103 128zM123 278l-44 39q176 161 241 415l60 -14q-31 -100 -65 -172h593v-53h-256q-14 -426 -394 -588l-36 46q362 133 370 542h-303q-69 -122 -166 -215z" />
    <glyph glyph-name="uni30B3" unicode="&#x30b3;" 
d="M147 108h611v474h-602v55h664v-651h-62v67h-611v55z" />
    <glyph glyph-name="uni30B4" unicode="&#x30b4;" 
d="M142 103h611v474h-602v55h664v-651h-62v67h-611v55zM765 743l40 30q67 -68 106 -133l-39 -28q-54 79 -107 131zM847 795l39 27q60 -59 105 -128l-39 -28q-31 53 -105 129z" />
    <glyph glyph-name="uni30B5" unicode="&#x30b5;" 
d="M82 543h199v207h61v-207h315v210h61v-210h200v-55h-200q3 -269 -89 -374q-89 -119 -320 -172l-28 52q214 42 300 154q80 88 76 340h-315v-256h-61v256h-199v55z" />
    <glyph glyph-name="uni30B6" unicode="&#x30b6;" 
d="M760 760l40 22q48 -56 93 -138l-41 -22q-53 91 -92 138zM845 803l39 22q49 -55 90 -135l-40 -23q-37 73 -89 136zM77 538h199v207h61v-207h315v210h61v-210h200v-55h-200q3 -269 -89 -374q-89 -119 -320 -172l-28 52q214 42 300 154q80 88 76 340h-315v-256h-61v256h-199
v55z" />
    <glyph glyph-name="uni30B7" unicode="&#x30b7;" 
d="M127 423l26 52q140 -41 255 -96l-24 -52q-101 51 -257 96zM202 658l27 53q114 -34 245 -98l-25 -52q-120 63 -247 97zM166 -36l-17 58q543 89 712 525l46 -47q-195 -439 -741 -536z" />
    <glyph glyph-name="uni30B8" unicode="&#x30b8;" 
d="M122 418l26 52q140 -41 255 -96l-24 -52q-101 51 -257 96zM197 653l27 53q114 -34 245 -98l-25 -52q-120 63 -247 97zM733 698l40 29q55 -52 109 -130l-39 -28q-57 81 -110 129zM815 750l39 27q60 -59 107 -126l-39 -28q-37 59 -107 127zM161 -41l-17 58q539 88 709 527
l49 -49q-195 -439 -741 -536z" />
    <glyph glyph-name="uni30B9" unicode="&#x30b9;" 
d="M903 3l-48 -46q-127 171 -309 307q-147 -169 -414 -313l-40 46q453 230 605 625h-522v56h591v-52q-66 -169 -184 -318q164 -117 321 -305z" />
    <glyph glyph-name="uni30BA" unicode="&#x30ba;" 
d="M746 749l39 29q67 -62 110 -130l-42 -30q-54 79 -107 131zM828 801l39 27q68 -66 107 -126l-41 -31q-33 57 -105 130zM898 -2l-48 -46q-127 171 -309 307q-147 -169 -414 -313l-40 46q453 230 605 625h-522v56h591v-52q-66 -169 -184 -318q164 -117 321 -305z" />
    <glyph glyph-name="uni30BB" unicode="&#x30bb;" 
d="M78 453l231 44v257h61v-246l480 91l20 -28q-68 -185 -232 -336l-42 40q116 108 194 257l-420 -80v-267q-2 -93 36 -115q20 -13 57 -18q34 -5 110 -5q150 -1 271 13v-60q-155 -12 -272 -11q-162 -2 -211 38q-54 37 -52 158v255q-36 -7 -111 -21q-75 -13 -111 -20z" />
    <glyph glyph-name="uni30BC" unicode="&#x30bc;" 
d="M771 744l40 30q70 -72 107 -133l-40 -28q-54 79 -107 131zM853 796l39 27q64 -63 107 -127l-41 -30q-33 57 -105 130zM63 453l231 44v257h61v-246l480 91l20 -28q-68 -185 -232 -336l-42 40q116 108 194 257l-420 -80v-267q-2 -93 36 -115q20 -13 57 -18q34 -5 110 -5
q150 -1 271 13v-60q-155 -12 -272 -11q-162 -2 -211 38q-54 37 -52 158v255q-36 -7 -111 -21q-75 -13 -111 -20z" />
    <glyph glyph-name="uni30BD" unicode="&#x30bd;" 
d="M140 645l56 29q96 -128 164 -283l-58 -29q-60 146 -162 283zM276 -81l-40 50q480 164 552 717l60 -12q-92 -563 -572 -755z" />
    <glyph glyph-name="uni30BE" unicode="&#x30be;" 
d="M135 630l56 29q96 -128 164 -283l-58 -29q-60 146 -162 283zM270 -97l-42 46q462 159 549 692l61 -12q-91 -528 -568 -726zM771 742l40 30q67 -68 106 -133l-39 -28q-54 79 -107 131zM853 794l39 27q60 -59 105 -128l-39 -28q-31 53 -105 129z" />
    <glyph glyph-name="uni30BF" unicode="&#x30bf;" 
d="M133 329l-39 39q231 145 339 375l62 -13q-31 -63 -64 -113h418v-50q-161 -443 -669 -652l-42 47q249 83 425 254q-115 104 -235 173l39 39q103 -55 237 -170q120 138 181 306h-391q-99 -134 -261 -235z" />
    <glyph glyph-name="uni30C0" unicode="&#x30c0;" 
d="M779 732l40 30q67 -68 106 -133l-39 -28q-54 79 -107 131zM861 784l39 27q60 -59 105 -128l-39 -28q-31 53 -105 129zM129 314l-39 39q231 145 339 375l62 -13q-31 -63 -64 -113h418v-50q-161 -443 -669 -652l-42 47q249 83 425 254q-115 104 -235 173l39 39
q103 -55 237 -170q120 138 181 306h-391q-99 -134 -261 -235z" />
    <glyph glyph-name="uni30C1" unicode="&#x30c1;" 
d="M92 406h406v202q-86 -14 -275 -33q-24 -3 -36 -4l-12 56q387 29 615 110l21 -54q-114 -37 -252 -63v-214h346v-55h-347q0 -329 -331 -436l-41 47q315 92 311 389h-405v55z" />
    <glyph glyph-name="uni30C2" unicode="&#x30c2;" 
d="M772 615l40 28q54 -53 104 -130l-39 -27q-47 68 -105 129zM853 666l38 28q62 -65 102 -129l-37 -26q-39 59 -103 127zM87 426h406v202q-115 -19 -312 -39l-13 57q387 29 617 111l21 -54q-114 -37 -252 -63v-214h346v-55h-347q0 -329 -331 -436l-41 47q315 92 311 389
h-405v55z" />
    <glyph glyph-name="uni30C3" unicode="&#x30c3;" 
d="M187 491l54 19q50 -86 93 -219l-56 -17q-37 127 -91 217zM324 -86l-35 44q397 130 456 568l56 -14q-65 -439 -477 -598zM401 531l51 22q61 -118 92 -217l-52 -20q-36 117 -91 215z" />
    <glyph glyph-name="uni30C4" unicode="&#x30c4;" 
d="M115 648l58 20q55 -92 113 -262l-59 -20q-45 147 -112 262zM283 -62l-41 45q493 168 568 705l60 -13q-78 -541 -587 -737zM382 701l56 21q61 -111 111 -260l-58 -22q-46 148 -109 261z" />
    <glyph glyph-name="uni30C5" unicode="&#x30c5;" 
d="M104 643l58 20q55 -92 113 -262l-59 -20q-45 147 -112 262zM272 -67l-40 45q481 167 562 675l60 -13q-85 -512 -582 -707zM371 696l56 21q61 -111 111 -260l-58 -22q-46 148 -109 261zM773 767l40 30q67 -68 106 -133l-39 -28q-54 79 -107 131zM855 819l39 27
q60 -59 105 -128l-39 -28q-31 53 -105 129z" />
    <glyph glyph-name="uni30C6" unicode="&#x30c6;" 
d="M97 474h804v-55h-348q2 -369 -333 -482l-41 46q314 91 312 436h-394v55zM193 702h617v-55h-617v55z" />
    <glyph glyph-name="uni30C7" unicode="&#x30c7;" 
d="M92 414v55h804v-55h-348q2 -369 -333 -482l-41 46q319 96 312 436h-394zM188 642v55h602v-55h-602zM768 768l40 30q67 -68 106 -133l-39 -28q-54 79 -107 131zM850 820l39 27q60 -59 105 -128l-39 -28q-31 53 -105 129z" />
    <glyph glyph-name="uni30C8" unicode="&#x30c8;" 
d="M322 762h62v-274q235 -63 478 -203l-29 -57q-196 125 -449 201v-492h-62v825z" />
    <glyph glyph-name="uni30C9" unicode="&#x30c9;" 
d="M322 762h62v-274q235 -63 478 -203l-29 -57q-196 125 -449 201v-492h-62v825zM651 695l40 29q5 -5 14 -15q60 -65 93 -119l-39 -29q-61 91 -108 134zM734 747l39 28q56 -55 107 -129l-40 -31q-41 66 -106 132z" />
    <glyph glyph-name="uni30CA" unicode="&#x30ca;" 
d="M98 516h400v236h60v-236h344v-55h-344q12 -395 -352 -527l-42 46q354 97 334 481h-400v55z" />
    <glyph glyph-name="uni30CB" unicode="&#x30cb;" 
d="M93 126h812v-58h-812v58zM182 628h625v-57h-625v57z" />
    <glyph glyph-name="uni30CC" unicode="&#x30cc;" 
d="M143 -32l-42 43q258 102 434 280q-122 97 -267 177l38 39q156 -93 266 -176q116 134 182 314h-553v54h616v-48q-70 -203 -201 -356q90 -74 184 -171l-41 -45q-93 96 -180 173q-166 -172 -436 -284z" />
    <glyph glyph-name="uni30CD" unicode="&#x30cd;" 
d="M98 131l-34 48q415 122 658 396h-560v54h301v139h60v-139h277v-47q-127 -152 -274 -250v-407h-60v370q-146 -89 -368 -164zM619 301l29 46q168 -78 289 -170l-32 -50q-133 104 -286 174z" />
    <glyph glyph-name="uni30CE" unicode="&#x30ce;" 
d="M184 -44l-45 48q465 177 589 708l60 -17q-132 -532 -604 -739z" />
    <glyph glyph-name="uni30CF" unicode="&#x30cf;" 
d="M133 3l-54 29q201 240 240 628l62 -12q-45 -390 -248 -645zM601 654l54 24q151 -295 250 -639l-59 -23q-106 373 -245 638z" />
    <glyph glyph-name="uni30D0" unicode="&#x30d0;" 
d="M707 710l41 26q56 -61 101 -137l-41 -26q-53 84 -101 137zM792 756l39 26q53 -58 100 -132l-41 -27q-35 64 -98 133zM126 -2l-54 29q201 240 240 628l62 -12q-45 -390 -248 -645zM594 649l54 24q151 -295 250 -639l-59 -23q-106 373 -245 638z" />
    <glyph glyph-name="uni30D1" unicode="&#x30d1;" 
d="M732 668q9 92 101 101q93 -9 102 -101q-9 -93 -102 -102q-92 9 -101 102zM774 668q5 -55 59 -60q55 5 60 60q-5 54 -60 59q-53 -6 -59 -59zM126 -2l-54 29q201 240 240 628l62 -12q-45 -390 -248 -645zM594 649l54 24q151 -295 250 -639l-59 -23q-106 373 -245 638z" />
    <glyph glyph-name="uni30D2" unicode="&#x30d2;" 
d="M223 732h61v-336q290 92 491 231l37 -51q-220 -141 -528 -237v-165q-4 -90 39 -107q35 -23 203 -22q162 -1 321 23l1 -59q-180 -21 -325 -20q-203 -2 -248 33q-55 28 -52 157v553z" />
    <glyph glyph-name="uni30D3" unicode="&#x30d3;" 
d="M759 727l40 30q67 -68 106 -133l-39 -28q-54 79 -107 131zM841 779l39 27q60 -59 105 -128l-39 -28q-31 53 -105 129zM218 732h61v-336q290 92 491 231l37 -51q-220 -141 -528 -237v-165q-4 -90 39 -107q35 -23 203 -22q162 -1 321 23l1 -59q-180 -21 -325 -20
q-203 -2 -248 33q-55 28 -52 157v553z" />
    <glyph glyph-name="uni30D4" unicode="&#x30d4;" 
d="M218 732h61v-336q290 92 491 231l37 -51q-220 -141 -528 -237v-165q-4 -90 39 -107q35 -23 203 -22q162 -1 321 23l1 -59q-180 -21 -325 -20q-203 -2 -248 33q-55 28 -52 157v553zM787 710q9 92 101 101q93 -9 102 -101q-9 -93 -102 -102q-92 9 -101 102zM829 710
q5 -55 59 -60q55 5 60 60q-5 54 -60 59q-53 -6 -59 -59z" />
    <glyph glyph-name="uni30D5" unicode="&#x30d5;" 
d="M254 -47l-36 49q487 131 552 609h-630v56h697q-51 -557 -583 -714z" />
    <glyph glyph-name="uni30D6" unicode="&#x30d6;" 
d="M135 662h697q-51 -558 -583 -715l-16 23q-20 24 -19 25q0 1 -1 2q487 131 552 609h-630v56zM778 768l40 30q67 -68 106 -133l-39 -28q-54 79 -107 131zM860 820l39 27q60 -59 105 -128l-39 -28q-31 53 -105 129z" />
    <glyph glyph-name="uni30D7" unicode="&#x30d7;" 
d="M773 722q9 92 101 101q93 -9 102 -101q-9 -93 -102 -102q-25 0 -46 11q-61 -531 -579 -684l-16 23q-20 24 -19 25q0 1 -1 2q487 131 552 609h-630v56h657q-18 25 -19 60zM815 722q5 -55 59 -60q55 5 60 60q-5 54 -60 59q-53 -6 -59 -59z" />
    <glyph glyph-name="uni30D8" unicode="&#x30d8;" 
d="M73 246l231 304q55 78 91 74q41 5 103 -68l435 -466l-38 -52l-451 491q-33 36 -45 35q-15 2 -43 -36l-243 -328z" />
    <glyph glyph-name="uni30D9" unicode="&#x30d9;" 
d="M73 241l232 304q54 78 90 74q41 5 103 -68l435 -466l-38 -52l-451 491q-33 36 -45 35q-15 2 -43 -36q-58 -79 -134 -182q-80 -108 -109 -146zM649 624l39 32l24 -24q56 -58 87 -109l-42 -31q-58 85 -108 132zM732 678l39 28q59 -59 108 -127l-41 -33q-41 66 -106 132z
" />
    <glyph glyph-name="uni30DA" unicode="&#x30da;" 
d="M676 615q9 92 101 101q93 -9 102 -101q-9 -93 -102 -102q-92 9 -101 102zM718 615q5 -55 59 -60q55 5 60 60q-5 54 -60 59q-53 -6 -59 -59zM73 241l232 304q54 78 90 74q41 5 103 -68l435 -466l-38 -52l-451 491q-33 36 -45 35q-15 2 -43 -36q-58 -79 -134 -182
q-80 -108 -109 -146z" />
    <glyph glyph-name="uni30DB" unicode="&#x30db;" 
d="M102 593h371v170h59v-170h364v-55h-364v-474q5 -111 -100 -106h-115l-16 59h129q46 -4 43 47v474h-371v55zM676 380l55 24q106 -153 176 -313l-53 -35q-77 178 -178 324zM141 48l-55 28q111 131 158 324l61 -17q-57 -199 -164 -335z" />
    <glyph glyph-name="uni30DC" unicode="&#x30dc;" 
d="M727 752l39 30q67 -70 105 -129l-39 -29q-55 79 -105 128zM817 789l39 27q53 -49 105 -125l-41 -30q-44 70 -103 128zM97 588h371v170h59v-170h364v-55h-364v-474q5 -111 -100 -106h-115l-16 59h129q46 -4 43 47v474h-371v55zM671 375l55 24q106 -153 176 -313l-53 -35
q-77 178 -178 324zM136 43l-55 28q111 131 158 324l61 -17q-57 -199 -164 -335z" />
    <glyph glyph-name="uni30DD" unicode="&#x30dd;" 
d="M755 731q9 92 101 101q93 -9 102 -101q-9 -93 -102 -102q-92 9 -101 102zM797 731q5 -55 59 -60q55 5 60 60q-5 54 -60 59q-53 -6 -59 -59zM97 588h371v170h59v-170h364v-55h-364v-474q5 -111 -100 -106h-115l-16 59h129q46 -4 43 47v474h-371v55zM671 375l55 24
q106 -153 176 -313l-53 -35q-77 178 -178 324zM136 43l-55 28q111 131 158 324l61 -17q-57 -199 -164 -335z" />
    <glyph glyph-name="uni30DE" unicode="&#x30de;" 
d="M103 645h779v-56q-124 -217 -350 -412q77 -77 150 -169l-45 -42q-182 224 -405 391l42 41q119 -91 217 -182q205 167 321 371h-709v58z" />
    <glyph glyph-name="uni30DF" unicode="&#x30df;" 
d="M130 100l20 60q419 -44 695 -149l-20 -62q-313 121 -695 151zM225 387l18 57q256 -25 482 -94l-20 -58q-236 73 -480 95zM231 655l20 59q276 -23 553 -91l-17 -61q-270 73 -556 93z" />
    <glyph glyph-name="uni30E0" unicode="&#x30e0;" 
d="M88 64l104 6q161 336 255 669l62 -17q-103 -341 -250 -647q273 20 509 60q-70 137 -149 256l53 26q133 -204 236 -446l-55 -24q-27 68 -59 134q-299 -49 -696 -79z" />
    <glyph glyph-name="uni30E1" unicode="&#x30e1;" 
d="M136 -47l-47 47q265 120 436 328q-111 93 -257 181l40 42q135 -82 250 -177q116 163 169 353l62 -20q-69 -214 -184 -370q124 -108 206 -201l-41 -48q-84 100 -201 203q-162 -203 -433 -338z" />
    <glyph glyph-name="uni30E2" unicode="&#x30e2;" 
d="M90 413h314v211h-248v55h682v-55h-374v-211h446v-55h-446v-194q-3 -86 29 -103q25 -22 150 -20q92 0 216 11v-58q-112 -8 -210 -8q-162 -2 -202 32q-46 29 -43 149v191h-314v55z" />
    <glyph glyph-name="uni30E3" unicode="&#x30e3;" 
d="M163 391l198 27l-34 153l54 10l36 -155q65 8 195 26q131 18 195 27l18 -31q-71 -145 -224 -263l-42 36q123 90 186 197q-53 -7 -158 -22t-159 -22q12 -55 37 -166q44 -192 64 -285l-58 -14l-100 457l-201 -28z" />
    <glyph glyph-name="uni30E4" unicode="&#x30e4;" 
d="M84 521l248 34l-44 194l59 10l44 -196q112 14 345 47q96 13 143 20l16 -37q-96 -183 -269 -318l-45 38q143 103 234 255q-69 -10 -206 -30q-136 -20 -206 -29q7 -38 126 -565l-60 -14l-126 570l-251 -35z" />
    <glyph glyph-name="uni30E5" unicode="&#x30e5;" 
d="M169 49h420l47 376h-388v52h451l-54 -428h187v-52h-663v52z" />
    <glyph glyph-name="uni30E6" unicode="&#x30e6;" 
d="M91 106h524l62 480h-487v55h554l-69 -535h235v-55h-819v55z" />
    <glyph glyph-name="uni30E7" unicode="&#x30e7;" 
d="M211 33h489v190h-455v52h455v181h-478v52h535v-575h-57v48h-489v52z" />
    <glyph glyph-name="uni30E8" unicode="&#x30e8;" 
d="M144 73h612v249h-570v54h570v237h-598v54h658v-708h-60v60h-612v54z" />
    <glyph glyph-name="uni30E9" unicode="&#x30e9;" 
d="M123 486h732v-52q-86 -385 -540 -502l-39 53q428 103 515 446h-668v55zM219 710h571v-55h-571v55z" />
    <glyph glyph-name="uni30EA" unicode="&#x30ea;" 
d="M242 732h62v-446h-62v446zM324 -67l-41 57q235 43 325 158q94 111 92 355v234h62v-234q22 -484 -438 -570z" />
    <glyph glyph-name="uni30EB" unicode="&#x30eb;" 
d="M327 695v-128q13 -404 -213 -611l-52 34q120 112 163 236q44 117 42 343v126h60zM889 408l43 -50q-149 -272 -405 -383l-21 20v733h60v-672q204 111 323 352z" />
    <glyph glyph-name="uni30EC" unicode="&#x30ec;" 
d="M228 728h62v-702q368 114 564 385l37 -56q-227 -286 -641 -400l-22 19v754z" />
    <glyph glyph-name="uni30ED" unicode="&#x30ed;" 
d="M171 663h664v-684h-61v72h-542v-72h-61v684zM232 608v-502h542v502h-542z" />
    <glyph glyph-name="uni30EE" unicode="&#x30ee;" 
d="M226 519h560q3 -459 -402 -604l-42 45q374 121 385 507h-445v-222h-56v274z" />
    <glyph glyph-name="uni30EF" unicode="&#x30ef;" 
d="M163 681h689q-11 -558 -495 -743l-44 48q457 150 476 640h-566v-277h-60v332z" />
    <glyph glyph-name="uni30F0" unicode="&#x30f0;" 
d="M99 243h184v306h-137v54h494v163h60v-163h167v-54h-167v-306h204v-55h-204v-254h-60v254h-541v55zM342 549v-306h298v306h-298z" />
    <glyph glyph-name="uni30F1" unicode="&#x30f1;" 
d="M90 95h367v402h60v-402h395v-55h-822v55zM165 654h700v-51q-73 -142 -222 -271l-46 32q131 110 202 235h-634v55z" />
    <glyph glyph-name="uni30F2" unicode="&#x30f2;" 
d="M155 719h695q-40 -578 -551 -767l-38 47q349 127 464 412h-558v55h577q27 88 39 197h-628v56z" />
    <glyph glyph-name="uni30F3" unicode="&#x30f3;" 
d="M131 622l36 44q137 -73 257 -169l-39 -49q-114 100 -254 174zM170 -33l-21 55q522 106 693 561l45 -44q-175 -448 -717 -572z" />
    <glyph glyph-name="uni30F4" unicode="&#x30f4;" 
d="M769 738l40 30q71 -72 109 -133l-42 -28q-54 79 -107 131zM851 790l39 27q60 -59 105 -128l-39 -28q-31 53 -105 129zM157 602h300v153h60v-153h329v-48q-39 -482 -519 -613l-36 49q461 115 490 557h-561v-218h-63v273z" />
    <glyph glyph-name="uni30F5" unicode="&#x30f5;" 
d="M214 -79l-43 39q170 92 227 227q34 86 44 195h-250v51h252q2 62 2 148h57q0 -73 -3 -148h283q-6 -265 -20 -338q-14 -90 -43 -123q-29 -34 -90 -33l-101 1l-12 52h116q62 -2 77 107q16 100 19 283h-231q-8 -127 -51 -217q-56 -138 -233 -244z" />
    <glyph glyph-name="uni30F6" unicode="&#x30f6;" 
d="M311 -86l-37 41q293 104 299 429h-235q-42 -73 -136 -172l-46 34q148 134 202 340l53 -15q-23 -79 -49 -136h472v-51h-205q-9 -343 -318 -470z" />
    <glyph glyph-name="uni3105" unicode="&#x3105;" 
d="M166 459l-16 44l183 238l49 -34l-147 -190h613q-2 -346 -45 -505q-41 -95 -141 -98h-171l-13 57h179q70 0 87 56q40 140 43 432h-621z" />
    <glyph glyph-name="uni3106" unicode="&#x3106;" 
d="M178 -112l-30 55q233 70 396 194q-123 88 -255 173l38 44q83 -53 265 -179q95 96 172 289h-511l-20 41q99 160 144 261l60 -20q-54 -112 -123 -223h516v-58q-72 -206 -188 -325q109 -78 208 -156l-40 -48q-74 65 -212 165q-153 -131 -420 -213z" />
    <glyph glyph-name="uni3107" unicode="&#x3107;" 
d="M167 698h665v-718h-60v659h-544v-659h-61v718z" />
    <glyph glyph-name="uni3108" unicode="&#x3108;" 
d="M181 673h653v-60h-591v-579h595v-60h-657v699z" />
    <glyph glyph-name="uni3109" unicode="&#x3109;" 
d="M160 -92l-34 47q234 178 346 505h-288l-12 46l179 236l52 -34l-143 -189h611q-1 -348 -43 -506q-31 -99 -132 -99h-174l-9 60h177q59 -1 81 55q36 116 40 431h-277q-113 -362 -374 -552z" />
    <glyph glyph-name="uni310A" unicode="&#x310a;" 
d="M92 532h349q32 96 58 199l60 -14q-22 -87 -55 -185h402v-59h-428q-109 -244 -268 -461q91 11 269 33q185 24 280 35q-14 24 -48 77q-16 25 -23 36l51 27q76 -111 154 -269l-53 -25q-22 49 -52 100l-644 -81l-19 51q171 212 291 477h-324v59z" />
    <glyph glyph-name="uni310B" unicode="&#x310b;" 
d="M142 733h521v-48l-118 -231h310q-2 -229 -37 -388q-30 -126 -175 -126h-190l-13 61h204q91 0 113 79q32 120 34 315h-307l-10 44l115 234h-447v60z" />
    <glyph glyph-name="uni310C" unicode="&#x310c;" 
d="M164 -75l-40 44q277 180 369 490h-316l-12 49q109 129 179 233l49 -32q-74 -109 -146 -191h263q26 113 37 211l61 -8q-19 -131 -35 -203h296q-6 -330 -38 -486q-26 -107 -150 -108h-163l-13 60h172q80 -1 94 68q28 135 34 407h-248q-93 -344 -393 -534z" />
    <glyph glyph-name="uni310D" unicode="&#x310d;" 
d="M425 -43l-59 -24q-98 220 -198 394q109 198 189 404l57 -20q-86 -218 -177 -381q76 -134 188 -373zM832 -43l-59 -24q-98 220 -198 394q109 198 189 404l57 -20q-86 -218 -177 -381q76 -134 188 -373z" />
    <glyph glyph-name="uni310E" unicode="&#x310e;" 
d="M94 708h812v-56h-472q-59 -141 -110 -244h478q-15 -223 -44 -346q-32 -119 -178 -120h-167l-9 57h176q104 -3 120 81q27 113 38 274h-468l-19 40q66 122 119 258h-276v56z" />
    <glyph glyph-name="uni310F" unicode="&#x310f;" 
d="M142 -73l-49 32q78 142 111 306q31 153 30 403v48h669v-59h-610q2 -459 -151 -730z" />
    <glyph glyph-name="uni3110" unicode="&#x3110;" 
d="M199 714h59v-498q216 30 483 92v438h59v-831h-59v332q-216 -52 -542 -100v567z" />
    <glyph glyph-name="uni3111" unicode="&#x3111;" 
d="M728 -47l-47 -37q-198 226 -410 409q185 182 372 415l46 -33q-141 -181 -335 -380q200 -181 374 -374z" />
    <glyph glyph-name="uni3112" unicode="&#x3112;" 
d="M92 715h815v-59h-378v-732h-60v732h-377v59z" />
    <glyph glyph-name="uni3113" unicode="&#x3113;" 
d="M88 15h381v258h-340v390h60v-331h280v407h61v-407h280v331h60v-390h-340v-258h381v-59h-823v59z" />
    <glyph glyph-name="uni3114" unicode="&#x3114;" 
d="M206 454l-25 52q233 96 427 251l42 -41q-193 -156 -444 -262zM143 76l-28 52q399 174 729 478l43 -41q-185 -170 -316 -257v-395h-60v356q-177 -109 -368 -193z" />
    <glyph glyph-name="uni3115" unicode="&#x3115;" 
d="M158 -69l-49 36q131 158 151 455h547v252h-600v59h660v-371h-553q-23 -255 -156 -431z" />
    <glyph glyph-name="uni3116" unicode="&#x3116;" 
d="M193 724h614v-776h-614v776zM253 665v-657h494v657h-494zM359 431l41 40q117 -89 235 -201l-41 -45q-108 110 -235 206z" />
    <glyph glyph-name="uni3117" unicode="&#x3117;" 
d="M106 729h787q-2 -270 -33 -425q-22 -86 -130 -89h-124l-9 58h130q65 0 75 52q26 148 30 345h-367v-755h-59v755h-300v59z" />
    <glyph glyph-name="uni3118" unicode="&#x3118;" 
d="M91 586h310q75 160 84 176l57 -15l-77 -161h443v-59h-470q-21 -44 -62 -125q-25 -50 -38 -77h448v-56q-56 -242 -289 -359l-32 49q201 105 252 306h-439l-13 45l108 217h-282v59z" />
    <glyph glyph-name="uni3119" unicode="&#x3119;" 
d="M113 -30l-20 49q221 310 381 700l54 -20q-167 -405 -348 -660q98 13 290 39q199 28 302 41q-38 68 -81 139l52 25q80 -131 167 -308l-53 -25l-58 114z" />
    <glyph glyph-name="uni311A" unicode="&#x311a;" 
d="M471 339l-343 351l44 40l329 -337l330 339l45 -41l-345 -352v-422h-60v422z" />
    <glyph glyph-name="uni311B" unicode="&#x311b;" 
d="M91 710h817v-59h-351v-270l-27 -25q-307 -10 -312 -180q9 -175 284 -187q235 -3 305 242l55 -23q-87 -280 -359 -278q-335 19 -347 245q3 221 340 239v237h-405v59z" />
    <glyph glyph-name="uni311C" unicode="&#x311c;" 
d="M91 622h404v162h62v-162h351v-59h-351v-208l-28 -24q-293 -12 -297 -174q8 -157 270 -168q228 -3 286 204l58 -19q-73 -241 -343 -245q-322 17 -333 228q3 210 325 232v174h-404v59z" />
    <glyph glyph-name="uni311D" unicode="&#x311d;" 
d="M87 526h179v233h61v-233h324v233h60v-233h201v-59h-201v-250h-60v250h-324v-442q1 -20 21 -20h503v-59h-524q-58 3 -61 63v458h-179v59z" />
    <glyph glyph-name="uni311E" unicode="&#x311e;" 
d="M95 743h820v-60h-306q-15 -149 -41 -266h287v-50q-28 -233 -109 -434l-55 17q73 167 101 409h-242q-89 -266 -394 -426l-31 48q270 147 360 378h-279l-20 40l84 284h-175v60zM255 417h249q31 105 45 266h-218z" />
    <glyph glyph-name="uni311F" unicode="&#x311f;" 
d="M114 580l-12 58q196 42 438 106q110 -447 360 -756l-51 -34q-232 290 -352 713q-212 -52 -383 -87z" />
    <glyph glyph-name="uni3120" unicode="&#x3120;" 
d="M160 337l-22 48q177 183 304 352l49 -36q-133 -170 -257 -296q37 4 112 11q156 15 237 22q90 105 155 199l49 -34q-243 -336 -553 -596l549 75q-20 45 -66 127l59 23q56 -108 127 -274l-56 -23l-41 92l-661 -89l-21 51q158 115 406 386q-61 -6 -185 -19t-185 -19z" />
    <glyph glyph-name="uni3121" unicode="&#x3121;" 
d="M130 -35l-25 56q220 66 406 229q-153 99 -342 182l28 49q196 -81 357 -189q116 136 209 368h-598v59h664v-60q-84 -228 -227 -401q163 -122 295 -252l-45 -43q-124 129 -289 252q-187 -179 -433 -250z" />
    <glyph glyph-name="uni3122" unicode="&#x3122;" 
d="M108 730h647v-59l-95 -302h241v-56q-57 -247 -251 -400l-38 47q175 150 223 352h-631l-20 39l99 320h-175v59zM251 369h345l96 302h-346q-15 -52 -47 -151q-32 -100 -48 -151z" />
    <glyph glyph-name="uni3123" unicode="&#x3123;" 
d="M148 387l-19 38q74 135 154 326l57 -16q-84 -208 -131 -288h661v-58q-48 -242 -164 -454l-55 26q111 201 152 426h-655z" />
    <glyph glyph-name="uni3124" unicode="&#x3124;" 
d="M112 542h348q19 90 22 196l61 -4q-8 -118 -21 -192h377v-59h-322v-482q1 -8 9 -9h314v-59h-322q-58 3 -61 63v487h-10q-120 -363 -356 -557l-45 40q237 188 339 517h-333v59z" />
    <glyph glyph-name="uni3125" unicode="&#x3125;" 
d="M131 -39l-21 40q249 303 416 693l59 -21q-157 -365 -383 -653h686v-59h-757z" />
    <glyph glyph-name="uni3126" unicode="&#x3126;" 
d="M153 -76l-54 33q160 196 159 491v284h65v-284q4 -318 -170 -524zM559 732h64v-714q1 -16 17 -16h260v-63h-276q-61 4 -65 67v726z" />
    <glyph glyph-name="uni3127" unicode="&#x3127;" 
d="M469 762h62v-825h-62v825z" />
    <glyph glyph-name="uni3128" unicode="&#x3128;" 
d="M159 -43l-44 40q170 162 353 348l-330 332l47 39q90 -87 326 -330q156 157 303 329l48 -41q-98 -114 -308 -328q202 -211 330 -348l-46 -41q-34 40 -327 347q-190 -192 -352 -347z" />
    <glyph glyph-name="uni3129" unicode="&#x3129;" 
d="M166 698h61v-659h547v659h59v-719h-667v719z" />
    <glyph glyph-name="uni3220" unicode="&#x3220;" 
d="M120 396h756v-48h-756v48zM228 -112h-37q-139 223 -138 460q1 235 137 461h37q-131 -228 -127 -461q-4 -236 128 -460zM773 809h37q136 -226 137 -461q1 -237 -138 -460h-37q132 224 128 460q4 233 -127 461z" />
    <glyph glyph-name="uni3221" unicode="&#x3221;" 
d="M773 809h37q136 -226 137 -461q1 -237 -138 -460h-37q62 112 90 200h-720v46h720v-45q37 118 38 259q4 233 -127 461zM228 -112h-37q-139 223 -138 460q1 235 137 461h37q-131 -228 -127 -461q-4 -236 128 -460zM203 697h599v-47h-599v47z" />
    <glyph glyph-name="uni3222" unicode="&#x3222;" 
d="M228 -112h-37q-139 223 -138 460q1 235 137 461h37q-131 -228 -127 -461q0 -143 40 -266v25h718v-31q41 123 42 272q4 233 -127 461h37q136 -226 137 -461q1 -237 -138 -460h-37q52 93 80 172h-705q26 -74 81 -172zM194 699h610v-46h-610v46zM220 418h557v-47h-557v47z
" />
    <glyph glyph-name="uni3223" unicode="&#x3223;" 
d="M773 809h37q136 -226 137 -461q1 -237 -138 -460h-37q132 224 128 460q1 184 -72 350v-689h-652v694h650q-23 51 -53 106zM229 655v-597h544v180h-140q-65 7 -72 70v347h-127v-137q10 -196 -147 -330l-38 38q77 70 104 132q29 60 28 160v137h-152zM773 655h-159v-332
q3 -34 38 -37h121v369zM227 -112h-37q-139 223 -138 460q1 235 137 461h37q-131 -228 -127 -461q-4 -236 128 -460z" />
    <glyph glyph-name="uni3224" unicode="&#x3224;" 
d="M192 437h178l35 216h-227v47h649q-15 36 -54 109h37q136 -226 137 -461q1 -237 -138 -460h-37q45 79 73 152h-690q28 -73 73 -152h-37q-139 223 -138 460q1 235 137 461h37q-131 -228 -127 -461q-1 -139 39 -262h174l49 304h-170v47zM828 653h-369l-36 -216h325v-351h113
q38 118 39 262q1 184 -72 351v-46zM696 390h-280l-50 -304h330v304z" />
    <glyph glyph-name="uni3225" unicode="&#x3225;" 
d="M228 -112h-37q-139 223 -138 460q1 235 137 461h37q-131 -228 -127 -461q-1 -166 52 -301l211 360l49 -28l-227 -386l-14 8q24 -54 57 -113zM773 809h37q136 -226 137 -461q1 -237 -138 -460h-37q33 58 56 112l-9 -6l-224 386l47 28l208 -354q49 131 50 294
q4 233 -127 461zM135 577h341v213l54 -8v-205h334v-49h-729v49z" />
    <glyph glyph-name="uni3226" unicode="&#x3226;" 
d="M875 486l-435 -63v-326q4 -41 45 -44h256q40 4 44 44v101l56 -9v-107q-7 -72 -80 -79h-296q-72 7 -79 79v334l-270 -39l-6 47l276 40v290h54v-282l429 63zM228 -112h-37q-139 223 -138 460q1 235 137 461h37q-131 -228 -127 -461q-4 -236 128 -460zM773 809h37
q136 -226 137 -461q1 -237 -138 -460h-37q132 224 128 460q4 233 -127 461z" />
    <glyph glyph-name="uni3227" unicode="&#x3227;" 
d="M228 -112h-37q-139 223 -138 460q1 235 137 461h37q-131 -228 -127 -461q-1 -156 47 -286q199 210 213 538l6 135h51l-7 -136q-11 -360 -235 -588l-14 14q27 -66 67 -137zM773 809h37q136 -226 137 -461q1 -237 -138 -460h-37q38 67 63 128l-3 -3q-224 217 -235 586
l-8 136h51l7 -134q12 -333 208 -533q44 126 45 280q4 233 -127 461z" />
    <glyph glyph-name="uni3228" unicode="&#x3228;" 
d="M164 604h202v161h51v-161h246v-476q3 -29 34 -32h73q30 3 33 32v114l50 -8v-118q-6 -60 -66 -66h-107q-60 7 -66 66v442h-197q8 -338 -239 -534l-30 32q30 -82 80 -168h-37q-139 223 -138 460q1 235 137 461h37q-131 -228 -127 -461q-1 -155 45 -282q232 175 221 492
h-202v46zM773 809h37q136 -226 137 -461q1 -237 -138 -460h-37q132 224 128 460q4 233 -127 461z" />
    <glyph glyph-name="uni3229" unicode="&#x3229;" 
d="M530 760v-315h355v-50h-355v-448h-57v448h-354v50h354v315h57zM228 -112h-37q-139 223 -138 460q1 235 137 461h37q-131 -228 -127 -461q-4 -236 128 -460zM773 809h37q136 -226 137 -461q1 -237 -138 -460h-37q132 224 128 460q4 233 -127 461z" />
    <glyph glyph-name="uni4E00" unicode="&#x4e00;" 
d="M64 408h871v-55h-871v55z" />
    <glyph glyph-name="uni4E01" unicode="&#x4e01;" 
d="M62 727h875v-56h-375v-659q-9 -85 -94 -94h-145l-15 56h137q51 4 55 56v641h-438v56z" />
    <glyph glyph-name="uni4E03" unicode="&#x4e03;" 
d="M932 492l-494 -72v-370q4 -47 51 -51h290q47 4 51 51v114l64 -10v-122q-8 -81 -91 -89h-337q-82 8 -90 89v379l-306 -44l-7 54l313 46v329h62v-320l487 71z" />
    <glyph glyph-name="uni4E04" unicode="&#x4e04;" 
d="M531 804v-791h415v-56h-894v56h417v791h62z" />
    <glyph glyph-name="uni4E05" unicode="&#x4e05;" 
d="M57 724h885v-55h-413v-771h-62v771h-410v55z" />
    <glyph glyph-name="uni4E07" unicode="&#x4e07;" 
d="M77 733h846v-56h-547v-139q0 -37 -2 -71h446v-426q-11 -106 -117 -117h-146l-14 56h137q71 7 78 78v353h-387q-14 -279 -270 -524l-45 45q154 157 205 281q55 123 53 324v140h-237v56z" />
    <glyph glyph-name="uni4E08" unicode="&#x4e08;" 
d="M85 621h513v186h62v-186h259v-56h-259v-5q2 -234 -125 -380q148 -120 416 -225l-26 -61q-275 112 -432 242q-125 -124 -411 -248l-27 58q268 113 391 232q-136 127 -223 314l53 28q82 -180 211 -299q113 131 111 339v5h-513v56z" />
    <glyph glyph-name="uni4E09" unicode="&#x4e09;" 
d="M77 23h846v-56h-846v56zM141 721h718v-55h-718v55zM172 390h656v-56h-656v56z" />
    <glyph glyph-name="uni4E0A" unicode="&#x4e0a;" 
d="M500 802v-308h367v-56h-367v-431h440v-56h-872v56h370v795h62z" />
    <glyph glyph-name="uni4E0B" unicode="&#x4e0b;" 
d="M65 726h870v-56h-439v-771h-62v771h-369v56zM559 485l308 -186l-33 -49l-308 186z" />
    <glyph glyph-name="uni4E0C" unicode="&#x4e0c;" 
d="M74 714h851v-55h-204v-745h-62v745h-294v-170q16 -376 -249 -597l-47 45q134 123 184 244q51 118 50 308v170h-229v55z" />
    <glyph glyph-name="uni4E0D" unicode="&#x4e0d;" 
d="M92 740h818v-55h-313q-169 -307 -509 -539l-37 53q317 211 476 486h-435v55zM529 469v-573h-62v573h62zM643 464l301 -249l-39 -50l-302 252z" />
    <glyph glyph-name="uni4E0E" unicode="&#x4e0e;" 
d="M858 425v-391q-11 -107 -117 -118h-163l-14 56h154q71 7 78 79v318h-603l44 441l60 -5l-16 -158h625v-56h-630l-16 -166h598zM68 215h653v-56h-653v56z" />
    <glyph glyph-name="uni4E10" unicode="&#x4e10;" 
d="M72 741h851v-56h-397v-148h350v-56h-350v-144h342v-324q-9 -85 -94 -94h-178l-14 56h169q51 4 55 55v251h-662l19 310l61 -3l-13 -251h253v348h-392v56z" />
    <glyph glyph-name="uni4E11" unicode="&#x4e11;" 
d="M132 384h181l27 303h-201v55h677l-25 -735h147v-55h-875v55h217l28 322h-176v55zM372 329l-29 -322h386l12 322h-369zM755 687h-351l-27 -303h366z" />
    <glyph glyph-name="uni4E13" unicode="&#x4e13;" 
d="M73 488h233q26 60 50 126h-218v54h238q27 74 50 145l58 -20q-19 -63 -42 -125h426v-54h-445q-23 -65 -50 -126h553v-54h-575q-28 -63 -58 -125h539v-56l-242 -227l193 -82l-21 -52l-563 241l21 52l310 -133l215 203h-519v55q25 48 58 124h-211v54z" />
    <glyph glyph-name="uni4E14" unicode="&#x4e14;" 
d="M61 1h135v749h610v-749h135v-56h-880v56zM258 196v-195h486v195h-486zM258 695v-194h486v194h-486zM258 446v-194h486v194h-486z" />
    <glyph glyph-name="uni4E15" unicode="&#x4e15;" 
d="M103 738h795v-56h-324q-181 -283 -484 -493l-38 52q276 186 447 441h-396v56zM88 9h825v-55h-825v55zM528 503v-413h-62v413h62zM635 510l307 -257l-39 -45l-308 258z" />
    <glyph glyph-name="uni4E16" unicode="&#x4e16;" 
d="M61 557h124v222h62v-222h181v240h62v-240h231v243h62v-243h156v-56h-156v-334h-355v334h-181v-501h656v-56h-718v557h-124v56zM490 222h231v279h-231v-279z" />
    <glyph glyph-name="uni4E17" unicode="&#x4e17;" 
d="M216 749v-259h250v310h62v-310h251v259h61v-259h108v-56h-108v-476h-684v476h-104v56h104v259h60zM528 13h251v421h-251v-421zM216 434v-421h250v421h-250z" />
    <glyph glyph-name="uni4E18" unicode="&#x4e18;" 
d="M71 9h141v712q337 10 620 38l8 -56q-272 -25 -566 -36v-244h617v-56h-188v-358h230v-55h-862v55zM274 367v-358h367v358h-367z" />
    <glyph glyph-name="uni4E19" unicode="&#x4e19;" 
d="M634 -30h115q52 4 56 55v467h-274q6 -211 -261 -402l-39 51q244 168 237 351h-270v-597h-62v652h333v145h-397v55h858v-55h-398v-145h335v-539q-9 -85 -94 -94h-125zM542 371l223 -220l-40 -43l-224 219z" />
    <glyph glyph-name="uni4E1A" unicode="&#x4e1a;" 
d="M636 801v-795h290v-56h-851v56h287v795h62v-795h150v795h62zM159 593l156 -349l-56 -25l-156 351zM898 568l-158 -351l-55 24l157 351z" />
    <glyph glyph-name="uni4E1B" unicode="&#x4e1b;" 
d="M680 793v-113v-2q29 -370 254 -598l-50 -42q-171 189 -226 421q-47 -222 -238 -423l-51 40q260 256 249 604v113h62zM336 793v-125q-2 -88 -6 -131l181 -192l-43 -43l-148 158q-31 -217 -199 -422l-53 37q219 247 206 594v124h62zM74 1h854v-55h-854v55z" />
    <glyph glyph-name="uni4E1C" unicode="&#x4e1c;" 
d="M89 660h231q42 76 77 150l55 -25q-32 -69 -62 -125h526v-56h-556q-69 -122 -141 -226h271v165h62v-165h329v-56h-329v-310q-9 -85 -95 -94h-130l-13 56h121q51 4 55 56v292h-345v55q63 87 144 227h-200v56zM341 217l-231 -235l-41 42l231 236zM711 260l231 -235l-41 -42
l-231 235z" />
    <glyph glyph-name="uni4E1D" unicode="&#x4e1d;" 
d="M505 207l30 1q96 98 183 214l-227 -5l-3 55h26q128 158 230 339l54 -30q-92 -153 -208 -307l170 5q53 74 95 143l53 -34q-125 -196 -290 -378l265 8l1 -55l-377 -12zM117 210l30 1q85 93 170 212l-223 -5l-2 55h22q108 134 217 335l54 -30q-82 -149 -197 -303l169 5
q53 80 84 136l54 -31q-115 -193 -271 -372l231 8l2 -55l-337 -12zM73 -4h855v-54h-855v54z" />
    <glyph glyph-name="uni4E1E" unicode="&#x4e1e;" 
d="M903 512l-201 -135q97 -114 255 -208l-35 -55q-277 172 -387 425v-368q-7 -77 -84 -84h-99l-15 56h92q40 4 44 44v391l229 120h-544v55h659l1 -57l-237 -126q36 -79 86 -148l205 139zM89 -4h820v-56h-820v56zM99 541h294v-53q-78 -196 -308 -376l-39 51q201 152 282 324
h-229v54z" />
    <glyph glyph-name="uni4E21" unicode="&#x4e21;" 
d="M343 378v-245h126v346h-282v-583h-60v638h342v148h-394v56h852v-56h-397v-148h343v-537q-7 -80 -87 -87h-138l-15 56h131q44 5 49 49v464h-283v-346h126v245h59v-299h-431v299h59z" />
    <glyph glyph-name="uni4E22" unicode="&#x4e22;" 
d="M142 523h327v160q-208 -7 -349 -8l-2 55q371 5 757 26l5 -56q-142 -8 -349 -15v-162h328v-55h-328v-155h400v-56h-461l5 -4q-99 -126 -236 -250l504 15l-126 119l42 43l254 -240l-41 -43l-72 68l-694 -20l-2 55l42 1q139 112 255 256h-332v56h400v155h-327v55z" />
    <glyph glyph-name="uni4E24" unicode="&#x4e24;" 
d="M873 -3q-7 -80 -87 -87h-117l-14 56h107q44 5 49 49v464h-159q-1 -70 -16 -137l162 -188l-44 -43l-137 162q-35 -109 -116 -221l-52 35q138 186 140 392h-180q-1 -60 -10 -111l121 -117l-39 -46l-98 98q-36 -116 -137 -242l-50 38q155 186 151 380h-158v-580h-62v635h220
v148h-272v56h852v-56h-275v-148h221v-537zM409 682v-148h180v148h-180z" />
    <glyph glyph-name="uni4E25" unicode="&#x4e25;" 
d="M908 373h-703v-115q6 -219 -102 -374l-56 34q54 76 75 151q21 74 21 189v170h228v266h-281v55h821v-55h-276v-266h273v-55zM433 694v-266h140v266h-140zM197 652l117 -143l-46 -37l-119 145zM858 618l-119 -147l-46 37l118 144z" />
    <glyph glyph-name="uni4E27" unicode="&#x4e27;" 
d="M530 809v-114h363v-54h-363v-237h400v-54h-457q48 -100 118 -169l233 124l28 -50l-216 -114q113 -93 320 -163l-23 -59q-403 137 -525 431h-134v-362l223 87l21 -55l-333 -129l-22 53l51 20v386h-146v54h401v237h-363v54h363v114h61zM824 568l-151 -136l-36 42l151 136z
M211 611l149 -134l-35 -43l-150 135z" />
    <glyph glyph-name="uni4E28" unicode="&#x4e28;" 
d="M530 801v-898h-62v898h62z" />
    <glyph glyph-name="uni4E2A" unicode="&#x4e2a;" 
d="M47 399q282 162 424 389h57q134 -226 425 -387l-31 -54q-278 163 -422 375q-165 -227 -423 -376zM530 434v-538h-62v538h62z" />
    <glyph glyph-name="uni4E2B" unicode="&#x4e2b;" 
d="M145 799l297 -280l-42 -42l-296 280zM894 756l-296 -282l-44 44l298 281zM530 438v-542h-63v542h63z" />
    <glyph glyph-name="uni4E2C" unicode="&#x4e2c;" 
d="M620 806v-911h-61v391l-260 -196l-35 46l295 223v447h61zM348 649l167 -205l-47 -37l-166 206z" />
    <glyph glyph-name="uni4E2D" unicode="&#x4e2d;" 
d="M110 633h360v173h62v-173h360v-429h-360v-309h-62v309h-360v429zM830 577h-298v-318h298v318zM172 577v-318h298v318h-298z" />
    <glyph glyph-name="uni4E30" unicode="&#x4e30;" 
d="M164 418h305v167h-356v56h356v165h62v-165h357v-56h-357v-167h306v-56h-306v-176h392v-56h-392v-235h-62v235h-391v56h391v176h-305v56z" />
    <glyph glyph-name="uni4E32" unicode="&#x4e32;" 
d="M153 686h316v121h63v-121h316v-254h-316v-99h354v-269h-354v-169h-63v169h-355v269h355v99h-316v254zM176 279v-161h293v161h-293zM824 279h-292v-161h292v161zM215 632v-146h254v146h-254zM785 632h-253v-146h253v146z" />
    <glyph glyph-name="uni4E34" unicode="&#x4e34;" 
d="M439 381h442v-448h-442v448zM620 795q-25 -70 -53 -133h371v-54h-203v-187h-59v187h-133q-52 -108 -121 -209l-53 33q122 164 194 380zM337 806v-911h-60v911h60zM501 327v-339h130v339h-130zM820 327h-130v-339h130v339zM168 708v-696h-59v696h59z" />
    <glyph glyph-name="uni4E36" unicode="&#x4e36;" 
d="M380 520l278 -277l-42 -44l-277 279z" />
    <glyph glyph-name="uni4E38" unicode="&#x4e38;" 
d="M398 808v-191h299v-600q3 -32 35 -35h108q33 3 36 35v170l61 -9v-181q-6 -64 -72 -71h-158q-67 6 -73 71v564h-236v-3q0 -145 -28 -258l186 -119l-32 -51l-172 110q-64 -186 -256 -348l-45 46q190 156 246 336l-184 118l34 50l167 -107q22 98 22 223v3h-246v56h246v191
h62z" />
    <glyph glyph-name="uni4E39" unicode="&#x4e39;" 
d="M563 -29h121q51 4 55 55v278h-464q-3 -255 -142 -419l-51 38q128 147 131 381h-156v56h158v25v361h586v-386h142v-56h-142v-295q-9 -85 -94 -94h-130zM277 385v-25h462v331h-462v-306zM441 628l175 -167l-41 -45l-175 169z" />
    <glyph glyph-name="uni4E3A" unicode="&#x4e3a;" 
d="M84 567h311v8v233h62v-233v-8h406v-526q-10 -108 -117 -118h-142l-14 56h133q71 7 78 79v453h-346q-1 -358 -352 -624l-42 50q329 251 332 574h-309v56zM534 371l172 -161l-41 -45l-172 162zM185 784l144 -143l-43 -43l-144 143z" />
    <glyph glyph-name="uni4E3B" unicode="&#x4e3b;" 
d="M110 628h778v-56h-358v-241h323v-56h-323v-279h392v-57h-845v57h391v279h-322v56h322v241h-358v56zM531 798v-139h-62v149z" />
    <glyph glyph-name="uni4E3D" unicode="&#x4e3d;" 
d="M260 404l109 -201l-51 -28l-108 201zM677 406l119 -202l-50 -30l-119 201zM73 738h855v-55h-855v55zM877 -15q-6 -66 -73 -72h-92l-15 54h85q31 3 34 35v524h-212v-631h-60v685h333v-595zM450 -14q-6 -66 -73 -73h-93l-13 55h84q31 3 34 34v525h-203v-632h-61v686h325
v-595z" />
    <glyph glyph-name="uni4E3E" unicode="&#x4e3e;" 
d="M531 475v-138h204v-56h-204v-127h360v-56h-360v-205h-62v205h-364v56h364v127h-208v56h208v138h62zM79 589h841v-55h-255q114 -153 294 -240l-32 -53q-214 112 -330 293h-193q-110 -177 -334 -296l-31 51q195 103 296 245h-256v55zM834 760l-139 -167l-45 39l139 166z
M213 791l108 -143l-47 -35l-108 143zM479 813l82 -154l-52 -28l-83 155z" />
    <glyph glyph-name="uni4E3F" unicode="&#x4e3f;" 
d="M630 793v-218q25 -445 -391 -682l-37 53q211 129 287 265q80 132 78 363v219h63z" />
    <glyph glyph-name="uni4E43" unicode="&#x4e43;" 
d="M897 39q-10 -108 -118 -118h-161l-15 56h153q72 7 79 79v337h-244v56l140 242h-362v-117q19 -394 -271 -682l-49 44q150 157 204 293q55 133 54 345v117h-202v55h697v-56l-140 -241h235v-410z" />
    <glyph glyph-name="uni4E45" unicode="&#x4e45;" 
d="M438 789q-34 -81 -63 -134h314v-56q-49 -138 -120 -251q130 -237 373 -407l-39 -52q-245 179 -371 403q-153 -219 -436 -403l-36 53q422 267 565 657h-281q-84 -142 -191 -256l-47 43q174 179 275 427z" />
    <glyph glyph-name="uni4E47" unicode="&#x4e47;" 
d="M459 37q4 -44 47 -48h280q44 4 48 48v110l63 -9v-120q-7 -77 -86 -85h-328q-79 8 -86 85v316l-327 -27l-6 55l333 27v264q-123 -12 -263 -19l-7 56q364 21 697 66l10 -55q-194 -26 -375 -43v-264l468 39l5 -55l-473 -39v-302z" />
    <glyph glyph-name="uni4E48" unicode="&#x4e48;" 
d="M660 289l270 -350l-47 -37l-56 72l-689 -20l-3 55l49 1q295 261 513 614l53 -34q-209 -326 -478 -577l513 15l-173 224zM534 779q-150 -255 -416 -503l-44 47q240 206 407 489z" />
    <glyph glyph-name="uni4E49" unicode="&#x4e49;" 
d="M240 712q70 -279 260 -473q181 180 255 475l59 -18q-85 -320 -269 -500q163 -148 410 -250l-30 -57q-253 106 -424 266q-148 -134 -429 -266l-27 56q261 119 411 253q-199 208 -275 498zM470 807l110 -219l-54 -27l-111 220z" />
    <glyph glyph-name="uni4E4B" unicode="&#x4e4b;" 
d="M54 -37q60 67 107 115q62 62 99 59q11 0 22 -4q302 207 501 427h-632v55h323v186l62 -8v-178h327v-56q-210 -243 -524 -461q1 0 1 -1q1 0 33.5 -30.5t89.5 -49.5q55 -20 164 -19h319l-15 -56h-304q-214 -9 -324 112q-27 26 -43 25q-18 2 -54 -38q-45 -48 -109 -122z" />
    <glyph glyph-name="uni4E4C" unicode="&#x4e4c;" 
d="M889 29q-10 -101 -113 -112h-155l-14 56h145q68 6 74 74v237h-614v420h180l44 106l59 -16l-37 -90h332v-182q-9 -93 -102 -102h-126l-14 55h117q57 5 62 62v111h-452v-308h614v-311zM73 170h667v-56h-667v56z" />
    <glyph glyph-name="uni4E4D" unicode="&#x4e4d;" 
d="M392 788q-36 -79 -72 -142h610v-55h-464v-164h386v-56h-386v-171h425v-56h-425v-249h-63v696h-116q-80 -125 -192 -244l-46 45q185 189 286 422z" />
    <glyph glyph-name="uni4E4E" unicode="&#x4e4e;" 
d="M70 354h412v323q-229 -7 -360 -7l-2 56q365 2 760 26l6 -56q-106 -7 -342 -17v-325h387v-55h-387v-296q-8 -80 -88 -88h-143l-13 56h133q46 3 49 49v279h-412v55zM851 591l-153 -192l-48 37l153 193zM211 629l153 -192l-48 -37l-152 192z" />
    <glyph glyph-name="uni4E4F" unicode="&#x4e4f;" 
d="M150 467h319v166l62 -8v-158h309v-56q-198 -185 -517 -342q46 -46 105 -61q57 -17 182 -16h337l-14 -56h-323q-141 -1 -207 20q-70 20 -128 79q-27 28 -37 27q-13 1 -43 -32q-33 -35 -99 -115l-43 42q64 74 94 106q52 58 91 55q17 0 32 -8q275 134 483 301h-603v56z
M111 719q382 11 768 38l4 -56q-387 -28 -769 -38z" />
    <glyph glyph-name="uni4E50" unicode="&#x4e50;" 
d="M855 703q-310 -34 -627 -39l-20 -269h282v193h62v-193h333v-55h-333v-330q-9 -84 -95 -93h-116l-13 56h107q51 4 55 55v312h-348l30 378q359 4 673 40zM718 260l229 -238l-44 -42l-228 238zM332 218l-227 -238l-44 42l228 237z" />
    <glyph glyph-name="uni4E52" unicode="&#x4e52;" 
d="M64 239h161v495q283 0 601 27l7 -56q-268 -23 -546 -26v-162h606v-55h-185v-223h229v-55h-873v55zM287 462v-223h359v223h-359zM408 82l-280 -190l-32 50l279 189z" />
    <glyph glyph-name="uni4E53" unicode="&#x4e53;" 
d="M63 239h162v495q284 0 602 27l6 -56q-270 -23 -546 -26v-162h606v-55h-185v-223h228v-55h-873v55zM287 462v-223h359v223h-359zM636 131l268 -187l-34 -49l-268 188z" />
    <glyph glyph-name="uni4E54" unicode="&#x4e54;" 
d="M81 528h338q33 65 46 152q-172 -4 -334 -6l-2 56q428 6 731 22l2 -55q-220 -12 -334 -15q-16 -92 -42 -154h430v-55h-307q100 -147 350 -230l-28 -58q-290 102 -393 288h-77q-87 -169 -388 -293l-28 58q254 100 343 235h-307v55zM376 284v-77q16 -191 -237 -319l-33 54
q122 66 164 122q44 55 43 144v76h63zM697 282v-385h-63v385h63z" />
    <glyph glyph-name="uni4E56" unicode="&#x4e56;" 
d="M72 580h395v113q-166 -5 -331 -7l-1 54q307 3 712 21l2 -54q-161 -8 -320 -12v-115h397v-54h-397v-633h-62v633h-395v54zM696 480v-149q109 42 197 91l24 -47q-96 -54 -221 -100v-101q3 -30 33 -33h110q29 3 32 33v71l60 -9v-80q-7 -61 -70 -68h-155q-62 7 -69 68v324h59
zM359 479v-401h-59v90l-215 -54l-14 53l229 56v102h-201v52h201v102h59z" />
    <glyph glyph-name="uni4E58" unicode="&#x4e58;" 
d="M72 597h396v94q-200 -5 -332 -5l-2 54q317 2 712 18l3 -54q-159 -7 -319 -11v-96h396v-54h-396v-239q130 -179 422 -299l-25 -58q-261 110 -397 269v-323h-62v324q-135 -152 -394 -272l-28 55q284 127 422 303v240h-396v54zM699 507v-96q87 28 179 71l22 -49
q-90 -42 -201 -76v-56q3 -32 35 -35h104q32 3 35 35v51l56 -8v-62q-6 -63 -70 -69h-149q-64 6 -70 69v225h59zM356 507v-292h-59v50l-215 -42l-10 52l225 43v75h-198v52h198v62h59z" />
    <glyph glyph-name="uni4E59" unicode="&#x4e59;" 
d="M257 -60q-165 -1 -163 100q1 63 62 125q197 202 550 516h-569v55h657v-56q-342 -305 -588 -550q-50 -49 -50 -86q-1 -49 97 -48h534q49 5 54 54v127l62 -10v-134q-7 -86 -93 -93h-553z" />
    <glyph glyph-name="uni4E5C" unicode="&#x4e5c;" 
d="M306 780v-263l528 147v-360q-9 -79 -88 -88h-104l-15 56h97q44 4 48 48v269l-466 -130v-419q4 -46 50 -50h461q44 5 49 50v96l63 -9v-105q-8 -80 -89 -88h-508q-81 7 -88 88v419l-164 -45l-14 54l178 49v281h62z" />
    <glyph glyph-name="uni4E5D" unicode="&#x4e5d;" 
d="M81 608h253v197h63v-197h308v-583q4 -38 42 -42h90q38 4 42 42v137l62 -9v-145q-7 -74 -82 -81h-134q-75 7 -82 81v544h-246q10 -417 -298 -656l-45 48q293 217 280 608h-253v56z" />
    <glyph glyph-name="uni4E5E" unicode="&#x4e5e;" 
d="M217 477h486l1 -58q-271 -191 -467 -346q-43 -32 -42 -57q2 -26 43 -27h542q45 5 50 50v119l62 -10v-127q-8 -80 -88 -88h-576q-93 4 -100 76q-2 49 61 100q138 112 413 312h-385v56zM376 783q-31 -57 -65 -106h584v-56h-624q-65 -85 -168 -177l-41 46q163 137 262 323z
" />
    <glyph glyph-name="uni4E5F" unicode="&#x4e5f;" 
d="M240 694v-208l234 65v255h62v-237l302 84v-352q-9 -89 -96 -97h-103l-14 57h96q51 5 56 56v260l-241 -67v-400h-62v383l-234 -65v-379q5 -56 61 -61h502q55 6 61 61v103l63 -9v-111q-8 -92 -100 -100h-550q-91 8 -99 100v379l-108 -30l-14 54l122 34v225h62z" />
    <glyph glyph-name="uni4E60" unicode="&#x4e60;" 
d="M245 609l286 -202l-35 -48l-286 203zM721 319l-597 -259l-23 53l597 259zM126 735h724v-696q-10 -108 -118 -118h-162l-15 56h154q72 7 79 78v624h-662v56z" />
    <glyph glyph-name="uni4E61" unicode="&#x4e61;" 
d="M843 657q-240 -216 -511 -372l418 20q46 68 76 155l58 -22q-120 -425 -797 -549l-16 62q471 93 636 296l-561 -26l-4 55l64 3q188 104 346 220l-420 -10l-2 56l51 1q163 103 337 274l43 -45q-131 -124 -278 -227l345 9q87 69 175 148z" />
    <glyph glyph-name="uni4E66" unicode="&#x4e66;" 
d="M439 808v-174h346v-273h118v-259q-9 -83 -93 -92h-168l-14 56h159q48 5 53 53v186h-401v-410h-62v410h-319v56h319v217h-255v56h255v174h62zM722 578h-283v-217h283v217zM742 779l201 -164l-38 -46l-202 165z" />
    <glyph glyph-name="uni4E69" unicode="&#x4e69;" 
d="M306 808v-181h224v-54h-224v-194h178v-436h-390v436h152v429h60zM155 325v-328h268v328h-268zM674 807v-774q4 -40 44 -44h106q40 4 44 44v144l61 -9v-152q-7 -76 -83 -83h-150q-77 7 -84 83v791h62z" />
    <glyph glyph-name="uni4E70" unicode="&#x4e70;" 
d="M633 634v-217q1 -76 -17 -139h311v-55h-331q-70 -182 -500 -333l-25 59q374 131 453 274h-449v55h475q21 59 21 140v216h62zM107 740h801v-53l-73 -185l-57 18l62 166h-733v54zM583 167l351 -221l-31 -55l-355 227zM193 476l204 -107l-26 -50l-204 108zM276 625l191 -107
l-28 -49l-189 108z" />
    <glyph glyph-name="uni4E71" unicode="&#x4e71;" 
d="M82 730q232 7 413 25l7 -54q-79 -8 -180 -14v-173h211v-54h-211v-165h162v-358h-383v358h160v165h-208v54h208v170q-101 -7 -175 -8zM671 20q3 -34 36 -37h125q34 3 37 37v145l60 -9v-155q-6 -69 -74 -75h-173q-67 6 -74 75v799h63v-780zM423 241h-261v-250h261v250z" />
    <glyph glyph-name="uni4E73" unicode="&#x4e73;" 
d="M330 -6q-7 -72 -78 -79h-93l-14 53h90q33 3 36 37v170l-216 -20l-3 54l219 20v69l151 108h-334v53h427v-54l-185 -130v-40l224 21l4 -54l-228 -22v-186zM681 802v-775q4 -37 40 -40h112q37 4 41 40v142l61 -9v-151q-7 -71 -79 -78h-158q-72 7 -79 78v793h62zM79 740
q246 5 462 19l5 -52q-276 -16 -464 -19zM538 634l-70 -144l-52 24l71 145zM136 649l63 -137l-52 -24l-63 137zM313 663l46 -139l-56 -17l-44 140z" />
    <glyph glyph-name="uni4E7E" unicode="&#x4e7e;" 
d="M51 126h188v90h-148v336h148v87h-179v54h179v115h61v-115h174v-54h-174v-87h148v-336h-148v-90h183v-54h-183v-177h-61v177h-188v54zM535 464h336v-58q-163 -181 -285 -343q-24 -33 -23 -46q1 -27 37 -28h241q34 3 37 37v98l60 -9v-109q-6 -67 -75 -73h-280q-81 3 -84 77
q1 39 34 82q113 147 260 316h-258v56zM696 793q-24 -63 -52 -123h298v-56h-326q-36 -71 -82 -141l-56 33q93 132 160 309zM151 268h238v91h-238v-91zM389 499h-238v-90h238v90z" />
    <glyph glyph-name="uni4E86" unicode="&#x4e86;" 
d="M101 733h803v-57l-349 -253v-415q-9 -84 -95 -93h-144l-15 56h137q51 4 55 55v423l311 228h-703v56z" />
    <glyph glyph-name="uni4E88" unicode="&#x4e88;" 
d="M165 748h676v-56l-292 -207l46 -32l-22 -31h343v-55l-88 -188l-59 20l81 168h-303v-361q-9 -83 -93 -92h-128l-14 56h120q48 5 53 53v344h-396v55h448l-248 177l35 48l173 -124l246 170h-578v55z" />
    <glyph glyph-name="uni4E89" unicode="&#x4e89;" 
d="M402 785q-24 -36 -52 -72h367v-54l-105 -107h222v-165h99v-54h-99v-166h-323v-164q-8 -79 -89 -88h-116l-14 54h110q44 4 48 48v150h-314v54h314v112h-382v54h382v111h-259v44q-39 -36 -81 -68l-39 49q169 126 281 297zM306 659q-48 -56 -104 -107h328l106 107h-330z
M511 221h262v112h-262v-112zM773 498h-262v-111h262v111z" />
    <glyph glyph-name="uni4E8B" unicode="&#x4e8b;" 
d="M138 384h333v62h-301v172h301v63h-395v49h395v77h58v-77h393v-49h-393v-63h304v-172h-304v-62h321v-121h92v-49h-92v-123h-321v-99q-7 -74 -83 -82h-111l-14 52h108q38 4 42 42v87h-349v50h349v73h-411v49h411v72h-333v49zM529 141h266v73h-266v-73zM778 570h-249v-77
h249v77zM795 335h-266v-72h266v72zM225 570v-77h246v77h-246z" />
    <glyph glyph-name="uni4E8C" unicode="&#x4e8c;" 
d="M73 39h853v-55h-853v55zM145 706h711v-56h-711v56z" />
    <glyph glyph-name="uni4E8D" unicode="&#x4e8d;" 
d="M567 9q-9 -84 -92 -93h-138l-15 57h130q48 5 53 53v376h-436v55h861v-55h-363v-393zM156 740h688v-55h-688v55z" />
    <glyph glyph-name="uni4E8E" unicode="&#x4e8e;" 
d="M133 735h737v-55h-313v-258h378v-56h-378v-356q-9 -83 -93 -93h-140l-15 57h133q47 5 52 53v339h-431v56h431v258h-361v55z" />
    <glyph glyph-name="uni4E8F" unicode="&#x4e8f;" 
d="M814 35q-11 -107 -118 -118h-144l-14 57h135q72 7 79 78v191h-537l46 218h-197v56h870v-56h-609l-35 -162h524v-264zM146 738h709v-56h-709v56z" />
    <glyph glyph-name="uni4E91" unicode="&#x4e91;" 
d="M104 17l43 1q145 172 261 377h-336v56h855v-56h-451q-107 -194 -254 -374l530 20l-135 181l47 34l239 -316l-48 -36l-62 83l-688 -25zM155 734h690v-55h-690v55z" />
    <glyph glyph-name="uni4E92" unicode="&#x4e92;" 
d="M111 734h786v-55h-576l-21 -170h486v-506h152v-55h-874v55h660v179h-527l62 497h-148v55zM724 453h-431l-27 -215h458v215z" />
    <glyph glyph-name="uni4E93" unicode="&#x4e93;" 
d="M67 465h868v-56h-211v-505h-63v505h-305v-116q11 -241 -238 -407l-40 51q227 149 215 355v117h-226v56zM157 733h689v-56h-689v56z" />
    <glyph glyph-name="uni4E94" unicode="&#x4e94;" 
d="M131 421h213l42 257h-271v55h773v-55h-439l-42 -257h386v-417h142v-55h-867v55h207l60 362h-204v55zM731 366h-333l-59 -362h392v362z" />
    <glyph glyph-name="uni4E95" unicode="&#x4e95;" 
d="M357 807v-206h302v206h62v-206h178v-56h-178v-235h216v-56h-216v-357h-62v357h-307q-14 -197 -222 -368l-44 47q186 152 202 321h-219v56h224q1 22 1 48v187h-190v56h190v206h63zM357 358q0 -9 -1 -26v-22h303v235h-302v-187z" />
    <glyph glyph-name="uni4E98" unicode="&#x4e98;" 
d="M185 574h628v-441h-628v441zM247 189h504v138h-504v-138zM751 518h-504v-137h504v137zM73 -3h852v-56h-852v56zM105 745h789v-56h-789v56z" />
    <glyph glyph-name="uni4E9A" unicode="&#x4e9a;" 
d="M108 745h785v-56h-254v-680h289v-56h-855v56h285v680h-250v56zM421 689v-680h156v680h-156zM155 550l168 -338l-55 -25l-168 336zM899 522l-169 -337l-54 26l167 336z" />
    <glyph glyph-name="uni4E9B" unicode="&#x4e9b;" 
d="M397 802v-173h130v-54h-130v-183l136 25l10 -52l-472 -87l-9 52l99 18v361h60v-350l115 21v422h61zM637 799v-220q155 73 254 139l28 -47q-117 -76 -282 -148v-133q3 -32 35 -35h165q32 3 35 35v89l60 -10v-97q-6 -65 -73 -71h-211q-66 7 -72 71v427h61zM86 -8h826v-54
h-826v54zM178 205h642v-54h-642v54z" />
    <glyph glyph-name="uni4E9C" unicode="&#x4e9c;" 
d="M145 515h213v174h-253v56h793v-56h-260v-174h214v-313h-214v-193h295v-56h-864v56h289v193h-213v313zM419 460v-203h158v203h-158zM791 460h-153v-203h153v203zM206 460v-203h152v203h-152zM419 202v-193h158v193h-158zM419 689v-174h158v174h-158z" />
    <glyph glyph-name="uni4E9F" unicode="&#x4e9f;" 
d="M362 557v-364h-247v364h247zM525 146q-9 -76 -85 -85h-109l-14 55h101q41 4 46 47v424l230 119h-502v54h619v-54l-286 -151v-409zM636 451l101 -105q56 70 95 150h-238v53h303v-52q-50 -109 -118 -193l131 -135l-41 -42l-129 133q-63 -68 -162 -140l-36 48q91 63 157 135
l-104 109zM83 -5h831v-56h-831v56zM173 506v-262h131v262h-131z" />
    <glyph glyph-name="uni4EA0" unicode="&#x4ea0;" 
d="M530 761v-218h400v-56h-865v56h402v227z" />
    <glyph glyph-name="uni4EA1" unicode="&#x4ea1;" 
d="M64 607h411v198l62 -9v-189h396v-56h-678v-551h610v-56h-672v607h-129v56z" />
    <glyph glyph-name="uni4EA2" unicode="&#x4ea2;" 
d="M935 133v-127q-8 -76 -85 -83h-146q-76 8 -84 83v381h-297v-104q7 -239 -224 -391l-39 51q212 138 201 340v160h421v-420q4 -40 44 -44h103q40 4 44 44v120zM89 645h380v161l62 -10v-151h379v-56h-821v56z" />
    <glyph glyph-name="uni4EA4" unicode="&#x4ea4;" 
d="M340 406q65 -119 159 -205q99 90 167 203l53 -34q-73 -117 -174 -210q150 -121 400 -205l-26 -60q-262 91 -421 224q-156 -130 -419 -232l-27 59q240 88 399 215q-96 90 -165 211zM76 669h391v136l62 -8v-128h393v-56h-846v56zM401 528l-277 -214l-36 48l279 212z
M634 575l279 -209l-35 -48l-278 211z" />
    <glyph glyph-name="uni4EA5" unicode="&#x4ea5;" 
d="M531 797v-121h381v-56h-421q-87 -96 -210 -201l283 7q67 69 122 151l50 -34q-197 -312 -658 -475l-22 58q277 95 448 244l-355 -9l-2 55l37 1q110 82 225 203h-312v56h372v130zM865 388q-108 -139 -229 -240l271 -215l-36 -47l-282 226q-176 -131 -455 -226l-21 58
q461 146 704 481z" />
    <glyph glyph-name="uni4EA6" unicode="&#x4ea6;" 
d="M531 799v-141h389v-56h-262v-590q-9 -86 -94 -95h-106l-15 57h98q51 4 55 55v573h-177v-170q17 -306 -265 -549l-44 46q264 223 247 504v169h-280v56h392v150zM246 456l-135 -275l-55 26l134 274zM808 482l135 -275l-54 -26l-134 275z" />
    <glyph glyph-name="uni4EA7" unicode="&#x4ea7;" 
d="M920 372h-698v-120q4 -213 -122 -366l-53 35q116 137 112 331v175h412l151 196l48 -37l-123 -159h273v-55zM101 687h385v119l62 -9v-110h388v-56h-835v56zM314 623l125 -151l-46 -39l-126 151z" />
    <glyph glyph-name="uni4EA8" unicode="&#x4ea8;" 
d="M196 571h608v-201h-608v201zM546 0q-8 -78 -86 -86h-114l-14 55h106q43 5 48 46v147l210 78h-581v54h724v-54l-293 -110v-130zM530 800v-97h380v-54h-823v54h382v107zM744 518h-489v-95h489v95z" />
    <glyph glyph-name="uni4EA9" unicode="&#x4ea9;" 
d="M154 509h692v-575h-692v575zM531 799v-117h406v-56h-874v56h406v127zM530 -10h254v205h-254v-205zM784 454h-254v-205h254v205zM216 195v-205h253v205h-253zM216 454v-205h253v205h-253z" />
    <glyph glyph-name="uni4EAB" unicode="&#x4eab;" 
d="M538 -5q-7 -74 -82 -82h-115l-15 53h109q38 4 42 42v105h-413v54h413v45l214 76h-529v53h673v-53l-297 -109v-12h395v-54h-395v-118zM194 591h611v-187h-611v187zM530 797v-87h381v-54h-824v54h382v97zM747 540h-496v-85h496v85z" />
    <glyph glyph-name="uni4EAC" unicode="&#x4eac;" 
d="M181 531h634v-268h-278v-264q-8 -77 -84 -85h-116l-15 56h107q42 4 46 46v247h-294v268zM755 477h-513v-160h513v160zM531 797v-111h389v-56h-842v56h391v120zM329 159l-235 -178l-37 47l236 177zM705 206l235 -177l-36 -47l-235 177z" />
    <glyph glyph-name="uni4EAD" unicode="&#x4ead;" 
d="M195 599h610v-180h-610v180zM93 206v150h814v-151h-59v98h-696v-97h-59zM195 219h610v-52h-265v-175q-6 -71 -80 -78h-117l-14 53h110q39 4 42 41v159h-286v52zM529 799v-83h385v-53h-829v53h385v92zM748 550h-497v-81h497v81z" />
    <glyph glyph-name="uni4EAE" unicode="&#x4eae;" 
d="M205 593h589v-187h-589v187zM674 13q3 -32 35 -35h125q33 3 36 35v67l58 -10v-76q-7 -64 -72 -71h-170q-65 6 -71 71v166h-268v-28q10 -159 -246 -245l-29 53q228 70 216 197v77h386v-201zM93 193v146h814v-147h-61v93h-692v-92h-61zM530 798v-83h380v-54h-822v54h381v92
zM735 542h-471v-85h471v85z" />
    <glyph glyph-name="uni4EB2" unicode="&#x4eb2;" 
d="M75 465h491l140 171l47 -37l-109 -134h276v-54h-388v-124h361v-54h-361v-230q-9 -80 -91 -89h-112l-14 56h106q46 5 51 50v213h-370v54h370v124h-397v54zM529 799v-103h346v-54h-756v54h350v113zM345 145l-236 -188l-36 46l235 188zM699 190l237 -188l-38 -45l-236 188z
M290 634l109 -130l-46 -37l-109 132z" />
    <glyph glyph-name="uni4EB3" unicode="&#x4eb3;" 
d="M80 105l337 21v81q-106 -7 -215 -12l-5 51q276 12 572 37l8 -50q-124 -11 -301 -23v-81l441 28l3 -51l-444 -28v-69q3 -31 34 -34h291q31 3 34 34v42l58 -10v-52q-6 -60 -66 -66h-345q-60 5 -65 66v85l-333 -20zM197 609h606v-166h-606v166zM92 250v137h816v-138h-58v87
h-700v-86h-58zM529 797v-79h383v-51h-823v51h381v89zM746 561h-492v-70h492v70z" />
    <glyph glyph-name="uni4EB5" unicode="&#x4eb5;" 
d="M573 241q-24 -18 -50 -34q42 -43 89 -79l205 99l22 -46l-178 -86q112 -71 292 -120l-17 -55q-308 87 -461 259q-62 -34 -131 -64v-144l209 66l14 -50l-308 -98l-15 50l41 13v139q-107 -42 -227 -77l-15 55q299 80 499 216zM452 473l94 -42q21 40 25 88h-123v50h124v77h56
v-77h190v-74q-1 -124 27 -168q11 -18 28 -18q17 1 25 23q10 31 16 65l50 -21q-10 -50 -23 -78q-21 -46 -68 -46q-47 2 -73 41q-40 60 -38 205v21h-135q-4 -62 -30 -111l110 -48l-22 -47l-117 52q-53 -64 -167 -117l-27 48q97 39 143 92l-85 39zM288 641v-75h114v-49h-114
v-72l114 10l4 -49l-118 -10v-86q-6 -64 -72 -71h-80l-13 49h75q31 3 34 35v68l-159 -14l-4 50l163 13v77h-148v49h148v75h56zM528 800v-85h388v-50h-833v50h388v94z" />
    <glyph glyph-name="uni4EBA" unicode="&#x4eba;" 
d="M531 801v-100v-25q-1 -17 -1 -25q10 -421 412 -698l-40 -52q-323 228 -401 553q-82 -321 -405 -556l-41 50q419 294 414 753v100h62z" />
    <glyph glyph-name="uni4EBB" unicode="&#x4ebb;" 
d="M528 776q-60 -112 -144 -224v-654h-62v575q-97 -114 -211 -213l-43 46q253 217 408 502z" />
    <glyph glyph-name="uni4EBF" unicode="&#x4ebf;" 
d="M420 730h441l1 -57q-221 -292 -403 -558q-37 -55 -37 -84q1 -34 45 -35h353q42 5 47 47v127l62 -10v-136q-7 -77 -86 -85h-389q-94 3 -97 85q0 46 47 116q183 266 385 534h-369v56zM355 785q-40 -112 -84 -207v-684h-62v562q-57 -103 -119 -183l-49 40q154 199 255 494z
" />
    <glyph glyph-name="uni4EC0" unicode="&#x4ec0;" 
d="M688 802v-353h262v-56h-262v-498h-62v498h-268v56h268v353h62zM367 785q-41 -109 -87 -203v-687h-62v570q-64 -110 -126 -192l-51 39q164 210 267 495z" />
    <glyph glyph-name="uni4EC1" unicode="&#x4ec1;" 
d="M367 784q-41 -110 -87 -206v-683h-62v564q-60 -106 -124 -189l-49 40q153 195 263 496zM364 30h583v-55h-583v55zM415 676h476v-56h-476v56z" />
    <glyph glyph-name="uni4EC2" unicode="&#x4ec2;" 
d="M346 600h182v206h63v-206h297v-576q-9 -85 -95 -94h-119l-14 56h109q52 4 56 55v503h-234q12 -399 -222 -654l-51 38q120 138 164 271q46 129 46 345h-182v56zM348 787q-38 -107 -83 -206v-686h-63v561q-53 -96 -116 -181l-51 40q160 216 254 494z" />
    <glyph glyph-name="uni4EC3" unicode="&#x4ec3;" 
d="M405 726h533v-55h-175v-657q-9 -85 -94 -94h-131l-14 57h121q52 4 56 55v639h-296v55zM351 791q-45 -124 -81 -204v-692h-63v564q-52 -97 -116 -187l-50 39q154 215 251 500z" />
    <glyph glyph-name="uni4EC4" unicode="&#x4ec4;" 
d="M925 679h-699v-240q8 -360 -124 -549l-56 32q67 95 93 210q26 111 25 307v296h761v-56zM608 645v-104q0 -5 -1 -15v-13q18 -343 351 -567l-39 -52q-261 182 -337 435q-60 -233 -339 -437l-41 50q363 254 343 599v104h63z" />
    <glyph glyph-name="uni4EC5" unicode="&#x4ec5;" 
d="M361 722h514v-55q-59 -279 -204 -471q114 -144 282 -253l-39 -53q-172 113 -284 254q-113 -134 -291 -255l-40 50q174 115 290 258q-141 199 -188 469h-40v56zM464 666q42 -231 167 -415q131 182 181 415h-348zM337 791q-35 -109 -77 -206v-690h-62v564
q-49 -90 -108 -168l-53 38q150 206 240 481z" />
    <glyph glyph-name="uni4EC6" unicode="&#x4ec6;" 
d="M364 788q-45 -125 -87 -213v-681h-63v561q-54 -94 -121 -181l-50 39q158 202 262 496zM623 805v-911h-63v911h63zM682 522l273 -230l-36 -48l-273 234z" />
    <glyph glyph-name="uni4EC7" unicode="&#x4ec7;" 
d="M764 13q3 -30 33 -33h53q28 2 31 33v145l59 -10v-154q-7 -63 -69 -69h-98q-63 7 -70 69v551h-159v-4q10 -401 -206 -652l-52 39q209 247 196 613v4h-143v55h143v205h62v-205h220v-587zM331 791q-33 -104 -78 -205v-691h-59v570q-55 -101 -110 -176l-49 38
q145 199 240 483z" />
    <glyph glyph-name="uni4EC9" unicode="&#x4ec9;" 
d="M934 148v-154q-6 -60 -65 -66h-97q-61 6 -67 66v690h-219v-233q2 -219 -28 -321q-29 -112 -124 -242l-54 36q92 121 118 223q28 92 26 304v288h343v-724q3 -28 32 -31h46q27 3 30 31v143zM327 787q-33 -106 -75 -205v-683h-61v557q-50 -92 -104 -169l-52 36
q146 206 234 482z" />
    <glyph glyph-name="uni4ECA" unicode="&#x4eca;" 
d="M49 429q273 158 422 363h54q151 -206 427 -360l-30 -57q-264 151 -423 354q-167 -209 -421 -354zM454 536l128 -155l-44 -40l-129 157zM148 292h670v-55l-284 -353l-48 41l255 311h-593v56z" />
    <glyph glyph-name="uni4ECB" unicode="&#x4ecb;" 
d="M46 400q272 164 422 392h62q155 -231 426 -390l-35 -56q-260 160 -421 381q-166 -229 -421 -382zM361 438v-153q7 -240 -217 -399l-41 49q204 145 196 351v152h62zM696 436v-537h-63v537h63z" />
    <glyph glyph-name="uni4ECD" unicode="&#x4ecd;" 
d="M365 735h479v-55l-105 -231h156v-435q-8 -81 -90 -90h-124l-14 56h115q47 4 51 51v364h-160v55l106 230h-248v-137q7 -405 -188 -656l-53 37q186 231 178 620v136h-103v55zM327 794q-30 -99 -72 -199v-699h-61v569q-45 -85 -104 -174l-50 36q150 223 229 483z" />
    <glyph glyph-name="uni4ECE" unicode="&#x4ece;" 
d="M682 805v-142v-27q26 -427 279 -695l-51 -41q-190 204 -254 505q-57 -269 -295 -507l-49 42q321 308 308 723v142h62zM323 805v-166q0 -89 -8 -168l19 17l186 -208l-42 -43l-168 190q-34 -285 -217 -527l-53 36q231 295 221 704v165h62z" />
    <glyph glyph-name="uni4ECF" unicode="&#x4ecf;" 
d="M768 426l183 -496l-59 -24l-30 82l-525 -25l-4 56l41 2q146 349 241 759l62 -13q-83 -367 -234 -743l399 18l-132 361zM363 784q-36 -104 -88 -208v-678h-62v562q-67 -114 -127 -194l-49 41q166 218 267 498z" />
    <glyph glyph-name="uni4ED1" unicode="&#x4ed1;" 
d="M285 448v-205q236 76 439 187l28 -52q-206 -113 -467 -198v-141q4 -46 50 -50h378q44 4 49 50v87l61 -9v-96q-8 -81 -88 -89h-424q-80 8 -88 89v427h62zM44 434q279 150 425 356h62q141 -202 426 -353l-33 -57q-268 149 -424 346q-160 -202 -424 -347z" />
    <glyph glyph-name="uni4ED3" unicode="&#x4ed3;" 
d="M46 450q275 147 422 345h62q153 -203 424 -342l-32 -57q-265 142 -422 336q-162 -197 -422 -337zM518 220h100q47 5 52 52v137h-382v-369q5 -45 50 -50h411q45 5 50 50v88l60 -10v-96q-8 -80 -88 -88h-457q-81 7 -88 88v443h506v-209q-10 -83 -93 -93h-106z" />
    <glyph glyph-name="uni4ED4" unicode="&#x4ed4;" 
d="M340 383h295v118l183 180h-384v56h465v-56l-202 -200v-98h260v-55h-260v-319q-9 -85 -93 -94h-118l-14 56h108q51 4 55 55v302h-295v55zM347 794q-31 -92 -81 -205v-695h-62v568q-57 -105 -112 -179l-53 38q140 184 250 496z" />
    <glyph glyph-name="uni4ED5" unicode="&#x4ed5;" 
d="M681 800v-310h272v-56h-272v-425h243v-56h-547v56h242v425h-271v56h271v310h62zM369 789q-47 -122 -97 -219v-676h-62v563q-55 -91 -119 -169l-50 42q160 191 270 482z" />
    <glyph glyph-name="uni4ED6" unicode="&#x4ed6;" 
d="M439 697v-214l162 52v272h60v-253l226 73v-352q-6 -70 -75 -76h-69l-15 56h64q32 3 35 35v259l-166 -54v-400h-60v381l-162 -52v-390q4 -46 50 -50h339q45 4 49 50v102l60 -10v-110q-7 -79 -87 -86h-385q-79 7 -86 87v388l-76 -24l-16 54l92 29v233h60zM315 790
q-27 -98 -74 -213v-681h-59v553q-44 -88 -89 -154l-52 35q132 198 216 478z" />
    <glyph glyph-name="uni4ED7" unicode="&#x4ed7;" 
d="M342 616h352v190h61v-190h177v-56h-177q2 -244 -102 -392q126 -134 305 -221l-32 -54q-183 91 -310 226q-93 -112 -281 -234l-37 50q190 120 277 230q-119 142 -182 329l59 19q50 -162 160 -297q83 127 82 344h-352v56zM344 788q-37 -112 -78 -206v-688h-61v563
q-54 -101 -117 -185l-52 39q153 203 248 497z" />
    <glyph glyph-name="uni4ED8" unicode="&#x4ed8;" 
d="M799 802v-212h151v-55h-151v-526q-9 -85 -94 -94h-125l-15 56h117q51 4 55 55v509h-399v55h399v212h62zM336 791q-36 -114 -86 -222v-675h-63v551q-47 -85 -90 -144l-53 36q141 198 233 473zM424 446l182 -212l-43 -41l-182 215z" />
    <glyph glyph-name="uni4ED9" unicode="&#x4ed9;" 
d="M435 600v-592h168v793h62v-793h169v593h60v-649h-519v648h60zM329 790q-35 -113 -80 -216v-678h-61v550q-53 -99 -97 -160l-52 36q142 207 230 487z" />
    <glyph glyph-name="uni4EDD" unicode="&#x4edd;" 
d="M210 376h580v-56h-260v-304h367v-56h-796v56h367v304h-258v56zM45 412q275 164 423 379h62q152 -222 424 -378l-32 -56q-274 166 -422 370q-151 -203 -423 -370z" />
    <glyph glyph-name="uni4EDE" unicode="&#x4ede;" 
d="M384 723h495v-704q-8 -84 -94 -93h-112l-14 56h103q51 4 55 55v631h-197v-161q17 -377 -264 -620l-47 44q264 222 249 573v164h-174v55zM334 789q-33 -103 -75 -202v-693h-61v566q-49 -91 -107 -169l-52 37q142 189 237 480zM479 516l-86 -256l-56 19l87 254z" />
    <glyph glyph-name="uni4EDF" unicode="&#x4edf;" 
d="M346 391h268v274q-5 0 -15 -1q-150 -9 -209 -11l-4 56q258 11 502 35l7 -55q-69 -8 -218 -19v-279h267v-56h-267v-442h-63v442h-268v56zM333 787q-39 -118 -78 -207v-686h-61v562q-46 -86 -106 -168l-52 38q147 206 238 479z" />
    <glyph glyph-name="uni4EE1" unicode="&#x4ee1;" 
d="M424 472h394v-57q-187 -177 -357 -349q-31 -31 -29 -52q0 -31 63 -31h328q37 3 40 40v104l62 -10v-115q-6 -69 -76 -75h-369q-116 1 -117 81q-1 43 43 89q141 145 325 319h-307v56zM334 790q-33 -110 -78 -215v-681h-60v555q-49 -93 -107 -176l-52 36q146 205 238 498z
M578 787q-28 -62 -63 -123h407v-55h-441q-49 -80 -114 -161l-50 38q126 148 207 327z" />
    <glyph glyph-name="uni4EE3" unicode="&#x4ee3;" 
d="M933 480l-334 -40q33 -274 133 -423q35 -54 77 -55q34 0 49 52q18 58 26 117l61 -22q-12 -65 -29 -121q-29 -87 -105 -88q-76 0 -128 78q-109 159 -144 454l-197 -23l-7 55l197 23q-6 62 -11 131q-7 99 -10 189l61 2q3 -84 10 -188q5 -67 11 -127l333 40zM358 780
q-42 -112 -84 -199v-687h-63v566q-51 -89 -112 -173l-51 39q158 214 252 476zM706 755l147 -136l-40 -45l-147 138z" />
    <glyph glyph-name="uni4EE4" unicode="&#x4ee4;" 
d="M165 349h658v-56l-279 -278l110 -78l-34 -49l-377 272l33 47l218 -156l244 242h-573v56zM45 436q282 161 423 363h62q150 -210 424 -362l-32 -56q-264 153 -422 355q-149 -192 -422 -355zM454 571l123 -138l-44 -40l-122 138z" />
    <glyph glyph-name="uni4EE5" unicode="&#x4ee5;" 
d="M817 769q-2 -102 -10 -216q-15 -201 -81 -330l229 -263l-46 -43l-214 251q-95 -152 -323 -279l-33 55q392 196 406 612q8 116 10 215zM203 748v-655l234 173l34 -46l-346 -256l-33 47l49 36v701h62zM423 807l130 -263l-53 -30l-130 267z" />
    <glyph glyph-name="uni4EE8" unicode="&#x4ee8;" 
d="M339 790q-32 -97 -76 -200v-694h-61v565q-58 -111 -111 -183l-52 37q144 193 241 495zM346 18h598v-56h-598v56zM387 709h516v-56h-516v56zM412 381h464v-55h-464v55z" />
    <glyph glyph-name="uni4EE9" unicode="&#x4ee9;" 
d="M316 6h258v798h62v-313h271v-55h-271v-430h314v-56h-634v56zM352 788q-39 -111 -88 -211v-679h-62v563q-57 -97 -127 -187l-49 41q165 210 269 497z" />
    <glyph glyph-name="uni4EEA" unicode="&#x4eea;" 
d="M433 689q62 -244 192 -425q142 198 200 428l60 -17q-75 -274 -220 -465q118 -145 290 -265l-39 -53q-173 122 -291 268q-121 -145 -303 -273l-37 52q172 114 300 273q-143 195 -212 460zM331 792q-28 -95 -72 -207v-691h-60v558q-52 -105 -107 -186l-52 35
q142 203 235 507zM601 808l98 -213l-56 -25l-97 214z" />
    <glyph glyph-name="uni4EEB" unicode="&#x4eeb;" 
d="M760 264l192 -333l-52 -35l-48 84l-519 -28l-4 56l37 2q254 252 424 582l53 -31q-158 -304 -389 -547l368 19l-113 199zM346 785q-36 -111 -83 -214v-677h-61v556q-61 -109 -119 -184l-51 38q162 212 255 502zM685 777q-132 -268 -319 -467l-47 44q185 188 312 450z" />
    <glyph glyph-name="uni4EEC" unicode="&#x4eec;" 
d="M323 786q-38 -115 -78 -208v-684h-60v557q-49 -95 -105 -170l-50 37q143 202 236 487zM601 732h300v-726q-9 -84 -94 -93h-110l-14 56h100q52 4 56 55v652h-238v56zM434 617v-723h-62v723h62zM437 809l117 -144l-48 -38l-117 145z" />
    <glyph glyph-name="uni4EF0" unicode="&#x4ef0;" 
d="M736 128h68q38 3 41 40v495h-164v-769h-61v823h285v-566q-7 -71 -78 -78h-77zM316 788q-34 -105 -77 -206v-688h-59v562q-48 -95 -96 -167l-52 34q129 189 226 484zM595 716l-166 -41v-547l136 71l25 -49l-231 -121l-26 49l36 19v620l213 53z" />
    <glyph glyph-name="uni4EF2" unicode="&#x4ef2;" 
d="M364 623h236v182h62v-182h236v-426h-236v-303h-62v303h-236v426zM330 787q-34 -102 -82 -210v-683h-59v563q-56 -104 -108 -177l-50 38q142 199 242 489zM836 567h-174v-315h174v315zM426 567v-315h174v315h-174z" />
    <glyph glyph-name="uni4EF3" unicode="&#x4ef3;" 
d="M704 796v-379q110 89 190 194l41 -38q-111 -134 -231 -226v-329q3 -32 35 -35h117q32 3 35 35v121l54 -9v-130q-7 -66 -72 -73h-158q-66 6 -72 73v796h61zM448 789v-307h148v-54h-148v-417l138 75l25 -51l-247 -134l-24 51l47 26v811h61zM328 787q-34 -101 -79 -203v-690
h-59v567q-58 -109 -105 -173l-51 36q143 202 237 484z" />
    <glyph glyph-name="uni4EF5" unicode="&#x4ef5;" 
d="M570 791q-21 -68 -50 -134h394v-56h-222v-260h260v-56h-260v-391h-62v391h-302v56h302v260h-135q-42 -89 -91 -169l-54 33q108 168 162 345zM346 790q-36 -107 -82 -207v-689h-61v567q-56 -101 -116 -183l-51 38q155 206 251 495z" />
    <glyph glyph-name="uni4EF6" unicode="&#x4ef6;" 
d="M691 808v-225h223v-55h-223v-240h256v-56h-256v-338h-63v338h-313v56h313v240h-175q-31 -94 -66 -166l-59 22q78 164 118 355l61 -11q-16 -75 -37 -145h158v225h63zM328 790q-32 -104 -82 -216v-680h-61v555q-49 -92 -104 -170l-51 37q149 210 241 493z" />
    <glyph glyph-name="uni4EF7" unicode="&#x4ef7;" 
d="M317 791q-34 -116 -73 -210v-687h-59v560q-40 -78 -90 -149l-53 35q137 196 217 468zM279 402q223 188 309 400h60q103 -235 314 -400l-40 -46q-191 151 -304 365q-101 -196 -298 -365zM515 425v-136q12 -239 -176 -401l-45 44q171 143 161 357v136h60zM777 422v-521h-60
v521h60z" />
    <glyph glyph-name="uni4EFB" unicode="&#x4efb;" 
d="M339 386h275v279q-111 -8 -228 -14l-3 56q283 14 507 42l9 -55q-139 -18 -223 -24v-284h270v-55h-270v-329h228v-56h-531v56h241v329h-275v55zM349 790q-35 -104 -80 -201v-696h-62v572q-58 -104 -113 -178l-53 36q153 203 248 487z" />
    <glyph glyph-name="uni4EFD" unicode="&#x4efd;" 
d="M383 405h445v-399q-8 -81 -91 -90h-116l-15 56h111q45 5 50 51v327h-232v-62q12 -214 -211 -403l-43 47q203 169 192 357v61h-90v55zM324 791q-33 -105 -76 -206v-691h-60v563q-52 -100 -99 -163l-51 36q134 187 228 479zM584 782q-84 -217 -242 -404l-51 39
q157 177 236 388zM724 806q87 -225 236 -385l-50 -41q-159 184 -242 402z" />
    <glyph glyph-name="uni4EFF" unicode="&#x4eff;" 
d="M689 798v-143h257v-55h-406v-156h322v-436q-9 -81 -90 -90h-118l-15 57h110q46 5 51 50v364h-260q7 -302 -196 -501l-51 39q109 116 146 219q40 101 39 269v185h-126v55h275v152zM333 790q-32 -104 -74 -203v-693h-62v563q-52 -94 -105 -164l-51 37q141 196 233 478z" />
    <glyph glyph-name="uni4F01" unicode="&#x4f01;" 
d="M555 535v-209h261v-54h-261v-274h361v-56h-860v56h154v402h61v-402h222v537h62zM40 440q278 147 428 353h62q155 -207 427 -350l-32 -56q-264 143 -425 343q-161 -200 -427 -344z" />
    <glyph glyph-name="uni4F08" unicode="&#x4f08;" 
d="M329 792q-30 -97 -78 -207v-686h-60v562q-54 -101 -106 -173l-50 38q137 183 236 483zM536 607v-578q4 -37 41 -41h153q36 4 40 41v121l59 -10v-129q-7 -72 -78 -79h-198q-72 6 -79 79v596h62zM855 534l107 -341l-57 -19l-106 342zM443 515l-95 -344l-56 15l95 344z
M618 809l115 -330l-54 -22l-115 331z" />
    <glyph glyph-name="uni4F09" unicode="&#x4f09;" 
d="M764 12q3 -32 32 -34h51q30 3 33 33v113l57 -9v-122q-6 -62 -69 -69h-96q-62 6 -68 69v405h-204v-112q11 -241 -160 -397l-47 43q84 76 115 154q32 75 31 200v167h325v-441zM340 793q-39 -117 -79 -209v-690h-59v566q-53 -104 -113 -188l-51 38q145 203 245 502zM648 796
v-155h245v-55h-538v55h231v163z" />
    <glyph glyph-name="uni4F0A" unicode="&#x4f0a;" 
d="M312 523h189v171h-133v54h493v-225h85v-56h-85v-225h-311q-27 -206 -203 -358l-45 45q164 144 186 313h-141v54h148q6 69 6 157v14h-189v56zM323 794q-33 -116 -82 -232v-668h-60v538q-46 -89 -89 -149l-51 36q138 202 223 491zM557 296h241v171h-235v-13q0 -87 -6 -158z
M798 694h-235v-171h235v171z" />
    <glyph glyph-name="uni4F0D" unicode="&#x4f0d;" 
d="M361 416h144l41 261h-200v55h565v-55h-301l-41 -261h287v-413h99v-55h-657v55h142l56 357h-135v56zM795 360h-235l-56 -357h291v357zM307 793q-28 -103 -72 -213v-686h-60v549q-45 -93 -93 -169l-52 36q132 215 219 500z" />
    <glyph glyph-name="uni4F0E" unicode="&#x4f0e;" 
d="M659 809v-150h271v-56h-271v-150h223v-56q-78 -170 -208 -288q110 -88 284 -166l-28 -56q-185 83 -304 181q-130 -102 -323 -179l-27 57q182 70 303 164q-118 110 -190 267l31 20h-68v56h245v150h-266v56h266v150h62zM321 795q-26 -93 -72 -209v-690h-61v554
q-45 -94 -97 -172l-52 37q137 205 223 496zM445 397q70 -147 182 -248q114 102 186 248h-368z" />
    <glyph glyph-name="uni4F0F" unicode="&#x4f0f;" 
d="M642 805v-284h289v-56h-288q38 -312 308 -524l-45 -49q-222 181 -293 422q-72 -241 -289 -424l-44 46q273 233 298 529h-245v56h247v284h62zM342 790q-35 -107 -83 -211v-685h-61v564q-51 -93 -108 -170l-50 40q144 194 244 481zM756 753l132 -140l-43 -39l-132 142z" />
    <glyph glyph-name="uni4F10" unicode="&#x4f10;" 
d="M930 511l-334 -38q17 -127 45 -229q113 93 192 204l48 -38q-94 -128 -220 -230q31 -90 76 -163q38 -57 74 -56q32 -2 48 46q18 50 28 116l60 -21q-14 -72 -29 -118q-31 -89 -105 -87q-78 -2 -130 86q-43 72 -74 157q-110 -83 -262 -159l-34 55q155 75 276 166
q-35 120 -53 264l-173 -20l-5 55l171 19q-5 50 -8 104l-10 182l61 2l10 -182q3 -51 8 -99l334 39zM365 780q-32 -90 -88 -205v-681h-63v564q-60 -105 -127 -190l-49 41q164 205 270 493zM700 759l146 -132l-42 -43l-145 133z" />
    <glyph glyph-name="uni4F11" unicode="&#x4f11;" 
d="M647 808v-209h270v-56h-255q93 -267 300 -460l-45 -45q-177 174 -270 389v-533h-62v539q-97 -216 -282 -405l-46 43q216 215 310 472h-235v56h253v209h62zM321 793q-29 -99 -72 -208v-691h-60v556q-48 -100 -97 -172l-51 37q135 197 222 495z" />
    <glyph glyph-name="uni4F17" unicode="&#x4f17;" 
d="M689 492v-83q0 -20 -1 -39q25 -242 267 -432l-42 -50q-187 148 -253 338q-61 -183 -268 -340l-42 50q284 202 277 473v83h62zM58 458q265 137 411 343h62q143 -203 407 -338l-31 -58q-245 129 -407 328q-148 -191 -412 -332zM339 492v-95q0 -24 -2 -48l191 -162l-36 -48
l-164 140q-41 -214 -234 -389l-46 45q232 207 228 462v95h63z" />
    <glyph glyph-name="uni4F18" unicode="&#x4f18;" 
d="M583 807v-229v-25h337v-55h-220v-480q3 -30 33 -33h106q29 3 32 33v134l62 -9v-145q-6 -63 -70 -69h-155q-64 6 -70 69v500h-57q-12 -370 -252 -610l-49 42q229 230 239 568h-199v55h201v25v229h62zM332 792q-35 -109 -80 -214v-684h-61v558q-51 -96 -108 -176l-50 39
q146 203 240 497zM727 765l132 -126l-40 -41l-131 128z" />
    <glyph glyph-name="uni4F19" unicode="&#x4f19;" 
d="M649 806v-272v-21q-1 -14 -1 -21q23 -310 300 -557l-45 -46q-222 205 -281 431q-57 -221 -294 -433l-44 46q316 270 303 600v273h62zM331 794q-31 -105 -78 -217v-683h-61v554q-53 -100 -102 -167l-51 39q141 197 232 491zM378 641l135 -253l-53 -29l-133 254zM906 614
l-133 -255l-52 30l134 253z" />
    <glyph glyph-name="uni4F1A" unicode="&#x4f1a;" 
d="M135 3l44 1q109 106 202 235h-272v56h782v-56h-434q-86 -125 -195 -233l451 11l-111 121l45 40l219 -235l-43 -44l-60 65l-627 -17zM51 444q269 148 421 348h55q139 -191 421 -348l-32 -55q-270 152 -416 339q-157 -191 -418 -338zM260 482h480v-56h-480v56z" />
    <glyph glyph-name="uni4F1B" unicode="&#x4f1b;" 
d="M916 689h-497v-705h517v-55h-579v815h559v-55zM902 594l-178 -248l190 -259l-52 -39l-176 244l-175 -245l-50 37l188 261l-180 250l49 34l169 -232l165 230zM320 795q-31 -105 -76 -212v-688h-61v557q-50 -97 -95 -163l-51 38q133 195 223 484z" />
    <glyph glyph-name="uni4F1D" unicode="&#x4f1d;" 
d="M337 10l41 2q109 181 193 393h-243v56h623v-56h-314q-81 -200 -187 -389l369 21l-100 187l53 29l173 -321l-53 -30l-44 81l-508 -29zM323 792q-36 -111 -75 -206v-690h-59v559q-55 -110 -103 -178l-49 39q131 184 229 493zM396 731h493v-55h-493v55z" />
    <glyph glyph-name="uni4F1E" unicode="&#x4f1e;" 
d="M68 186h399v395h63v-395h400v-55h-400v-235h-63v235h-399v55zM40 482q264 125 428 321h62q161 -192 428 -318l-32 -58q-259 130 -426 317q-172 -192 -428 -319zM231 455l147 -156l-43 -42l-146 158zM811 414l-146 -158l-44 42l147 154z" />
    <glyph glyph-name="uni4F1F" unicode="&#x4f1f;" 
d="M357 491h203v123h-230v54h230v140h61v-140h274v-54h-274v-123h235v-54h-235v-130h280v-216q-7 -72 -80 -79h-110l-13 55h103q37 4 41 40v146h-221v-358h-61v358h-258v54h258v130h-203v54zM327 790q-32 -102 -79 -210v-685h-59v562q-53 -102 -108 -181l-50 37
q152 219 240 496z" />
    <glyph glyph-name="uni4F20" unicode="&#x4f20;" 
d="M317 483h167q20 63 37 127h-147v54h162q13 51 34 148l63 -14q-15 -68 -32 -134h304v-54h-318q-18 -64 -37 -127h395v-54h-413q-21 -65 -43 -126h393v-55l-178 -229l141 -78l-28 -51l-408 228l28 51l213 -120l158 200h-387v54q23 58 46 126h-150v54zM334 792
q-31 -103 -75 -205v-693h-62v562q-52 -99 -105 -175l-51 37q145 206 234 492z" />
    </font>
</defs>
</svg>
